<?xml version="1.0" encoding="utf-8"?>
<!-- Generator: Adobe Illustrator 18.0.0, SVG Export Plug-In . SVG Version: 6.00 Build 0)  -->
<!DOCTYPE svg PUBLIC "-//W3C//DTD SVG 1.1//EN" "http://www.w3.org/Graphics/SVG/1.1/DTD/svg11.dtd">
<svg version="1.1" xmlns="http://www.w3.org/2000/svg" xmlns:xlink="http://www.w3.org/1999/xlink" x="0px" y="0px"
	 viewBox="0 0 399.4 399.4" enable-background="new 0 0 399.4 399.4" xml:space="preserve">
<g id="Layer_1">
	<circle fill="#9D9D9C" cx="199.7" cy="199.7" r="199.7"/>
	<g>
		<circle fill="#FFFFFF" cx="49.5" cy="337.8" r="37.3"/>
		<g>
			<path fill="#27316A" d="M63.2,315c-3.2,3-7.5,5-12.2,5.4v34.9c4.7,0.4,8.9,2.3,12.2,5.4c5.1-6.4,7.8-14.5,7.8-22.8
				C71,329.5,68.2,321.4,63.2,315z"/>
			<path fill="#27316A" d="M35.8,360.7c3.2-3.1,7.5-5,12.2-5.4v-34.9c-4.7-0.4-9-2.3-12.2-5.4c-5,6.4-7.7,14.5-7.7,22.9
				C28.1,346.2,30.8,354.3,35.8,360.7z"/>
			<path fill="#27316A" d="M49.5,358.2c-8,0-14.8,5.6-16.5,13.1c5,2.5,10.6,3.8,16.5,3.8s11.5-1.4,16.5-3.8
				C64.3,363.8,57.5,358.2,49.5,358.2z"/>
			<path fill="#27316A" d="M33.8,363c-5.6-7-8.7-15.9-8.7-25.1c0-9.2,3.1-18.1,8.7-25.1c-1.6-2-2.8-4.4-3.5-6.9
				c-10.9,6.5-18.1,18.4-18.1,32c0,13.6,7.3,25.5,18.1,32C31,367.3,32.2,365,33.8,363z"/>
			<path fill="#27316A" d="M68.7,305.8c-0.7,2.6-1.9,4.9-3.5,6.9c5.7,7,8.8,15.8,8.8,25.1c0,9.2-3.1,18.1-8.8,25.1
				c1.6,2,2.8,4.4,3.5,6.9c10.9-6.5,18.1-18.4,18.1-32C86.8,324.3,79.6,312.4,68.7,305.8z"/>
			<path fill="#27316A" d="M49.5,300.5c-5.9,0-11.5,1.4-16.5,3.8c1.7,7.5,8.5,13.1,16.5,13.1s14.8-5.6,16.5-13.1
				C61,301.9,55.4,300.5,49.5,300.5z"/>
		</g>
	</g>
	<ellipse fill="#FFFFFF" cx="261.5" cy="129.4" rx="5.5" ry="6"/>
	<g>
		<g>
			<g>
				<path fill="#27316A" d="M239.3,157.8c3.1-0.3,5.7-2.9,6-6c0.2-2.2-0.6-4.3-2.2-5.8c-0.1-0.1-0.2-0.2-0.2-0.2L231.7,134v17
					C231.7,155,235.2,158.2,239.3,157.8z"/>
				<path fill="#27316A" d="M333.6,117.1H323h-75.8c-7.4,0-13.7,4.9-15.8,11.6l14,14.7c0,0,0,0,0,0c2.4,2.2,3.6,5.4,3.2,8.6
					c-0.5,4.8-4.3,8.6-9.1,9.1c-0.4,0-0.8,0.1-1.2,0.1c-4.6,0-8.5-3-9.8-7.2c-1.8-0.5-3.6-0.8-5.6-0.8h-100c-2.6,0-5,0.5-7.2,1.4
					c-5-3.5-9.1-8.3-11.5-14.2c-5.8-14-0.9-30,11.1-39.9c-3.8,0.4-7.7,1.3-11.5,2.8c-19,7.8-28.5,28.4-21.2,46
					c4,9.6,12.1,16.3,21.7,19.1c-0.3,1.3-0.4,2.5-0.4,3.9v30.9c0,9.2,6.5,16.9,15.1,18.7v55.8h6.2v-55.3h7.6v55.3h6.2v-55.3h66.5
					v55.3h6.2v-55.3h7.6v55.3h6.2v-55.5c9.4-1.2,16.7-9.2,16.7-18.9v-25.7c0.9-2.2,1.2-4.8,2.3-7c0.1-0.2,0.2-0.4,0.3-0.6h65.3
					c14.6,0,26.5-11.8,26.5-26.5v-12.9v-10.5C336.6,118.4,335.2,117.1,333.6,117.1z M261.4,132.6c-2,0-3.7-1.6-3.7-3.7
					s1.6-3.7,3.7-3.7s3.7,1.6,3.7,3.7S263.5,132.6,261.4,132.6z"/>
			</g>
			<path fill="#FFED00" stroke="#FFED00" stroke-width="2" stroke-miterlimit="10" d="M215.2,182.7c0-3.8-3-6.8-6.8-6.8
				c-3.8,0-6.8,3-6.8,6.8c0,2,0.9,3.8,2.3,5.1h0l11.4,12l11.4-12h0c1.4-1.2,2.3-3,2.3-5.1c0-3.8-3-6.8-6.8-6.8
				C218.2,175.9,215.2,178.9,215.2,182.7"/>
			
				<path fill="#CC003D" stroke="#CC003D" stroke-width="2" stroke-linecap="round" stroke-linejoin="round" stroke-miterlimit="10" d="
				M325.2,255.7L325.2,255.7c-0.4-4.4-1.8-8.3-4-11.1h0l-20-30l-20,30h0c-2.2,2.8-3.6,6.7-3.9,11.1h-0.1c0,0.2,0,0.5,0,0.7
				c0,0.3,0,0.6,0,0.9c0,2.7,0.7,5.1,1.7,7.3c3.5,8.8,12.1,15,22.2,15c6.8,0,12.9-2.8,17.2-7.3c3.6-2.9,6.7-7.8,6.7-15
				c0-0.3,0-0.6,0-0.9C325.2,256.1,325.2,255.9,325.2,255.7z"/>
		</g>
		<g>
			<path fill="#FFFFFF" d="M308.9,249.7c0,2.3-1.2,3.7-2.5,4.6l-1.2,0.9c-0.7,0.6-1.3,1-1.3,1.5v0.6h-5v-1.7c0-2.3,3.8-3.5,3.8-6.1
				c0-1.1-0.8-2-1.9-2c-1.6,0-1.9,1.2-1.9,2.4v0.4c0,0.1,0,0.2,0,0.4h-5.3c0-0.4-0.1-0.7-0.1-1.1c0-3.8,3.8-6.1,7.3-6.1h1.1
				C305.5,243.4,308.9,245.9,308.9,249.7z M304.4,263.6h-5.5v-5.3h5.5V263.6z"/>
		</g>
	</g>
</g>
<g id="poznamky" display="none">
</g>
</svg>
