<?xml version="1.0" encoding="utf-8"?>
<!-- Generator: Adobe Illustrator 18.0.0, SVG Export Plug-In . SVG Version: 6.00 Build 0)  -->
<!DOCTYPE svg PUBLIC "-//W3C//DTD SVG 1.1//EN" "http://www.w3.org/Graphics/SVG/1.1/DTD/svg11.dtd">
<svg version="1.1" xmlns="http://www.w3.org/2000/svg" xmlns:xlink="http://www.w3.org/1999/xlink" x="0px" y="0px"
	 viewBox="0 0 400 822.8" enable-background="new 0 0 400 822.8" xml:space="preserve">
<g id="Layer_1">
	<g>
		<circle fill="#27316A" cx="200" cy="200" r="200"/>
		<g>
			<g>
				<g>
					<path fill="#FFFFFF" stroke="#FFFFFF" stroke-linecap="round" stroke-linejoin="round" stroke-miterlimit="10" d="M111.4,52
						c3.1-1.6,6.3-2.7,9.5-3.3c-9.4,9.2-12.4,23.2-6.5,34.7c2.8,5.4,7.1,9.4,12.3,12c2.3-1,4.8-1.5,7.5-1.5H213c1,0,2,0.1,2.9,0.2
						V38.1c0,12.4,10.1,22.5,22.5,22.5h57.7l0.2-0.1h6.2c2.1,0,3.8,1.7,3.8,3.8v6.2l-0.2-7.2v30.9c0,6.4-5.2,11.5-11.5,11.5h-63.6
						c1,2.4,1.6,5,1.6,7.7v19.9c0,8.9-6,16.5-14.2,18.8V200H213v-47.1l0,0h-6.4V200h-5.3v-47.1h-56.6V200h-5.3v-47.1h-5.1
						c-0.5,0-0.9,0-1.3-0.1V200h-5.3v-48.3c-7.5-2.7-12.9-9.9-12.9-18.3v-19.9c0-2.2,0.4-4.4,1.1-6.4c-8.1-1.9-15.1-6.9-19.1-14.5
						C89.3,78.2,95.9,60.1,111.4,52z"/>
					<path fill="#FFFFFF" stroke="#FFFFFF" stroke-linecap="round" stroke-linejoin="round" stroke-miterlimit="10" d="M121.1,48.8
						C121,48.8,121,48.8,121.1,48.8C121,48.8,121,48.8,121.1,48.8L121.1,48.8z"/>
				</g>
				<circle fill="#312783" stroke="#312783" stroke-miterlimit="10" cx="244.9" cy="71.3" r="2.7"/>
				<path fill="#CC003D" stroke="#CC003D" stroke-width="2" stroke-miterlimit="10" d="M206.6,119.1c0-3.2,2.6-5.8,5.8-5.8
					c3.2,0,5.8,2.6,5.8,5.8c0,1.7-0.7,3.2-1.9,4.3h0l-9.7,10.2l-9.7-10.2h0c-1.2-1.1-1.9-2.6-1.9-4.3c0-3.2,2.6-5.8,5.8-5.8
					C204,113.3,206.6,115.9,206.6,119.1"/>
			</g>
		</g>
		<g>
			<path fill="#FFFFFF" d="M214.2,247.5l-2.5-7.2h2.2l1.6,4.8h0.1l1.6-4.8h2l-2.5,7.2H214.2z"/>
			<path fill="#FFFFFF" d="M222.9,241.6c-0.8,0-1.2,0.5-1.2,0.8v0.1h-2c0-0.1,0-0.2,0-0.3c0-1.2,1.3-2.1,3.2-2.1h0.3
				c2.1,0,3.1,0.9,3.1,2.2v3.3c0,0.4,0.2,0.5,0.4,0.5c0.2,0,0.5-0.1,0.6-0.2v1.3c-0.1,0.1-0.5,0.3-1.2,0.3c-1.1,0-1.6-0.5-1.7-1.2
				c-0.5,0.6-1.3,1.2-2.4,1.2c-1.1,0-2.4-0.3-2.4-2.1c0-2.1,1.9-2.4,4.7-2.4v-0.5C224.1,242.1,223.8,241.6,222.9,241.6z
				 M221.5,245.4c0,0.6,0.4,0.8,1,0.8c0.7,0,1.6-0.6,1.6-1.6v-0.4C222.4,244.3,221.5,244.6,221.5,245.4z M223.6,237.4h1.8l0,0
				l-1.7,2h-1.4L223.6,237.4z"/>
			<path fill="#FFFFFF" d="M229.9,241.1c0.4-0.5,1.1-0.8,2-0.8c1.4,0,2.5,0.7,2.5,2.3v5h-2V243c0-0.7-0.5-1.3-1.1-1.3
				c-0.7,0-1.3,0.6-1.3,1.4v4.4h-2v-10.1h2V241.1z"/>
			<path fill="#FFFFFF" d="M239.1,241.6c-0.8,0-1.2,0.5-1.2,0.8v0.1h-2c0-0.1,0-0.2,0-0.3c0-1.2,1.3-2.1,3.2-2.1h0.3
				c2.1,0,3.1,0.9,3.1,2.2v3.3c0,0.4,0.2,0.5,0.4,0.5c0.2,0,0.5-0.1,0.6-0.2v1.3c-0.1,0.1-0.5,0.3-1.2,0.3c-1.1,0-1.6-0.5-1.7-1.2
				c-0.5,0.6-1.3,1.2-2.4,1.2c-1.1,0-2.4-0.3-2.4-2.1c0-2.1,1.9-2.4,4.7-2.4v-0.5C240.3,242.1,240,241.6,239.1,241.6z M237.7,245.4
				c0,0.6,0.4,0.8,1,0.8c0.7,0,1.6-0.6,1.6-1.6v-0.4C238.6,244.3,237.7,244.6,237.7,245.4z"/>
			<path fill="#FFFFFF" d="M252.8,241.4c0.5-0.8,1.2-1.1,2.1-1.1c1.3,0,2.3,0.8,2.3,2.3v5h-2v-4.6c0-0.8-0.4-1.2-1-1.2
				c-0.6,0-1.2,0.6-1.2,1.4v4.4h-2v-4.6c0-0.8-0.4-1.2-1-1.2c-0.6,0-1.1,0.6-1.1,1.4v4.4h-2v-7.2h1.5c0.1,0.4,0.2,0.7,0.2,1.1
				c0.5-0.8,1.3-1.2,2.1-1.2C251.6,240.2,252.4,240.6,252.8,241.4z"/>
			<path fill="#FFFFFF" d="M260.8,237.4v1.6h-2.1v-1.6H260.8z M258.7,240.4h2v7.2h-2V240.4z"/>
			<path fill="#FFFFFF" d="M264.1,241.4c0.4-0.6,1.2-1.2,2.3-1.2c1.4,0,2.5,0.7,2.5,2.3v5h-2V243c0-0.7-0.5-1.3-1.1-1.3
				c-0.7,0-1.3,0.6-1.3,1.4v4.4h-2v-7.2h1.5L264.1,241.4z"/>
			<path fill="#FFFFFF" d="M272.5,245.5v2.1h-2v-2.1H272.5z"/>
			<path fill="#FFFFFF" d="M277.9,244.7l2.7-2.1c0.8-0.6,0.9-1.2,0.9-1.7c0-0.6-0.4-1.3-1.3-1.3c-1.2,0-1.6,1-1.6,1.4
				c0,0.1,0,0.3,0,0.4h-1.9c0-0.1,0-0.2,0-0.3c0-1.3,0.8-3.2,3.6-3.2h0.2c2.1,0,3.2,1.5,3.2,3c0,1.1-0.3,1.9-1.4,2.7
				c-0.7,0.6-1.6,1.2-2.1,1.7c-0.1,0.1-0.6,0.5-0.6,0.6h4.1v1.8h-7v-0.4C276.7,245.7,277.3,245.1,277.9,244.7z"/>
			<path fill="#FFFFFF" d="M288.7,247.7h-0.4c-1.9,0-3.3-1.5-3.3-3.4v-3.2c0-1.9,1.5-3.4,3.3-3.4h0.4c1.9,0,3.4,1.5,3.4,3.4v3.2
				C292,246.2,290.5,247.7,288.7,247.7z M288.5,239.4c-0.9,0-1.5,0.7-1.5,1.5v3.6c0,0.8,0.6,1.5,1.5,1.5s1.5-0.7,1.5-1.5v-3.6
				C290,240.1,289.3,239.4,288.5,239.4z"/>
			<path fill="#FFFFFF" d="M296.2,245.2l-0.8,0.8v1.6h-2v-10.1h2v6.3l2.5-3.3h2.3l-2.6,3.4l2.7,3.8h-2.4L296.2,245.2z"/>
			<path fill="#FFFFFF" d="M307.9,247.9c0,1.3-1.2,2.3-2.7,2.3h-3c-1.1,0-2-0.6-2-1.8c0-0.7,0.5-1.3,1.1-1.5
				c-0.4-0.3-0.7-0.7-0.7-1.2c0-0.7,0.5-1.2,1.2-1.5c-0.6-0.4-1-1-1-1.7c0-1.2,1-2.3,3.1-2.3h0.2c0.4,0,0.8,0.1,1.2,0.2
				c0.9-0.5,1-1.1,1.1-1.3h1.6c0,1-0.6,1.6-1.5,1.8l0,0c0.5,0.4,0.7,0.9,0.7,1.5c0,1.2-1.1,2.2-2.8,2.2h-1c-0.6,0-0.9,0.3-0.9,0.6
				c0,0.3,0.3,0.6,0.9,0.6h2.5C307.2,245.9,307.9,246.8,307.9,247.9z M306,248.2c0-0.4-0.3-0.7-0.8-0.7h-2.4c-0.4,0-0.8,0.3-0.8,0.7
				c0,0.4,0.3,0.7,0.8,0.7h2.4C305.6,248.9,306,248.6,306,248.2z M304,243.5c0.7,0,1.2-0.4,1.2-1s-0.6-1-1.2-1s-1.2,0.3-1.2,1
				S303.3,243.5,304,243.5z"/>
			<path fill="#FFFFFF" d="M230,262.5l-2.5-7.2h2.2l1.6,4.8h0.1l1.6-4.8h2l-2.5,7.2H230z"/>
			<path fill="#FFFFFF" d="M238.9,262.7h-0.2c-2,0-3.5-1.3-3.5-3.5v-0.4c0-2.2,1.5-3.5,3.5-3.5h0.2c1.7,0,3.3,1.1,3.3,3v1.1h-4.9
				v0.3c0,0.9,0.6,1.6,1.5,1.6c0.8,0,1.4-0.5,1.4-1.4h2C242.1,261.8,240.6,262.7,238.9,262.7z M237.5,252.4l1.2,1.2l1.2-1.2h1.5
				c-0.6,0.7-1.3,1.4-1.9,2H238l-1.9-2H237.5z M237.3,258.2h2.8c0-0.9-0.4-1.5-1.4-1.5C237.9,256.6,237.3,257.3,237.3,258.2z"/>
			<path fill="#FFFFFF" d="M246.2,260.2l-0.8,0.8v1.6h-2v-10.1h2v6.3l2.5-3.3h2.3l-2.6,3.4l2.7,3.8h-2.4L246.2,260.2z"/>
			<path fill="#FFFFFF" d="M254.9,259.7l2.7-2.1c0.8-0.6,0.9-1.2,0.9-1.7c0-0.6-0.4-1.3-1.3-1.3c-1.2,0-1.6,1-1.6,1.4
				c0,0.1,0,0.3,0,0.4h-1.9c0-0.1,0-0.2,0-0.3c0-1.3,0.8-3.2,3.6-3.2h0.2c2.1,0,3.2,1.5,3.2,3c0,1.1-0.3,1.9-1.4,2.7
				c-0.7,0.6-1.6,1.2-2.1,1.7c-0.1,0.1-0.6,0.5-0.6,0.6h4.1v1.8h-7v-0.4C253.7,260.7,254.3,260.1,254.9,259.7z"/>
			<path fill="#FFFFFF" d="M264.7,257.8v1.8h-3.5v-1.8H264.7z"/>
			<path fill="#FFFFFF" d="M272.4,259.9c0,1.8-1.4,2.8-3.6,2.8c-2.1,0-3.6-1-3.6-2.8c0-1.2,0.6-1.8,1.5-2.3v-0.1
				c-0.7-0.5-1.2-1-1.2-2.1c0-1.8,1.4-2.7,3.3-2.7c1.8,0,3.3,1,3.3,2.7c0,1.1-0.5,1.6-1.2,2.1v0.1
				C271.8,258.1,272.4,258.7,272.4,259.9z M268.8,261.1c0.8,0,1.5-0.5,1.5-1.3v-0.2c0-0.8-0.7-1.3-1.5-1.3s-1.5,0.5-1.5,1.3v0.2
				C267.3,260.7,268,261.1,268.8,261.1z M268.8,256.9c0.8,0,1.3-0.5,1.3-1.2v-0.2c0-0.7-0.5-1.2-1.3-1.2s-1.3,0.5-1.3,1.2v0.2
				C267.5,256.4,268,256.9,268.8,256.9z"/>
			<path fill="#FFFFFF" d="M276.5,252.4h2v10.1h-2V252.4z"/>
			<path fill="#FFFFFF" d="M283.6,262.7h-0.2c-2,0-3.5-1.3-3.5-3.5v-0.4c0-2.2,1.5-3.5,3.5-3.5h0.2c1.7,0,3.3,1.1,3.3,3v1.1h-4.9
				v0.3c0,0.9,0.6,1.6,1.5,1.6c0.8,0,1.4-0.5,1.4-1.4h2C286.8,261.8,285.2,262.7,283.6,262.7z M281.9,258.2h2.8
				c0-0.9-0.4-1.5-1.4-1.5C282.5,256.6,282,257.3,281.9,258.2z"/>
			<path fill="#FFFFFF" d="M290.4,262.7c-1.4,0-2.2-0.5-2.2-2v-3.9h-0.8v-1.4h0.9l0.7-2.3h1.3v2.3h1.7v1.4h-1.7v3.5
				c0,0.8,0.4,1,0.8,1c0.2,0,0.6-0.1,0.9-0.2v1.3C291.6,262.6,290.8,262.7,290.4,262.7z"/>
			<path fill="#FFFFFF" d="M187.2,270.2c1.5,0,2.8,1.2,2.8,3.6v0.2c0,2.5-1.3,3.7-3,3.7c-1,0-1.8-0.4-2.4-1.2
				c-0.2,0.4-0.5,0.7-0.7,1.1h-0.7v-10.1h2v3.8C185.5,270.7,186.2,270.2,187.2,270.2z M186.5,271.7c-0.8,0-1.3,0.6-1.3,1.7v1.2
				c0,1.1,0.6,1.7,1.3,1.7c0.8,0,1.3-0.6,1.3-1.7v-1.2C187.9,272.3,187.3,271.7,186.5,271.7z"/>
			<path fill="#FFFFFF" d="M194.6,277.7h-0.2c-2,0-3.5-1.3-3.5-3.5v-0.4c0-2.2,1.5-3.5,3.5-3.5h0.2c1.7,0,3.3,1.1,3.3,3v1.1h-4.9
				v0.3c0,0.9,0.6,1.6,1.5,1.6c0.8,0,1.4-0.5,1.4-1.4h2C197.8,276.8,196.2,277.7,194.6,277.7z M192.9,273.2h2.8
				c0-0.9-0.4-1.5-1.4-1.5C193.5,271.6,193,272.3,192.9,273.2z"/>
			<path fill="#FFFFFF" d="M198.6,276.8l3.1-5.1h-2.9v-1.4h5.6v0.7l-3.1,5.1h3.2v1.4h-5.9V276.8z"/>
			<path fill="#FFFFFF" d="M211.5,276.3c0.8,0,1.4-0.5,1.4-1.6h1.9c0,2.1-1.5,3-3.1,3h-0.2c-2.1,0-3.4-1.3-3.4-3.5v-0.4
				c0-2.2,1.4-3.5,3.4-3.5h0.2c1.6,0,3.1,1.1,3.1,3h-2c0-0.9-0.4-1.6-1.3-1.6s-1.4,0.8-1.4,1.8v1.2
				C210.1,275.5,210.6,276.3,211.5,276.3z"/>
			<path fill="#FFFFFF" d="M218.1,271.1c0.4-0.5,1.1-0.8,2-0.8c1.4,0,2.5,0.7,2.5,2.3v5h-2V273c0-0.7-0.5-1.3-1.1-1.3
				c-0.7,0-1.3,0.6-1.3,1.4v4.4h-2v-10.1h2V271.1z"/>
			<path fill="#FFFFFF" d="M228.2,272.8c0-0.5-0.2-1.1-1-1.1c-0.7,0-1,0.6-1,1.3v4.4h-2v-7.2h1.5l0.3,1.1c0.1-0.2,0.7-1.2,2-1.2
				c1.3,0,2,0.9,2,2.2c0,0.2-0.1,0.7-0.1,0.7h-1.7V272.8z"/>
			<path fill="#FFFFFF" d="M234.1,277.7h-0.2c-2,0-3.5-1.3-3.5-3.5v-0.4c0-2.2,1.5-3.5,3.5-3.5h0.2c2,0,3.5,1.3,3.5,3.5v0.4
				C237.6,276.4,236.1,277.7,234.1,277.7z M234,271.6c-0.9,0-1.5,0.6-1.5,1.8v1.1c0,1.2,0.7,1.8,1.5,1.8c0.9,0,1.5-0.6,1.5-1.8v-1.1
				C235.5,272.2,234.9,271.6,234,271.6z"/>
			<path fill="#FFFFFF" d="M240.6,271.4c0.4-0.6,1.2-1.2,2.3-1.2c1.4,0,2.5,0.7,2.5,2.3v5h-2V273c0-0.7-0.5-1.3-1.1-1.3
				c-0.7,0-1.3,0.6-1.3,1.4v4.4h-2v-7.2h1.5L240.6,271.4z"/>
			<path fill="#FFFFFF" d="M249,267.4v1.6h-2.1v-1.6H249z M246.9,270.4h2v7.2h-2V270.4z"/>
			<path fill="#FFFFFF" d="M253.6,276.3c0.8,0,1.4-0.5,1.4-1.6h1.9c0,2.1-1.5,3-3.1,3h-0.2c-2.1,0-3.4-1.3-3.4-3.5v-0.4
				c0-2.2,1.4-3.5,3.4-3.5h0.2c1.6,0,3.1,1.1,3.1,3h-2c0-0.9-0.4-1.6-1.3-1.6s-1.4,0.8-1.4,1.8v1.2
				C252.3,275.5,252.8,276.3,253.6,276.3z"/>
			<path fill="#FFFFFF" d="M261,275.2l-0.8,0.8v1.6h-2v-10.1h2v6.3l2.5-3.3h2.3l-2.6,3.4l2.7,3.8h-2.4L261,275.2z"/>
			<path fill="#FFFFFF" d="M266.7,280.1c-0.5,0-0.9-0.1-1.2-0.2v-1.4c0.2,0.1,0.6,0.2,0.9,0.2c0.6,0,1-0.4,1.3-1.3l-2.7-7h2.2
				l1.6,4.5h0.1l1.5-4.5h2l-2.5,6.8C269.2,278.8,268.2,280.1,266.7,280.1z M269.3,267.4h1.8l0,0l-1.7,2H268L269.3,267.4z"/>
			<path fill="#FFFFFF" d="M276,276.3c0.8,0,1.4-0.5,1.4-1.6h1.9c0,2.1-1.5,3-3.1,3H276c-2.1,0-3.4-1.3-3.4-3.5v-0.4
				c0-2.2,1.4-3.5,3.4-3.5h0.2c1.6,0,3.1,1.1,3.1,3h-2c0-0.9-0.4-1.6-1.3-1.6s-1.4,0.8-1.4,1.8v1.2
				C274.7,275.5,275.2,276.3,276,276.3z"/>
			<path fill="#FFFFFF" d="M282.6,271.1c0.4-0.5,1.1-0.8,2-0.8c1.4,0,2.5,0.7,2.5,2.3v5h-2V273c0-0.7-0.5-1.3-1.1-1.3
				c-0.7,0-1.3,0.6-1.3,1.4v4.4h-2v-10.1h2V271.1z"/>
			<path fill="#FFFFFF" d="M294.6,276.3c0.8,0,1.4-0.5,1.4-1.6h1.9c0,2.1-1.5,3-3.1,3h-0.2c-2.1,0-3.4-1.3-3.4-3.5v-0.4
				c0-2.2,1.4-3.5,3.4-3.5h0.2c1.6,0,3.1,1.1,3.1,3h-2c0-0.9-0.4-1.6-1.3-1.6s-1.4,0.8-1.4,1.8v1.2
				C293.2,275.5,293.7,276.3,294.6,276.3z"/>
			<path fill="#FFFFFF" d="M301.2,271.1c0.4-0.5,1.1-0.8,2-0.8c1.4,0,2.5,0.7,2.5,2.3v5h-2V273c0-0.7-0.5-1.3-1.1-1.3
				c-0.7,0-1.3,0.6-1.3,1.4v4.4h-2v-10.1h2V271.1z"/>
			<path fill="#FFFFFF" d="M310.6,277.7h-0.2c-2,0-3.5-1.3-3.5-3.5v-0.4c0-2.2,1.5-3.5,3.5-3.5h0.2c2,0,3.5,1.3,3.5,3.5v0.4
				C314.1,276.4,312.6,277.7,310.6,277.7z M310.5,271.6c-0.9,0-1.5,0.6-1.5,1.8v1.1c0,1.2,0.7,1.8,1.5,1.8c0.9,0,1.5-0.6,1.5-1.8
				v-1.1C312.1,272.2,311.4,271.6,310.5,271.6z"/>
			<path fill="#FFFFFF" d="M319.4,272.8c0-0.5-0.2-1.1-1-1.1c-0.7,0-1,0.6-1,1.3v4.4h-2v-7.2h1.5l0.3,1.1c0.1-0.2,0.7-1.2,2-1.2
				c1.3,0,2,0.9,2,2.2c0,0.2-0.1,0.7-0.1,0.7h-1.7V272.8z"/>
			<path fill="#FFFFFF" d="M325.3,277.7h-0.2c-2,0-3.5-1.3-3.5-3.5v-0.4c0-2.2,1.5-3.5,3.5-3.5h0.2c2,0,3.5,1.3,3.5,3.5v0.4
				C328.8,276.4,327.3,277.7,325.3,277.7z M325.2,271.6c-0.9,0-1.5,0.6-1.5,1.8v1.1c0,1.2,0.7,1.8,1.5,1.8c0.9,0,1.5-0.6,1.5-1.8
				v-1.1C326.8,272.2,326.1,271.6,325.2,271.6z"/>
			<path fill="#FFFFFF" d="M334.1,270.2c1.5,0,2.8,1.2,2.8,3.6v0.2c0,2.5-1.3,3.7-3,3.7c-1,0-1.8-0.4-2.4-1.2
				c-0.2,0.4-0.5,0.7-0.7,1.1h-0.7v-10.1h2v3.8C332.5,270.7,333.2,270.2,334.1,270.2z M333.5,271.7c-0.8,0-1.3,0.6-1.3,1.7v1.2
				c0,1.1,0.6,1.7,1.3,1.7c0.8,0,1.3-0.6,1.3-1.7v-1.2C334.8,272.3,334.2,271.7,333.5,271.7z"/>
			<path fill="#FFFFFF" d="M213.1,292.5l-2.5-7.2h2.2l1.6,4.8h0.1l1.6-4.8h2l-2.5,7.2H213.1z"/>
			<path fill="#FFFFFF" d="M226.1,291.6c-0.4,0.6-1.1,1-2,1c-1.6,0-3-1.2-3-3.7v-0.2c0-2.4,1.2-3.6,2.8-3.6c1,0,1.7,0.5,2,1v-3.8h2
				v10.1h-1.6L226.1,291.6z M224.6,291.3c0.8,0,1.3-0.6,1.3-1.7v-1.2c0-1.1-0.6-1.7-1.3-1.7c-0.8,0-1.3,0.6-1.3,1.7v1.2
				C223.2,290.7,223.8,291.3,224.6,291.3z"/>
			<path fill="#FFFFFF" d="M232.9,292.7h-0.2c-2,0-3.5-1.3-3.5-3.5v-0.4c0-2.2,1.5-3.5,3.5-3.5h0.2c2,0,3.5,1.3,3.5,3.5v0.4
				C236.4,291.4,234.9,292.7,232.9,292.7z M232.8,286.6c-0.9,0-1.5,0.6-1.5,1.8v1.1c0,1.2,0.7,1.8,1.5,1.8c0.9,0,1.5-0.6,1.5-1.8
				v-1.1C234.4,287.2,233.7,286.6,232.8,286.6z"/>
			<path fill="#FFFFFF" d="M241.7,285.2c1.5,0,2.8,1.2,2.8,3.6v0.2c0,2.5-1.3,3.7-3,3.7c-1,0-1.8-0.4-2.4-1.2
				c-0.2,0.4-0.5,0.7-0.7,1.1h-0.7v-10.1h2v3.8C240.1,285.7,240.7,285.2,241.7,285.2z M241.1,286.7c-0.8,0-1.3,0.6-1.3,1.7v1.2
				c0,1.1,0.6,1.7,1.3,1.7c0.8,0,1.3-0.6,1.3-1.7v-1.2C242.4,287.3,241.8,286.7,241.1,286.7z"/>
			<path fill="#FFFFFF" d="M249.7,287.8c0-0.5-0.2-1.1-1-1.1c-0.7,0-1,0.6-1,1.3v4.4h-2v-7.2h1.5l0.3,1.1c0.1-0.2,0.7-1.2,2-1.2
				c1.3,0,2,0.9,2,2.2c0,0.2-0.1,0.7-0.1,0.7h-1.7V287.8z"/>
			<path fill="#FFFFFF" d="M255.7,292.7h-0.2c-2,0-3.5-1.3-3.5-3.5v-0.4c0-2.2,1.5-3.5,3.5-3.5h0.2c1.7,0,3.3,1.1,3.3,3v1.1h-4.9
				v0.3c0,0.9,0.6,1.6,1.5,1.6c0.8,0,1.4-0.5,1.4-1.4h2C259,291.8,257.4,292.7,255.7,292.7z M254.1,288.2h2.8c0-0.9-0.4-1.5-1.4-1.5
				C254.7,286.6,254.1,287.3,254.1,288.2z M256.1,282.4h1.8l0,0l-1.7,2h-1.4L256.1,282.4z"/>
			<path fill="#FFFFFF" d="M265.9,290.2l-0.8,0.8v1.6h-2v-10.1h2v6.3l2.5-3.3h2.3l-2.6,3.4l2.7,3.8h-2.4L265.9,290.2z"/>
			<path fill="#FFFFFF" d="M274,292.7h-0.2c-2,0-3.5-1.3-3.5-3.5v-0.4c0-2.2,1.5-3.5,3.5-3.5h0.2c2,0,3.5,1.3,3.5,3.5v0.4
				C277.5,291.4,276,292.7,274,292.7z M273.9,286.6c-0.9,0-1.5,0.6-1.5,1.8v1.1c0,1.2,0.7,1.8,1.5,1.8c0.9,0,1.5-0.6,1.5-1.8v-1.1
				C275.5,287.2,274.8,286.6,273.9,286.6z"/>
			<path fill="#FFFFFF" d="M280.5,286.4c0.4-0.6,1.2-1.2,2.3-1.2c1.4,0,2.5,0.7,2.5,2.3v5h-2V288c0-0.7-0.5-1.3-1.1-1.3
				c-0.7,0-1.3,0.6-1.3,1.4v4.4h-2v-7.2h1.5L280.5,286.4z"/>
			<path fill="#FFFFFF" d="M291.5,291.6c-0.4,0.6-1.1,1-2,1c-1.6,0-3-1.2-3-3.7v-0.2c0-2.4,1.2-3.6,2.8-3.6c1,0,1.7,0.5,2,1v-3.8h2
				v10.1h-1.6L291.5,291.6z M290,291.3c0.8,0,1.3-0.6,1.3-1.7v-1.2c0-1.1-0.6-1.7-1.3-1.7c-0.8,0-1.3,0.6-1.3,1.7v1.2
				C288.6,290.7,289.2,291.3,290,291.3z"/>
			<path fill="#FFFFFF" d="M297,282.4v1.6h-2.1v-1.6H297z M294.9,285.4h2v7.2h-2V285.4z"/>
			<path fill="#FFFFFF" d="M301.6,291.3c0.8,0,1.4-0.5,1.4-1.6h1.9c0,2.1-1.5,3-3.1,3h-0.2c-2.1,0-3.4-1.3-3.4-3.5v-0.4
				c0-2.2,1.4-3.5,3.4-3.5h0.2c1.6,0,3.1,1.1,3.1,3h-2c0-0.9-0.4-1.6-1.3-1.6s-1.4,0.8-1.4,1.8v1.2
				C300.3,290.5,300.8,291.3,301.6,291.3z"/>
			<path fill="#FFFFFF" d="M308.2,282.4v1.6h-2.1v-1.6H308.2z M306.2,285.4h2v7.2h-2V285.4z"/>
		</g>
		<g>
			<circle fill="#FFED00" stroke="#FFED00" stroke-width="5" stroke-miterlimit="10" cx="108.5" cy="287.1" r="37.3"/>
			<g>
				<path fill="#27316A" d="M122.2,264.3c-3.2,3-7.5,5-12.2,5.4v34.9c4.7,0.4,8.9,2.3,12.2,5.4c5.1-6.4,7.8-14.5,7.8-22.8
					C130,278.7,127.2,270.7,122.2,264.3z"/>
				<path fill="#27316A" d="M94.8,310c3.2-3.1,7.5-5,12.2-5.4v-34.9c-4.7-0.4-9-2.3-12.2-5.4c-5,6.4-7.7,14.5-7.7,22.9
					C87.1,295.5,89.8,303.5,94.8,310z"/>
				<path fill="#27316A" d="M108.5,307.5c-8,0-14.8,5.6-16.5,13.1c5,2.5,10.6,3.8,16.5,3.8s11.5-1.4,16.5-3.8
					C123.3,313.1,116.5,307.5,108.5,307.5z"/>
				<path fill="#27316A" d="M92.8,312.2c-5.6-7-8.7-15.9-8.7-25.1c0-9.2,3.1-18.1,8.7-25.1c-1.6-2-2.8-4.4-3.5-6.9
					c-10.9,6.5-18.1,18.4-18.1,32c0,13.6,7.3,25.5,18.1,32C90,316.6,91.2,314.2,92.8,312.2z"/>
				<path fill="#27316A" d="M127.7,255.1c-0.7,2.6-1.9,4.9-3.5,6.9c5.7,7,8.8,15.8,8.8,25.1c0,9.2-3.1,18.1-8.8,25.1
					c1.6,2,2.8,4.4,3.5,6.9c10.9-6.5,18.1-18.4,18.1-32C145.8,273.5,138.6,261.6,127.7,255.1z"/>
				<path fill="#27316A" d="M108.5,249.8c-5.9,0-11.5,1.4-16.5,3.8c1.7,7.5,8.5,13.1,16.5,13.1s14.8-5.6,16.5-13.1
					C120,251.2,114.4,249.8,108.5,249.8z"/>
			</g>
		</g>
		<polyline fill="none" stroke="#CC003D" stroke-width="3" stroke-miterlimit="10" points="206.6,123.4 259.8,123.4 259.8,230.3 		
			"/>
		<polyline fill="none" stroke="#CC003D" stroke-width="3" stroke-miterlimit="10" points="199.8,400 199.8,339.1 259.8,339.1 
			259.8,322.6 259.8,299.8 		"/>
	</g>
	<g>
		<circle fill="#27316A" cx="200" cy="622.8" r="200"/>
		<g>
			<g>
				<path fill="#9D9D9C" d="M228.6,675.9c2.7-0.3,4.8-2.5,5.1-5.1c0.2-1.9-0.5-3.7-1.9-4.9c-0.1-0.1-0.1-0.1-0.2-0.2l-9.5-10v14.5
					C222.1,673.6,225.1,676.3,228.6,675.9z"/>
				<path fill="#9D9D9C" d="M304.4,641.2h-9h-60c-6.3,0-11.7,4.2-13.4,9.9l11.9,12.6c0,0,0,0,0,0c2,1.9,3,4.6,2.7,7.4
					c-0.4,4.1-3.7,7.3-7.7,7.8c-0.3,0-0.7,0.1-1,0.1c-3.9,0-7.3-2.6-8.4-6.2c-1.5-0.5-3.1-0.7-4.7-0.7h-85.2c-2.2,0-4.3,0.4-6.2,1.2
					c-4.3-3-7.7-7.1-9.8-12.1c-4.9-12-0.7-25.6,9.4-34c-3.3,0.3-6.6,1.1-9.8,2.4c-16.2,6.7-24.3,24.2-18.1,39.2
					c3.4,8.2,10.3,13.9,18.5,16.3c-0.2,1.1-0.3,2.2-0.3,3.3v26.3c0,7.8,5.5,14.4,12.9,15.9v47.5h5.3v-47.1h6.4v47.1h5.3v-47.1h56.6
					v47.1h5.3v-47.1h6.4v47.1h5.3v-47.3c8-1,14.2-7.8,14.2-16.1v-21.9c0.7-1.9,1-4.1,1.9-6c0.1-0.2,0.2-0.3,0.3-0.5h51.1
					c12.4,0,22.5-10.1,22.5-22.5v-11v-9C306.9,642.4,305.8,641.2,304.4,641.2z M247.5,654.5c-1.7,0-3.1-1.4-3.1-3.1s1.4-3.1,3.1-3.1
					s3.1,1.4,3.1,3.1S249.2,654.5,247.5,654.5z"/>
			</g>
			<path fill="#FFED00" stroke="#FFED00" stroke-width="2" stroke-miterlimit="10" d="M200,697.1c0-3.2-2.6-5.8-5.8-5.8
				c-3.2,0-5.8,2.6-5.8,5.8c0,1.7,0.7,3.2,1.9,4.3h0l9.7,10.2l9.7-10.2h0c1.2-1.1,1.9-2.6,1.9-4.3c0-3.2-2.6-5.8-5.8-5.8
				S200,693.9,200,697.1"/>
		</g>
		<g>
			
				<path fill="#CC003D" stroke="#CC003D" stroke-width="2" stroke-linecap="round" stroke-linejoin="round" stroke-miterlimit="10" d="
				M307.1,747.6L307.1,747.6c-0.4-4.9-2-9.3-4.5-12.4h0l-22.5-33.7l-22.5,33.7h0c-2.4,3.1-4.1,7.5-4.4,12.4h-0.1c0,0.3,0,0.5,0,0.8
				c0,0.3,0,0.7,0,1c0,3,0.8,5.7,1.9,8.2c4,9.9,13.6,16.9,24.9,16.9c7.6,0,14.4-3.2,19.3-8.2c4.1-3.3,7.6-8.8,7.6-16.8
				c0-0.4,0-0.7,0-1C307.1,748.1,307.1,747.9,307.1,747.6z"/>
			<g>
				<path fill="#FFFFFF" d="M288.7,740.9c0,2.6-1.4,4.1-2.8,5.1l-1.3,1c-0.8,0.6-1.4,1.1-1.4,1.7v0.7h-5.6v-1.9c0-2.6,4.2-4,4.2-6.9
					c0-1.2-0.9-2.3-2.2-2.3c-1.8,0-2.1,1.3-2.1,2.7v0.5c0,0.1,0,0.3,0,0.4h-6c0-0.4-0.1-0.8-0.1-1.2c0-4.3,4.3-6.9,8.2-6.9h1.2
					C285,733.8,288.7,736.6,288.7,740.9z M283.7,756.5h-6.2v-6h6.2V756.5z"/>
			</g>
		</g>
		<g>
			
				<rect x="156" y="488" fill="#9D9D9C" stroke="#9D9D9C" stroke-width="3" stroke-linecap="round" stroke-linejoin="round" stroke-miterlimit="10" width="92.3" height="75.5"/>
			
				<polygon fill="#9D9D9C" stroke="#9D9D9C" stroke-width="3" stroke-linecap="round" stroke-linejoin="round" stroke-miterlimit="10" points="
				156,563.4 124.4,589.9 275.6,589.9 248.3,563.4 			"/>
			
				<polygon fill="#9D9D9C" stroke="#FFFFFF" stroke-width="3" stroke-linecap="round" stroke-linejoin="round" stroke-miterlimit="10" points="
				162,563.4 137.9,584.4 263.8,584.4 240.6,563.4 			"/>
			
				<line fill="none" stroke="#FFFFFF" stroke-width="2" stroke-linecap="round" stroke-linejoin="round" stroke-miterlimit="10" x1="157.6" y1="566.9" x2="244.3" y2="566.9"/>
			
				<line fill="none" stroke="#FFFFFF" stroke-width="2" stroke-linecap="round" stroke-linejoin="round" stroke-miterlimit="10" x1="153.7" y1="569.9" x2="247.8" y2="569.9"/>
			
				<line fill="none" stroke="#FFFFFF" stroke-width="2" stroke-linecap="round" stroke-linejoin="round" stroke-miterlimit="10" x1="151.1" y1="572.9" x2="250.3" y2="572.9"/>
			
				<line fill="none" stroke="#FFFFFF" stroke-width="2" stroke-linecap="round" stroke-linejoin="round" stroke-miterlimit="10" x1="146.7" y1="576.1" x2="253.3" y2="576.1"/>
			
				<line fill="none" stroke="#FFFFFF" stroke-width="2" stroke-linecap="round" stroke-linejoin="round" stroke-miterlimit="10" x1="143.6" y1="579.4" x2="258.3" y2="579.4"/>
			<line fill="none" stroke="#FFFFFF" stroke-width="3" stroke-miterlimit="10" x1="201" y1="563.4" x2="201" y2="584.4"/>
			<line fill="none" stroke="#FFFFFF" stroke-width="3" stroke-miterlimit="10" x1="179.6" y1="563.4" x2="166.6" y2="584.4"/>
			<line fill="none" stroke="#FFFFFF" stroke-width="3" stroke-miterlimit="10" x1="221.6" y1="563.4" x2="232.8" y2="584.4"/>
			<line fill="none" stroke="#FFFFFF" stroke-width="3" stroke-miterlimit="10" x1="149.8" y1="584.4" x2="170.8" y2="563.4"/>
			<line fill="none" stroke="#FFFFFF" stroke-width="3" stroke-miterlimit="10" x1="182.8" y1="584.4" x2="189.8" y2="563.4"/>
			<line fill="none" stroke="#FFFFFF" stroke-width="3" stroke-miterlimit="10" x1="217.6" y1="584.4" x2="211.8" y2="563.4"/>
			<line fill="none" stroke="#FFFFFF" stroke-width="3" stroke-miterlimit="10" x1="232.8" y1="563.4" x2="249.1" y2="584.4"/>
			
				<rect x="162" y="494.6" fill="#27316A" stroke="#FFFFFF" stroke-width="3" stroke-linecap="round" stroke-linejoin="round" stroke-miterlimit="10" width="78.9" height="68.8"/>
			<g>
				<path fill="#FFFFFF" d="M186.6,511c-0.4,0.5-0.9,0.9-1.7,0.9c-1.4,0-2.5-1-2.5-3.2v-0.1c0-2.1,1.1-3.1,2.4-3.1
					c0.8,0,1.4,0.4,1.7,0.8v-3.2h1.8v8.6h-1.4L186.6,511z M185.2,510.7c0.6,0,1.2-0.5,1.2-1.5v-1c0-1-0.5-1.5-1.2-1.5
					s-1.2,0.5-1.2,1.5v1C184.1,510.2,184.6,510.7,185.2,510.7z"/>
				<path fill="#FFFFFF" d="M192.1,506.7c-0.7,0-1.1,0.4-1.1,0.7v0.1h-1.7c0-0.1,0-0.1,0-0.2c0-1,1.1-1.8,2.7-1.8h0.3
					c1.8,0,2.6,0.8,2.6,1.9v2.8c0,0.3,0.2,0.4,0.3,0.4c0.2,0,0.4-0.1,0.5-0.1v1.1c-0.1,0-0.5,0.3-1.1,0.3c-0.9,0-1.3-0.4-1.4-1
					c-0.4,0.5-1.1,1-2.1,1s-2.1-0.3-2.1-1.8c0-1.8,1.6-2.1,4.1-2.1v-0.4C193.2,507.1,192.9,506.7,192.1,506.7z M191,509.9
					c0,0.5,0.3,0.7,0.9,0.7c0.6,0,1.4-0.5,1.4-1.3V509C191.7,509,191,509.3,191,509.9z M192.7,503.1h1.5l0,0l-1.5,1.7h-1.2
					L192.7,503.1z"/>
				<path fill="#FFFFFF" d="M199.8,507.7c0-0.4-0.2-0.9-0.9-0.9c-0.6,0-0.9,0.5-0.9,1.2v3.8h-1.7v-6.1h1.3l0.2,0.9
					c0-0.1,0.6-1,1.7-1c1.1,0,1.7,0.8,1.7,1.9c0,0.2,0,0.6,0,0.6h-1.5V507.7z"/>
				<path fill="#FFFFFF" d="M204.7,510.7c0.7,0,1.2-0.4,1.2-1.4h1.7c0,1.8-1.3,2.6-2.7,2.6h-0.2c-1.8,0-2.9-1.1-2.9-3v-0.3
					c0-1.9,1.2-3,2.9-3h0.2c1.4,0,2.7,0.9,2.7,2.6h-1.7c0-0.8-0.3-1.4-1.1-1.4s-1.2,0.7-1.2,1.5v1.1
					C203.5,510,203.9,510.7,204.7,510.7z"/>
				<path fill="#FFFFFF" d="M211.5,511.9h-0.2c-1.7,0-3-1.1-3-3v-0.3c0-1.9,1.3-3,3-3h0.2c1.5,0,2.8,0.9,2.8,2.6v0.9h-4.2v0.3
					c0,0.8,0.5,1.4,1.3,1.4c0.7,0,1.2-0.4,1.2-1.2h1.7C214.3,511.1,212.9,511.9,211.5,511.9z M210.1,508h2.4c0-0.8-0.3-1.3-1.2-1.3
					C210.6,506.7,210.1,507.3,210.1,508z"/>
				<path fill="#FFFFFF" d="M217.1,505.6v1.8h-1.8v-1.8H217.1z M217.1,510v1.8h-1.8V510H217.1z"/>
				<path fill="#FFFFFF" d="M190.2,526.1l-0.6,1.6h-1.8l3-8.2h2.2l3,8.2h-1.9l-0.6-1.6H190.2z M190.7,524.7h2.3
					c-0.4-1.1-0.7-2.2-1.1-3.2h-0.1L190.7,524.7z"/>
				<path fill="#FFFFFF" d="M196.6,519.1h1.8v8.6h-1.8V519.1z"/>
				<path fill="#FFFFFF" d="M199.7,521.6h1.8v6.1h-1.8V521.6z M200.9,519.1h1.5l0,0l-1.5,1.7h-1.2L200.9,519.1z"/>
				<path fill="#FFFFFF" d="M205.2,525.7l-0.7,0.7v1.3h-1.8v-8.6h1.8v5.4l2.1-2.9h2l-2.3,2.9l2.4,3.3h-2.1L205.2,525.7z"/>
				<path fill="#FFFFFF" d="M210,527.7h-0.8V526h1.8v1.5l-0.5,2h-0.9C209.8,528.9,209.9,528.3,210,527.7z"/>
				<path fill="#FFFFFF" d="M179.4,538.1c0,1.6-1.2,2.8-3,2.8h-0.2c-1.8,0-3-1.2-3-2.7h1.6c0,0.8,0.7,1.3,1.4,1.3
					c0.8,0,1.4-0.6,1.4-1.4c0-0.7-0.4-1.3-1.3-1.3c-0.7,0-1.1,0.3-1.3,0.6l-1.5-0.2l0.3-4.6h5v1.6h-3.6l-0.1,1.8
					c0.2-0.2,0.8-0.6,1.6-0.6C178.5,535.3,179.4,536.5,179.4,538.1z"/>
				<path fill="#FFFFFF" d="M180.6,532.1h1.8v8.6h-1.8V532.1z"/>
				<path fill="#FFFFFF" d="M186.6,540.9h-0.2c-1.7,0-3-1.1-3-3v-0.3c0-1.9,1.3-3,3-3h0.2c1.5,0,2.8,0.9,2.8,2.6v0.9h-4.2v0.3
					c0,0.8,0.5,1.4,1.3,1.4c0.7,0,1.2-0.4,1.2-1.2h1.7C189.4,540.1,188,540.9,186.6,540.9z M185.2,537h2.4c0-0.8-0.3-1.3-1.2-1.3
					C185.7,535.7,185.3,536.3,185.2,537z"/>
				<path fill="#FFFFFF" d="M192.5,540.9c-1.2,0-1.9-0.4-1.9-1.7v-3.3h-0.7v-1.2h0.7l0.6-2h1.1v2h1.4v1.2h-1.4v3
					c0,0.7,0.3,0.8,0.7,0.8c0.2,0,0.6-0.1,0.7-0.2v1.1C193.5,540.8,192.9,540.9,192.5,540.9z"/>
				<path fill="#FFFFFF" d="M195.4,540.7h-0.8V539h1.8v1.5l-0.5,2H195C195.2,541.9,195.3,541.3,195.4,540.7z"/>
				<path fill="#FFFFFF" d="M201.1,538.3l2.3-1.8c0.6-0.5,0.8-1,0.8-1.5c0-0.5-0.3-1.1-1.2-1.1c-1,0-1.4,0.9-1.4,1.2
					c0,0.1,0,0.2,0,0.3h-1.6c0-0.1,0-0.2,0-0.2c0-1.1,0.7-2.8,3.1-2.8h0.2c1.8,0,2.7,1.3,2.7,2.5c0,0.9-0.3,1.6-1.2,2.4
					c-0.6,0.5-1.3,1.1-1.8,1.4c-0.1,0.1-0.5,0.4-0.5,0.5h3.5v1.5h-6v-0.4C200.1,539.2,200.6,538.7,201.1,538.3z"/>
				<path fill="#FFFFFF" d="M213.2,538.1c0,1.6-1.2,2.8-3,2.8H210c-1.8,0-3-1.2-3-2.7h1.6c0,0.8,0.7,1.3,1.4,1.3
					c0.8,0,1.4-0.6,1.4-1.4c0-0.7-0.4-1.3-1.3-1.3c-0.7,0-1.1,0.3-1.3,0.6l-1.5-0.2l0.3-4.6h5v1.6h-3.6l-0.1,1.8
					c0.2-0.2,0.8-0.6,1.6-0.6C212.3,535.3,213.2,536.5,213.2,538.1z"/>
				<path fill="#FFFFFF" d="M216.8,538.7l-0.7,0.7v1.3h-1.8v-8.6h1.8v5.4l2.1-2.9h2l-2.3,2.9l2.4,3.3h-2.1L216.8,538.7z"/>
				<path fill="#FFFFFF" d="M226.8,541.1c0,1.1-1,1.9-2.3,1.9H222c-0.9,0-1.7-0.5-1.7-1.5c0-0.6,0.4-1.1,0.9-1.3
					c-0.4-0.2-0.6-0.6-0.6-1c0-0.6,0.4-1.1,1-1.2c-0.5-0.3-0.9-0.9-0.9-1.5c0-1.1,0.8-1.9,2.6-1.9h0.2c0.4,0,0.7,0,1,0.1
					c0.7-0.4,0.9-0.9,0.9-1.1h1.4c0,0.9-0.5,1.4-1.3,1.6l0,0c0.4,0.3,0.6,0.8,0.6,1.3c0,1.1-0.9,1.9-2.4,1.9H223
					c-0.5,0-0.8,0.3-0.8,0.5c0,0.3,0.2,0.5,0.8,0.5h2.1C226.2,539.4,226.8,540.1,226.8,541.1z M225.2,541.3c0-0.3-0.3-0.6-0.7-0.6
					h-2.1c-0.4,0-0.6,0.3-0.6,0.6c0,0.3,0.3,0.6,0.6,0.6h2C224.9,541.9,225.2,541.6,225.2,541.3z M223.5,537.3
					c0.6,0,1.1-0.3,1.1-0.9s-0.5-0.9-1.1-0.9c-0.6,0-1.1,0.3-1.1,0.9S222.9,537.3,223.5,537.3z"/>
				<path fill="#FFFFFF" d="M170.5,548.7c-0.7,0-1.1,0.4-1.1,0.7v0.1h-1.7c0-0.1,0-0.1,0-0.2c0-1,1.1-1.8,2.7-1.8h0.3
					c1.8,0,2.6,0.8,2.6,1.9v2.8c0,0.3,0.2,0.4,0.3,0.4c0.2,0,0.4-0.1,0.5-0.1v1.1c-0.1,0-0.5,0.3-1.1,0.3c-0.9,0-1.3-0.4-1.4-1
					c-0.4,0.5-1.1,1-2.1,1s-2.1-0.3-2.1-1.8c0-1.8,1.6-2.1,4.1-2.1v-0.4C171.5,549.1,171.3,548.7,170.5,548.7z M169.3,551.9
					c0,0.5,0.3,0.7,0.9,0.7c0.6,0,1.4-0.5,1.4-1.3V551C170.1,551,169.3,551.3,169.3,551.9z"/>
				<path fill="#FFFFFF" d="M174.7,545.1h1.8v8.6h-1.8V545.1z"/>
				<path fill="#FFFFFF" d="M177.8,547.6h1.8v6.1h-1.8V547.6z M179,545.1h1.5l0,0l-1.5,1.7h-1.2L179,545.1z"/>
				<path fill="#FFFFFF" d="M183.4,551.7l-0.7,0.7v1.3h-1.8v-8.6h1.8v5.4l2.1-2.9h2l-2.3,2.9l2.4,3.3h-2.1L183.4,551.7z"/>
				<path fill="#FFFFFF" d="M195.3,552.4c0.4,0,1.1-0.4,1.1-2.5c0-2.7-1.7-3.8-4.1-3.8c-2.7,0-4.3,1.5-4.3,4.5
					c0,2.8,1.2,4.3,3.9,4.3c0.6,0,1.5-0.2,2-0.4v0.8c-0.5,0.2-1.5,0.3-2,0.3c-2.9,0-4.7-1.5-4.7-5c0-3.8,2.4-5.2,5.1-5.2
					s4.8,1.3,4.8,4.5c0,2.7-1.4,3.6-2.4,3.6c-0.9,0-1.2-0.4-1.4-1h0c-0.5,0.6-1,1-1.9,1c-0.9,0-2-0.2-2-1.7c0-1.7,1.5-1.9,3.8-1.9
					v-0.4c0-0.4-0.2-0.9-1-0.9c-0.8,0-1,0.5-1,0.7v0.1h-1.6c0-0.1,0-0.1,0-0.2c0-1,1-1.7,2.5-1.7h0.2c1.7,0,2.5,0.7,2.5,1.8v2.7
					C194.9,552.3,195.1,552.4,195.3,552.4z M191.2,551.7c0,0.5,0.3,0.7,0.8,0.7c0.7,0,1.3-0.5,1.3-1.3v-0.3
					C191.9,550.8,191.2,551,191.2,551.7z"/>
				<path fill="#FFFFFF" d="M201,548.7c-0.7,0-1.1,0.4-1.1,0.7v0.1h-1.7c0-0.1,0-0.1,0-0.2c0-1,1.1-1.8,2.7-1.8h0.3
					c1.8,0,2.6,0.8,2.6,1.9v2.8c0,0.3,0.2,0.4,0.3,0.4c0.2,0,0.4-0.1,0.5-0.1v1.1c-0.1,0-0.5,0.3-1.1,0.3c-0.9,0-1.3-0.4-1.4-1
					c-0.4,0.5-1.1,1-2.1,1s-2.1-0.3-2.1-1.8c0-1.8,1.6-2.1,4.1-2.1v-0.4C202.1,549.1,201.8,548.7,201,548.7z M199.8,551.9
					c0,0.5,0.3,0.7,0.9,0.7c0.6,0,1.4-0.5,1.4-1.3V551C200.6,551,199.8,551.3,199.8,551.9z"/>
				<path fill="#FFFFFF" d="M205.3,545.1h1.8v8.6h-1.8V545.1z"/>
				<path fill="#FFFFFF" d="M208.4,547.6h1.8v6.1h-1.8V547.6z M209.5,545.1h1.5l0,0l-1.5,1.7h-1.2L209.5,545.1z"/>
				<path fill="#FFFFFF" d="M213.9,551.7l-0.7,0.7v1.3h-1.8v-8.6h1.8v5.4l2.1-2.9h2l-2.3,2.9l2.4,3.3h-2.1L213.9,551.7z"/>
				<path fill="#FFFFFF" d="M219.7,552v1.8H218V552H219.7z"/>
				<path fill="#FFFFFF" d="M223.7,552.7c0.7,0,1.2-0.4,1.2-1.4h1.7c0,1.8-1.3,2.6-2.7,2.6h-0.2c-1.8,0-2.9-1.1-2.9-3v-0.3
					c0-1.9,1.2-3,2.9-3h0.2c1.4,0,2.7,0.9,2.7,2.6h-1.7c0-0.8-0.3-1.4-1.1-1.4s-1.2,0.7-1.2,1.5v1.1
					C222.5,552,223,552.7,223.7,552.7z"/>
				<path fill="#FFFFFF" d="M227.3,553.1l2.6-4.3h-2.5v-1.2h4.8v0.6l-2.6,4.3h2.7v1.2h-5V553.1z"/>
			</g>
		</g>
		<g>
			<polyline fill="none" stroke="#CC003D" stroke-width="3" stroke-miterlimit="10" points="206.8,473.1 199.8,480.1 192.9,473.2 
							"/>
			<polyline fill="none" stroke="#CC003D" stroke-width="3" stroke-miterlimit="10" points="206.8,464.5 199.8,471.5 192.9,464.6 
							"/>
			<polyline fill="none" stroke="#CC003D" stroke-width="3" stroke-miterlimit="10" points="206.8,455.8 199.8,462.9 192.9,455.9 
							"/>
		</g>
		<g>
			<polyline fill="none" stroke="#CC003D" stroke-width="3" stroke-miterlimit="10" points="192.9,604.1 199.9,597.1 206.8,604.1 
							"/>
			<polyline fill="none" stroke="#CC003D" stroke-width="3" stroke-miterlimit="10" points="192.9,612.7 199.9,605.7 206.8,612.6 
							"/>
			<polyline fill="none" stroke="#CC003D" stroke-width="3" stroke-miterlimit="10" points="192.9,621.4 199.9,614.4 206.8,621.3 
							"/>
		</g>
		<line fill="none" stroke="#CC003D" stroke-width="3" stroke-miterlimit="10" x1="199.8" y1="422.8" x2="199.8" y2="453.3"/>
		<line fill="none" stroke="#CC003D" stroke-width="3" stroke-miterlimit="10" x1="200" y1="622.8" x2="200" y2="701.5"/>
	</g>
</g>
<g id="poznamky">
</g>
</svg>
