<?xml version="1.0" encoding="utf-8"?>
<!-- Generator: Adobe Illustrator 18.0.0, SVG Export Plug-In . SVG Version: 6.00 Build 0)  -->
<!DOCTYPE svg PUBLIC "-//W3C//DTD SVG 1.1//EN" "http://www.w3.org/Graphics/SVG/1.1/DTD/svg11.dtd">
<svg version="1.1" xmlns="http://www.w3.org/2000/svg" xmlns:xlink="http://www.w3.org/1999/xlink" x="0px" y="0px"
	 viewBox="0 0 176 42.5" enable-background="new 0 0 176 42.5" xml:space="preserve">
<g id="Layer_1">
	<path fill="#27316A" d="M6,42.8H170c3.3,0,6-2.7,6-6V6c0-3.3-2.7-6-6-6H6C2.7,0,0,2.7,0,6v30.9C0,40.1,2.7,42.8,6,42.8z"/>
	<g>
		<path fill="#FFFFFF" d="M68.7,20.3c0.5,0.4,0.8,0.9,1,1.5l-2.2,0.7c-0.1-0.8-0.4-1.2-1.1-1.2c-0.9,0-1.4,0.6-1.4,1.9
			c0,1.2,0.5,1.9,1.4,1.9c0.6,0,1-0.4,1.1-1.1l2.1,0.7c-0.1,0.6-0.4,1.1-1,1.5s-1.3,0.6-2.2,0.6c-1.2,0-2.1-0.3-2.7-0.9
			c-0.6-0.6-1-1.5-1-2.6c0-1.1,0.3-2,1-2.6c0.6-0.6,1.5-0.9,2.6-0.9C67.4,19.7,68.2,19.9,68.7,20.3z"/>
		<path fill="#FFFFFF" d="M77.2,23.9h-4.7c0.1,0.4,0.2,0.7,0.5,0.9c0.2,0.2,0.6,0.3,1,0.3c0.3,0,0.6-0.1,0.8-0.2
			c0.2-0.1,0.4-0.3,0.4-0.6l1.9,0.6c-0.2,0.6-0.6,1-1.1,1.3s-1.2,0.5-2,0.5c-1.2,0-2.1-0.3-2.7-0.9c-0.6-0.6-1-1.5-1-2.6
			s0.3-2,0.9-2.6c0.6-0.6,1.5-0.9,2.6-0.9c1.1,0,2,0.3,2.5,0.9c0.6,0.6,0.9,1.5,0.9,2.6C77.3,23.5,77.3,23.7,77.2,23.9z M72.5,22.7
			h2.6c-0.1-0.9-0.5-1.3-1.3-1.3C73.1,21.3,72.7,21.8,72.5,22.7z"/>
		<path fill="#FFFFFF" d="M83.3,19.9l-0.2,2c-0.1-0.1-0.2-0.1-0.4-0.1c-0.2,0-0.3-0.1-0.5-0.1c-0.4,0-0.8,0.1-1.1,0.4
			c-0.3,0.3-0.4,0.7-0.4,1.2v3.4h-2.3v-6.8h2.1l0.1,1.5c0.2-0.5,0.4-0.9,0.8-1.2c0.4-0.3,0.8-0.4,1.3-0.4
			C82.9,19.7,83.1,19.8,83.3,19.9z"/>
		<path fill="#FFFFFF" d="M90.8,19.9l-2.5,6.8h-2.8l-2.5-6.8h2.4l1.4,5.4l1.4-5.4H90.8z"/>
		<path fill="#FFFFFF" d="M97.8,23.9h-4.7c0.1,0.4,0.2,0.7,0.5,0.9c0.2,0.2,0.6,0.3,1,0.3c0.3,0,0.6-0.1,0.8-0.2
			c0.2-0.1,0.4-0.3,0.4-0.6l1.9,0.6c-0.2,0.6-0.6,1-1.1,1.3s-1.2,0.5-2,0.5c-1.2,0-2.1-0.3-2.7-0.9c-0.6-0.6-1-1.5-1-2.6
			s0.3-2,0.9-2.6c0.6-0.6,1.5-0.9,2.6-0.9c1.1,0,2,0.3,2.5,0.9c0.6,0.6,0.9,1.5,0.9,2.6C97.8,23.5,97.8,23.7,97.8,23.9z M93.1,22.7
			h2.6c-0.1-0.9-0.5-1.3-1.3-1.3C93.7,21.3,93.2,21.8,93.1,22.7z"/>
		<path fill="#FFFFFF" d="M105.1,20.3c0.4,0.4,0.6,1,0.6,1.8v4.6h-2.3v-3.9c0-0.5-0.1-0.8-0.3-1c-0.2-0.2-0.4-0.3-0.7-0.3
			c-0.4,0-0.7,0.1-0.9,0.4c-0.2,0.3-0.3,0.7-0.3,1.2v3.6h-2.3v-6.8h2.1l0.1,1.3c0.2-0.5,0.5-0.8,0.9-1.1c0.4-0.2,0.9-0.4,1.4-0.4
			C104.1,19.7,104.7,19.9,105.1,20.3z"/>
		<path fill="#FFFFFF" d="M114.1,25.3l-0.2,1.3c-0.3,0.1-0.6,0.2-0.9,0.2c-1,0-1.6-0.4-1.8-1.1c-0.4,0.7-1.2,1.1-2.4,1.1
			c-0.7,0-1.2-0.1-1.6-0.4c-0.4-0.3-0.5-0.7-0.5-1.3c0-0.6,0.2-1.1,0.6-1.4c0.4-0.4,1.1-0.6,2-0.8l1.5-0.3v-0.2
			c0-0.3-0.1-0.6-0.3-0.7c-0.2-0.2-0.4-0.3-0.7-0.3c-0.3,0-0.6,0.1-0.8,0.2c-0.2,0.2-0.4,0.4-0.4,0.8l-1.9-0.5
			c0.1-0.7,0.4-1.2,1-1.6c0.5-0.4,1.3-0.6,2.2-0.6c1.1,0,1.9,0.2,2.4,0.7c0.6,0.4,0.8,1.1,0.8,2v2.5c0,0.4,0.2,0.5,0.5,0.5
			C113.9,25.4,114,25.3,114.1,25.3z M110.5,25.1c0.3-0.2,0.4-0.4,0.4-0.7v-0.6l-1.1,0.3c-0.3,0.1-0.5,0.2-0.6,0.3
			c-0.1,0.1-0.2,0.3-0.2,0.4c0,0.2,0.1,0.3,0.2,0.4c0.1,0.1,0.3,0.1,0.5,0.1C110,25.3,110.3,25.2,110.5,25.1z"/>
		<path fill="#FFFFFF" d="M119.5,26.3c-0.2,0.2-0.5,0.3-0.9,0.4c-0.4,0.1-0.7,0.1-1.1,0.1c-0.8,0-1.4-0.2-1.9-0.5
			c-0.4-0.3-0.6-0.9-0.7-1.7v-3.1h-1.2v-1.7h1.2v-1.5l2.3-0.6v2.2h2.1v1.7h-2.1v2.8c0,0.6,0.3,0.9,0.9,0.9c0.4,0,0.7-0.1,1-0.3
			L119.5,26.3z"/>
		<path fill="#FFFFFF" d="M122.5,24.3c0,0.3,0,0.5,0.1,0.7c0.1,0.1,0.3,0.2,0.5,0.2c0.2,0,0.5,0,0.7-0.1l-0.2,1.4
			c-0.2,0.1-0.4,0.2-0.6,0.2s-0.5,0.1-0.8,0.1c-0.7,0-1.3-0.2-1.6-0.5c-0.3-0.3-0.5-0.9-0.5-1.6v-7.7h2.3V24.3z"/>
		<path fill="#FFFFFF" d="M131.4,25.3l-0.2,1.3c-0.3,0.1-0.6,0.2-0.9,0.2c-1,0-1.6-0.4-1.8-1.1c-0.4,0.7-1.2,1.1-2.4,1.1
			c-0.7,0-1.2-0.1-1.6-0.4c-0.4-0.3-0.5-0.7-0.5-1.3c0-0.6,0.2-1.1,0.6-1.4c0.4-0.4,1.1-0.6,2-0.8l1.5-0.3v-0.2
			c0-0.3-0.1-0.6-0.3-0.7c-0.2-0.2-0.4-0.3-0.7-0.3c-0.3,0-0.6,0.1-0.8,0.2c-0.2,0.2-0.4,0.4-0.4,0.8l-1.9-0.5
			c0.1-0.7,0.4-1.2,1-1.6c0.5-0.4,1.3-0.6,2.2-0.6c1.1,0,1.9,0.2,2.4,0.7c0.6,0.4,0.8,1.1,0.8,2v2.5c0,0.4,0.2,0.5,0.5,0.5
			C131.2,25.4,131.3,25.3,131.4,25.3z M127.8,25.1c0.3-0.2,0.4-0.4,0.4-0.7v-0.6l-1.1,0.3c-0.3,0.1-0.5,0.2-0.6,0.3
			c-0.1,0.1-0.2,0.3-0.2,0.4c0,0.2,0.1,0.3,0.2,0.4c0.1,0.1,0.3,0.1,0.5,0.1C127.3,25.3,127.6,25.2,127.8,25.1z"/>
		<path fill="#FFFFFF" d="M138.5,20.6c0.5,0.6,0.7,1.5,0.7,2.6c0,1.1-0.3,2-0.8,2.6c-0.5,0.6-1.2,0.9-2.1,0.9
			c-0.5,0-0.9-0.1-1.3-0.3c-0.4-0.2-0.6-0.5-0.8-0.9v4h-2.3v-9.7h2l0.1,1.5c0.2-0.5,0.5-0.9,0.9-1.2c0.4-0.3,0.9-0.4,1.4-0.4
			C137.4,19.7,138,20,138.5,20.6z M136.6,24.7c0.2-0.3,0.3-0.8,0.3-1.4c0-0.6-0.1-1.1-0.3-1.4c-0.2-0.3-0.5-0.5-1-0.5
			c-0.4,0-0.7,0.1-0.9,0.5c-0.2,0.3-0.3,0.7-0.3,1.3v0.1c0,0.6,0.1,1,0.3,1.3c0.2,0.3,0.5,0.5,0.9,0.5
			C136.1,25.1,136.4,25,136.6,24.7z"/>
		<path fill="#FFFFFF" d="M143.8,23.9l-1.1,1.2v1.6h-2.3v-9.7h2.3v5.8l2.6-2.9h2.6l-2.5,2.7l2.7,4.2h-2.6L143.8,23.9z"/>
		<path fill="#FFFFFF" d="M155.6,25.3l-0.2,1.3c-0.3,0.1-0.6,0.2-0.9,0.2c-1,0-1.6-0.4-1.8-1.1c-0.4,0.7-1.2,1.1-2.4,1.1
			c-0.7,0-1.2-0.1-1.6-0.4c-0.4-0.3-0.5-0.7-0.5-1.3c0-0.6,0.2-1.1,0.6-1.4c0.4-0.4,1.1-0.6,2-0.8l1.5-0.3v-0.2
			c0-0.3-0.1-0.6-0.3-0.7c-0.2-0.2-0.4-0.3-0.7-0.3c-0.3,0-0.6,0.1-0.8,0.2c-0.2,0.2-0.4,0.4-0.4,0.8l-1.9-0.5
			c0.1-0.7,0.4-1.2,1-1.6c0.5-0.4,1.3-0.6,2.2-0.6c1.1,0,1.9,0.2,2.4,0.7c0.6,0.4,0.8,1.1,0.8,2v2.5c0,0.4,0.2,0.5,0.5,0.5
			C155.4,25.4,155.5,25.3,155.6,25.3z M152,25.1c0.3-0.2,0.4-0.4,0.4-0.7v-0.6l-1.1,0.3c-0.3,0.1-0.5,0.2-0.6,0.3s-0.2,0.3-0.2,0.4
			c0,0.2,0.1,0.3,0.2,0.4c0.1,0.1,0.3,0.1,0.5,0.1C151.5,25.3,151.7,25.2,152,25.1z"/>
	</g>
	<g>
		<path fill="#FFFFFF" d="M20.6,5.9c7.3,0,14.5,0,21.8,0c0,0,0.1,0,0.1,0.1c2.4,0.3,4.5,2.7,4.5,5.2c0,6.8,0,13.6,0,20.5
			c0,0.3,0,0.5-0.1,0.8c-0.3,2.4-2.7,4.5-5.2,4.5c-1.7,0-3.4,0-5.1,0c-0.1,0-0.2,0-0.3,0c0-3.9,0-7.8,0-11.7c1.7,0,3.4,0,5.1,0
			c0-1.7,0-3.4,0-5.1c-1.7,0-3.4,0-5.1,0c0-0.8,0-1.6,0-2.4c0-0.7,0.5-1.1,1.2-1.1c1.2,0,2.4,0,3.6,0c0.1,0,0.2,0,0.3,0
			c0-1.7,0-3.4,0-5.1c-1.5,0-2.9,0-4.3,0c-0.4,0-0.8,0.1-1.2,0.2c-2.3,0.7-3.6,2.4-4.2,4.6c-0.2,0.9-0.3,1.8-0.2,2.6
			c0,0.4,0,0.7,0,1.1c-1.3,0-2.5,0-3.8,0c0,1.7,0,3.4,0,5.1c1.3,0,2.5,0,3.7,0c0,3.9,0,7.8,0,11.7c-0.1,0-0.2,0-0.3,0
			c-3.3,0-6.6,0-9.8,0c-2.2,0-3.7-1.1-4.7-2.9c-0.3-0.5-0.4-1.1-0.6-1.7c0-7.3,0-14.5,0-21.8c0,0,0-0.1,0.1-0.1c0.3-1.8,1.3-3.2,3-4
			C19.5,6.2,20,6.1,20.6,5.9z"/>
	</g>
</g>
<g id="poznamky">
</g>
</svg>
