<?xml version="1.0" encoding="utf-8"?>
<!-- Generator: Adobe Illustrator 18.0.0, SVG Export Plug-In . SVG Version: 6.00 Build 0)  -->
<!DOCTYPE svg PUBLIC "-//W3C//DTD SVG 1.1//EN" "http://www.w3.org/Graphics/SVG/1.1/DTD/svg11.dtd">
<svg version="1.1" xmlns="http://www.w3.org/2000/svg" xmlns:xlink="http://www.w3.org/1999/xlink" x="0px" y="0px"
	 viewBox="0 0 107.4 90.9" enable-background="new 0 0 107.4 90.9" xml:space="preserve">
<g id="Layer_1">
	<path fill="#27316A" d="M21.9,71.2h64.1c9.6,0,17.3-7.8,17.3-17.3V17.3C103.3,7.8,95.5,0,85.9,0H21.9C12.3,0,4.6,7.8,4.6,17.3v36.5
		C4.6,63.4,12.3,71.2,21.9,71.2z"/>
	<line fill="none" stroke="#FFED00" stroke-miterlimit="10" x1="62.9" y1="12.2" x2="91.7" y2="12.2"/>
	<g>
		<g>
			<path fill="#FFED00" d="M41.9,21.5c0.5-0.1,0.9-0.5,1-1c0-0.4-0.1-0.7-0.4-0.9c0,0,0,0,0,0l-1.8-1.9v2.7
				C40.7,21,41.3,21.5,41.9,21.5z"/>
			<path fill="#FFED00" d="M57.1,14.9h-1.7H43.2c-1.2,0-2.2,0.8-2.5,1.9l2.3,2.4c0,0,0,0,0,0c0.4,0.4,0.6,0.9,0.5,1.4
				c-0.1,0.8-0.7,1.4-1.5,1.5c-0.1,0-0.1,0-0.2,0c-0.7,0-1.4-0.5-1.6-1.2c-0.3-0.1-0.6-0.1-0.9-0.1H23.2c-0.4,0-0.8,0.1-1.2,0.2
				c-0.8-0.6-1.5-1.3-1.9-2.3c-0.9-2.3-0.1-4.8,1.8-6.4c-0.6,0.1-1.2,0.2-1.9,0.5c-3.1,1.3-4.6,4.6-3.4,7.4c0.6,1.5,1.9,2.6,3.5,3.1
				c0,0.2-0.1,0.4-0.1,0.6v5c0,1.5,1,2.7,2.4,3v9h1v-8.9h1.2v8.9h1v-8.9h10.7v8.9h1v-8.9h1.2v8.9h1v-9c1.5-0.2,2.7-1.5,2.7-3.1v-4.1
				c0.1-0.4,0.2-0.8,0.4-1.1c0,0,0-0.1,0-0.1h10.5c2.4,0,4.3-1.9,4.3-4.3v-2.1v-1.7C57.6,15.1,57.4,14.9,57.1,14.9z M45.5,17.4
				c-0.3,0-0.6-0.3-0.6-0.6c0-0.3,0.3-0.6,0.6-0.6c0.3,0,0.6,0.3,0.6,0.6C46.1,17.1,45.8,17.4,45.5,17.4z"/>
		</g>
	</g>
	<line fill="none" stroke="#FFED00" stroke-miterlimit="10" x1="62.9" y1="19.5" x2="91.7" y2="19.5"/>
	<line fill="none" stroke="#FFED00" stroke-miterlimit="10" x1="62.9" y1="26.4" x2="91.7" y2="26.4"/>
	<line fill="none" stroke="#FFED00" stroke-miterlimit="10" x1="62.9" y1="34.1" x2="91.7" y2="34.1"/>
	<line fill="none" stroke="#FFED00" stroke-miterlimit="10" x1="62.9" y1="42.5" x2="91.7" y2="42.5"/>
	<line fill="none" stroke="#FFED00" stroke-miterlimit="10" x1="16.5" y1="50.4" x2="91.7" y2="50.4"/>
	<line fill="none" stroke="#FFED00" stroke-miterlimit="10" x1="16.5" y1="58.6" x2="91.7" y2="58.6"/>
	<g>
		<path fill="#27316A" d="M26.6,86.8h-2.7l-0.6,1.8h-2.1l2.8-7.9h2.5l2.8,7.9h-2.1L26.6,86.8z M26.2,85.4l-0.6-1.9l-0.3-1.2h0
			l-0.3,1.2l-0.6,1.9H26.2z"/>
		<path fill="#27316A" d="M36.5,86.8h-1.2v1.7h-1.8v-1.7h-4v-1l3.4-5.2h2.4v4.8h1.2V86.8z M31.4,85.4h2.1v-2.1l0-1.3h0
			c-0.1,0.4-0.4,0.8-0.7,1.3L31.4,85.4z"/>
		<path fill="#27316A" d="M46.2,83.3c0.4,0.6,0.7,1.3,0.7,2.3c0,1-0.2,1.7-0.6,2.3c-0.4,0.5-1,0.8-1.8,0.8c-0.5,0-0.9-0.1-1.2-0.4
			c-0.3-0.3-0.6-0.6-0.8-1l-0.1,1.3h-1.8V80h2v3.6c0.2-0.4,0.4-0.6,0.7-0.8c0.3-0.2,0.7-0.3,1.1-0.3C45.1,82.5,45.7,82.7,46.2,83.3z
			 M44.5,86.8c0.2-0.3,0.3-0.7,0.3-1.2s-0.1-1-0.3-1.2C44.3,84.1,44,84,43.6,84c-0.4,0-0.6,0.1-0.8,0.4c-0.2,0.3-0.3,0.7-0.3,1.2
			v0.1c0,0.5,0.1,0.9,0.3,1.2c0.2,0.3,0.5,0.4,0.8,0.4C44,87.2,44.3,87.1,44.5,86.8z"/>
		<path fill="#27316A" d="M53.9,87.4l-0.2,1.1c-0.2,0.1-0.5,0.2-0.8,0.2c-0.9,0-1.4-0.3-1.5-0.9c-0.4,0.6-1.1,0.9-2.1,0.9
			c-0.6,0-1.1-0.1-1.4-0.4c-0.3-0.3-0.5-0.6-0.5-1.1c0-0.5,0.2-0.9,0.5-1.2c0.4-0.3,1-0.6,1.8-0.7l1.4-0.3v-0.2
			c0-0.3-0.1-0.5-0.2-0.6c-0.2-0.2-0.4-0.2-0.6-0.2c-0.3,0-0.6,0.1-0.7,0.2c-0.2,0.1-0.3,0.4-0.4,0.7l-1.7-0.5
			c0.1-0.6,0.4-1,0.9-1.4c0.5-0.3,1.1-0.5,1.9-0.5c0.9,0,1.6,0.2,2.1,0.6c0.5,0.4,0.7,1,0.7,1.7V87c0,0.3,0.1,0.5,0.4,0.5
			C53.7,87.4,53.8,87.4,53.9,87.4z M50.8,87.2c0.2-0.2,0.3-0.4,0.3-0.6V86l-1,0.2c-0.3,0.1-0.4,0.1-0.5,0.2
			c-0.1,0.1-0.2,0.2-0.2,0.4s0.1,0.3,0.2,0.4c0.1,0.1,0.2,0.1,0.4,0.1C50.3,87.4,50.5,87.3,50.8,87.2z"/>
		<path fill="#27316A" d="M58.8,82.6l-0.2,1.7c-0.1,0-0.2-0.1-0.3-0.1s-0.3-0.1-0.4-0.1c-0.4,0-0.7,0.1-1,0.4
			c-0.3,0.2-0.4,0.6-0.4,1v3h-2v-6h1.8l0.1,1.3c0.1-0.5,0.4-0.8,0.7-1s0.7-0.4,1.1-0.4C58.5,82.5,58.7,82.5,58.8,82.6z"/>
		<path fill="#27316A" d="M65.1,86.2H61c0.1,0.4,0.2,0.7,0.4,0.8s0.5,0.3,0.8,0.3c0.3,0,0.5-0.1,0.7-0.2c0.2-0.1,0.3-0.3,0.4-0.5
			l1.7,0.5c-0.2,0.5-0.5,0.9-1,1.2c-0.5,0.3-1.1,0.4-1.8,0.4c-1,0-1.8-0.3-2.4-0.8c-0.6-0.5-0.8-1.3-0.8-2.3s0.3-1.8,0.8-2.3
			s1.3-0.8,2.3-0.8c1,0,1.7,0.3,2.2,0.8c0.5,0.5,0.8,1.3,0.8,2.2C65.2,85.8,65.1,86,65.1,86.2z M61,85.1h2.3
			c-0.1-0.8-0.5-1.2-1.1-1.2C61.5,83.9,61.1,84.3,61,85.1z"/>
		<path fill="#27316A" d="M71.9,82.6l-2.2,6h-2.4l-2.2-6h2.1l1.2,4.7l1.3-4.7H71.9z"/>
		<path fill="#27316A" d="M77.8,83c0.4,0.4,0.6,0.9,0.6,1.6v4h-2v-3.4c0-0.4-0.1-0.7-0.2-0.9C76,84.1,75.8,84,75.5,84
			c-0.3,0-0.6,0.1-0.8,0.3c-0.2,0.2-0.3,0.6-0.3,1v3.2h-2v-6h1.8l0.1,1.2c0.2-0.4,0.5-0.7,0.8-1c0.4-0.2,0.8-0.3,1.2-0.3
			C76.9,82.5,77.4,82.7,77.8,83z"/>
		<path fill="#27316A" d="M85.3,86.2h-4.1c0.1,0.4,0.2,0.7,0.4,0.8s0.5,0.3,0.8,0.3c0.3,0,0.5-0.1,0.7-0.2c0.2-0.1,0.3-0.3,0.4-0.5
			l1.7,0.5c-0.2,0.5-0.5,0.9-1,1.2c-0.5,0.3-1.1,0.4-1.8,0.4c-1,0-1.8-0.3-2.4-0.8c-0.6-0.5-0.8-1.3-0.8-2.3s0.3-1.8,0.8-2.3
			s1.3-0.8,2.3-0.8c1,0,1.7,0.3,2.2,0.8c0.5,0.5,0.8,1.3,0.8,2.2C85.4,85.8,85.4,86,85.3,86.2z M83.3,81.8h-2L80,79.7h1.5l0.8,1
			l0.8-1h1.5L83.3,81.8z M81.2,85.1h2.3c-0.1-0.8-0.5-1.2-1.1-1.2C81.7,83.9,81.4,84.3,81.2,85.1z"/>
	</g>
</g>
<g id="poznamky">
</g>
</svg>
