<?xml version="1.0" encoding="utf-8"?>
<!-- Generator: Adobe Illustrator 18.0.0, SVG Export Plug-In . SVG Version: 6.00 Build 0)  -->
<!DOCTYPE svg PUBLIC "-//W3C//DTD SVG 1.1//EN" "http://www.w3.org/Graphics/SVG/1.1/DTD/svg11.dtd">
<svg version="1.1" xmlns="http://www.w3.org/2000/svg" xmlns:xlink="http://www.w3.org/1999/xlink" x="0px" y="0px"
	 viewBox="0 0 46.7 90.9" enable-background="new 0 0 46.7 90.9" xml:space="preserve">
<g id="Layer_1">
	<path fill="#27316A" d="M4.1,9.6v34c0,5.3,4.3,9.6,9.6,9.6h19.5c5.3,0,9.6-4.3,9.6-9.6v-34c0-5.3-4.3-9.6-9.6-9.6L13.7,0
		C8.4,0,4.1,4.3,4.1,9.6z"/>
	<g>
		<path fill="#27316A" d="M21.3,76.3h-2.7L18,78.1h-2.1l2.8-7.9h2.5l2.8,7.9h-2.1L21.3,76.3z M20.9,74.9L20.3,73l-0.3-1.2h0L19.6,73
			L19,74.9H20.9z"/>
		<path fill="#27316A" d="M30.5,71.8l-1.7,0.8c-0.2-0.6-0.6-0.9-1.2-0.9c-0.4,0-0.8,0.2-1.1,0.6c-0.3,0.4-0.4,1-0.4,1.7v0.2h0
			c0.1-0.3,0.4-0.6,0.7-0.8s0.7-0.3,1.2-0.3c0.5,0,0.9,0.1,1.3,0.3c0.4,0.2,0.7,0.5,0.9,0.9c0.2,0.4,0.3,0.8,0.3,1.3
			c0,0.8-0.3,1.4-0.8,1.9c-0.5,0.5-1.3,0.7-2.2,0.7c-1.1,0-1.9-0.3-2.4-1c-0.6-0.7-0.9-1.7-0.9-3c0-0.9,0.2-1.7,0.5-2.3
			c0.3-0.6,0.7-1.1,1.2-1.4c0.5-0.3,1.1-0.4,1.8-0.4C29.2,70.1,30.1,70.6,30.5,71.8z M26.8,74.8c-0.2,0.2-0.3,0.4-0.3,0.8
			c0,0.3,0.1,0.6,0.3,0.8c0.2,0.2,0.5,0.3,0.8,0.3c0.4,0,0.6-0.1,0.8-0.3c0.2-0.2,0.3-0.4,0.3-0.8s-0.1-0.6-0.3-0.8
			c-0.2-0.2-0.5-0.3-0.8-0.3C27.2,74.6,27,74.6,26.8,74.8z"/>
		<path fill="#27316A" d="M6.8,82.8c0.4,0.6,0.7,1.3,0.7,2.3c0,1-0.2,1.7-0.6,2.3c-0.4,0.5-1,0.8-1.8,0.8c-0.5,0-0.9-0.1-1.2-0.4
			c-0.3-0.3-0.6-0.6-0.8-1L3,88.1H1.2v-8.5h2v3.6c0.2-0.4,0.4-0.6,0.7-0.8C4.2,82.1,4.6,82,5,82C5.8,82,6.4,82.2,6.8,82.8z
			 M5.2,86.3c0.2-0.3,0.3-0.7,0.3-1.2s-0.1-1-0.3-1.2c-0.2-0.3-0.5-0.4-0.8-0.4c-0.4,0-0.6,0.1-0.8,0.4c-0.2,0.3-0.3,0.7-0.3,1.2
			v0.1c0,0.5,0.1,0.9,0.3,1.2c0.2,0.3,0.5,0.4,0.8,0.4C4.7,86.7,5,86.6,5.2,86.3z"/>
		<path fill="#27316A" d="M14.6,86.9L14.4,88c-0.2,0.1-0.5,0.2-0.8,0.2c-0.9,0-1.4-0.3-1.5-0.9c-0.4,0.6-1.1,0.9-2.1,0.9
			c-0.6,0-1.1-0.1-1.4-0.4c-0.3-0.3-0.5-0.6-0.5-1.1c0-0.5,0.2-0.9,0.5-1.2c0.4-0.3,1-0.6,1.8-0.7l1.4-0.3v-0.2
			c0-0.3-0.1-0.5-0.2-0.6c-0.2-0.2-0.4-0.2-0.6-0.2c-0.3,0-0.6,0.1-0.7,0.2C10,83.7,9.9,84,9.8,84.3l-1.7-0.5c0.1-0.6,0.4-1,0.9-1.4
			c0.5-0.3,1.1-0.5,1.9-0.5c0.9,0,1.6,0.2,2.1,0.6c0.5,0.4,0.7,1,0.7,1.7v2.2c0,0.3,0.1,0.5,0.4,0.5C14.4,86.9,14.5,86.9,14.6,86.9z
			 M11.4,86.7c0.2-0.2,0.3-0.4,0.3-0.6v-0.5l-1,0.2c-0.3,0.1-0.4,0.1-0.5,0.2c-0.1,0.1-0.2,0.2-0.2,0.4s0.1,0.3,0.2,0.4
			c0.1,0.1,0.2,0.1,0.4,0.1C11,86.9,11.2,86.8,11.4,86.7z"/>
		<path fill="#27316A" d="M19.5,82.1l-0.2,1.7c-0.1,0-0.2-0.1-0.3-0.1s-0.3-0.1-0.4-0.1c-0.4,0-0.7,0.1-1,0.4
			c-0.3,0.2-0.4,0.6-0.4,1v3h-2v-6h1.8l0.1,1.3c0.1-0.5,0.4-0.8,0.7-1s0.7-0.4,1.1-0.4C19.1,82,19.3,82,19.5,82.1z"/>
		<path fill="#27316A" d="M25.8,85.7h-4.1c0.1,0.4,0.2,0.7,0.4,0.8s0.5,0.3,0.8,0.3c0.3,0,0.5-0.1,0.7-0.2c0.2-0.1,0.3-0.3,0.4-0.5
			l1.7,0.5c-0.2,0.5-0.5,0.9-1,1.2c-0.5,0.3-1.1,0.4-1.8,0.4c-1,0-1.8-0.3-2.4-0.8c-0.6-0.5-0.8-1.3-0.8-2.3s0.3-1.8,0.8-2.3
			s1.3-0.8,2.3-0.8c1,0,1.7,0.3,2.2,0.8c0.5,0.5,0.8,1.3,0.8,2.2C25.8,85.3,25.8,85.5,25.8,85.7z M21.7,84.6h2.3
			c-0.1-0.8-0.5-1.2-1.1-1.2C22.2,83.4,21.8,83.8,21.7,84.6z"/>
		<path fill="#27316A" d="M32.6,82.1l-2.2,6H28l-2.2-6H28l1.2,4.7l1.3-4.7H32.6z"/>
		<path fill="#27316A" d="M38.5,82.5c0.4,0.4,0.6,0.9,0.6,1.6v4h-2v-3.4c0-0.4-0.1-0.7-0.2-0.9c-0.1-0.2-0.4-0.3-0.6-0.3
			c-0.3,0-0.6,0.1-0.8,0.3c-0.2,0.2-0.3,0.6-0.3,1v3.2h-2v-6h1.8l0.1,1.2c0.2-0.4,0.5-0.7,0.8-1c0.4-0.2,0.8-0.3,1.2-0.3
			C37.6,82,38.1,82.2,38.5,82.5z"/>
		<path fill="#27316A" d="M46,85.7h-4.1c0.1,0.4,0.2,0.7,0.4,0.8s0.5,0.3,0.8,0.3c0.3,0,0.5-0.1,0.7-0.2c0.2-0.1,0.3-0.3,0.4-0.5
			l1.7,0.5c-0.2,0.5-0.5,0.9-1,1.2c-0.5,0.3-1.1,0.4-1.8,0.4c-1,0-1.8-0.3-2.4-0.8c-0.6-0.5-0.8-1.3-0.8-2.3s0.3-1.8,0.8-2.3
			s1.3-0.8,2.3-0.8c1,0,1.7,0.3,2.2,0.8c0.5,0.5,0.8,1.3,0.8,2.2C46.1,85.3,46.1,85.5,46,85.7z M44,81.3h-2l-1.3-2.1h1.5l0.8,1
			l0.8-1h1.5L44,81.3z M41.9,84.6h2.3c-0.1-0.8-0.5-1.2-1.1-1.2C42.4,83.4,42,83.8,41.9,84.6z"/>
	</g>
	<line fill="none" stroke="#FFED00" stroke-miterlimit="10" x1="9.1" y1="32.9" x2="37.8" y2="32.9"/>
	<line fill="none" stroke="#FFED00" stroke-miterlimit="10" x1="9.1" y1="38.5" x2="37.8" y2="38.5"/>
	<line fill="none" stroke="#FFED00" stroke-miterlimit="10" x1="9.1" y1="43.6" x2="37.8" y2="43.6"/>
	<g>
		<path fill="#FFED00" d="M27,11.9c0.4,0,0.6-0.3,0.7-0.7c0-0.3-0.1-0.5-0.3-0.7c0,0,0,0,0,0l-1.3-1.3v2
			C26.1,11.5,26.5,11.9,27,11.9z"/>
		<path fill="#FFED00" d="M37.8,7.2h-1.2h-8.7c-0.8,0-1.6,0.6-1.8,1.3l1.6,1.7c0,0,0,0,0,0c0.3,0.3,0.4,0.6,0.4,1
			c-0.1,0.5-0.5,1-1,1c0,0-0.1,0-0.1,0c-0.5,0-1-0.3-1.1-0.8c-0.2-0.1-0.4-0.1-0.6-0.1H13.7c-0.3,0-0.6,0.1-0.8,0.2
			c-0.6-0.4-1-1-1.3-1.6c-0.7-1.6-0.1-3.4,1.3-4.6c-0.4,0-0.9,0.1-1.3,0.3c-2.2,0.9-3.3,3.3-2.4,5.3c0.5,1.1,1.4,1.9,2.5,2.2
			c0,0.1,0,0.3,0,0.4v3.5c0,1.1,0.7,1.9,1.7,2.1v6.4h0.7v-6.3h0.9v6.3h0.7v-6.3h7.6v6.3h0.7v-6.3h0.9v6.3h0.7v-6.4
			c1.1-0.1,1.9-1.1,1.9-2.2v-2.9c0.1-0.3,0.1-0.6,0.3-0.8c0,0,0,0,0-0.1h7.5c1.7,0,3-1.4,3-3V8.7V7.5C38.2,7.3,38,7.2,37.8,7.2z
			 M29.5,9c-0.2,0-0.4-0.2-0.4-0.4s0.2-0.4,0.4-0.4c0.2,0,0.4,0.2,0.4,0.4S29.8,9,29.5,9z"/>
	</g>
	<line fill="none" stroke="#FFFFFF" stroke-miterlimit="10" x1="-4.1" y1="21.5" x2="4.1" y2="21.5"/>
</g>
<g id="poznamky">
</g>
</svg>
