<?xml version="1.0" encoding="utf-8"?>
<!-- Generator: Adobe Illustrator 18.0.0, SVG Export Plug-In . SVG Version: 6.00 Build 0)  -->
<!DOCTYPE svg PUBLIC "-//W3C//DTD SVG 1.1//EN" "http://www.w3.org/Graphics/SVG/1.1/DTD/svg11.dtd">
<svg version="1.1" xmlns="http://www.w3.org/2000/svg" xmlns:xlink="http://www.w3.org/1999/xlink" x="0px" y="0px"
	 viewBox="0 0 46.7 90.9" enable-background="new 0 0 46.7 90.9" xml:space="preserve">
<g id="Layer_1">
	<g>
		<path fill="#27316A" d="M21.4,76.4h-2.7l-0.6,1.8H16l2.8-7.9h2.5l2.8,7.9h-2.1L21.4,76.4z M20.9,75l-0.6-1.9L20,71.9h0l-0.3,1.2
			L19.1,75H20.9z"/>
		<path fill="#27316A" d="M30.6,71.9l-1.7,0.8c-0.2-0.6-0.6-0.9-1.2-0.9c-0.4,0-0.8,0.2-1.1,0.6c-0.3,0.4-0.4,1-0.4,1.7v0.2h0
			c0.1-0.3,0.4-0.6,0.7-0.8s0.7-0.3,1.2-0.3c0.5,0,0.9,0.1,1.3,0.3c0.4,0.2,0.7,0.5,0.9,0.9c0.2,0.4,0.3,0.8,0.3,1.3
			c0,0.8-0.3,1.4-0.8,1.9s-1.3,0.7-2.2,0.7c-1.1,0-1.9-0.3-2.4-1c-0.6-0.7-0.9-1.7-0.9-3c0-0.9,0.2-1.7,0.5-2.3
			c0.3-0.6,0.7-1.1,1.2-1.4c0.5-0.3,1.1-0.4,1.8-0.4C29.2,70.2,30.2,70.7,30.6,71.9z M26.8,74.9c-0.2,0.2-0.3,0.4-0.3,0.8
			c0,0.3,0.1,0.6,0.3,0.8c0.2,0.2,0.5,0.3,0.8,0.3c0.4,0,0.6-0.1,0.8-0.3c0.2-0.2,0.3-0.4,0.3-0.8s-0.1-0.6-0.3-0.8
			c-0.2-0.2-0.5-0.3-0.8-0.3C27.3,74.7,27,74.7,26.8,74.9z"/>
		<path fill="#27316A" d="M22.1,82.6c0.5,0.3,0.7,0.8,0.9,1.3l-1.9,0.6c-0.1-0.7-0.4-1-0.9-1c-0.8,0-1.2,0.6-1.2,1.7
			c0,1.1,0.4,1.6,1.2,1.6c0.6,0,0.9-0.3,1-1l1.8,0.6c-0.1,0.5-0.4,1-0.9,1.3s-1.1,0.5-1.9,0.5c-1,0-1.8-0.3-2.4-0.8
			s-0.8-1.3-0.8-2.3c0-1,0.3-1.8,0.8-2.3s1.3-0.8,2.3-0.8C21,82.1,21.6,82.2,22.1,82.6z M21,81.4h-2l-1.3-2.1h1.5l0.8,1l0.8-1h1.5
			L21,81.4z"/>
		<path fill="#27316A" d="M29.5,82.9c0.4,0.6,0.7,1.3,0.7,2.3c0,1-0.2,1.7-0.6,2.3c-0.4,0.5-1,0.8-1.8,0.8c-0.5,0-0.9-0.1-1.2-0.4
			s-0.6-0.6-0.8-1l-0.1,1.3h-1.8v-8.5h2v3.6c0.2-0.4,0.4-0.6,0.7-0.8c0.3-0.2,0.7-0.3,1.1-0.3C28.4,82.1,29,82.3,29.5,82.9z
			 M27.8,86.4c0.2-0.3,0.3-0.7,0.3-1.2s-0.1-1-0.3-1.2c-0.2-0.3-0.5-0.4-0.8-0.4c-0.4,0-0.6,0.1-0.8,0.4c-0.2,0.3-0.3,0.7-0.3,1.2
			v0.1c0,0.5,0.1,0.9,0.3,1.2c0.2,0.3,0.5,0.4,0.8,0.4C27.3,86.8,27.6,86.7,27.8,86.4z"/>
	</g>
	<path fill="#9D9D9C" d="M4.1,9.6v34c0,5.3,4.3,9.6,9.6,9.6h19.5c5.3,0,9.6-4.3,9.6-9.6v-34c0-5.3-4.3-9.6-9.6-9.6L13.7,0
		C8.4,0,4.1,4.3,4.1,9.6z"/>
	<line fill="none" stroke="#FFFFFF" stroke-miterlimit="10" x1="9.1" y1="32.9" x2="37.8" y2="32.9"/>
	<line fill="none" stroke="#FFFFFF" stroke-miterlimit="10" x1="9.1" y1="38.5" x2="37.8" y2="38.5"/>
	<line fill="none" stroke="#FFFFFF" stroke-miterlimit="10" x1="9.1" y1="43.6" x2="37.8" y2="43.6"/>
	<g>
		<path fill="#FFFFFF" d="M27,11.9c0.4,0,0.6-0.3,0.7-0.7c0-0.3-0.1-0.5-0.3-0.7c0,0,0,0,0,0l-1.3-1.3v2
			C26.1,11.5,26.5,11.9,27,11.9z"/>
		<path fill="#FFFFFF" d="M37.8,7.2h-1.2h-8.7c-0.8,0-1.6,0.6-1.8,1.3l1.6,1.7c0,0,0,0,0,0c0.3,0.3,0.4,0.6,0.4,1
			c-0.1,0.5-0.5,1-1,1c0,0-0.1,0-0.1,0c-0.5,0-1-0.3-1.1-0.8c-0.2-0.1-0.4-0.1-0.6-0.1H13.7c-0.3,0-0.6,0.1-0.8,0.2
			c-0.6-0.4-1-1-1.3-1.6c-0.7-1.6-0.1-3.4,1.3-4.6c-0.4,0-0.9,0.1-1.3,0.3c-2.2,0.9-3.3,3.3-2.4,5.3c0.5,1.1,1.4,1.9,2.5,2.2
			c0,0.1,0,0.3,0,0.4v3.5c0,1.1,0.7,1.9,1.7,2.1v6.4h0.7v-6.3h0.9v6.3h0.7v-6.3h7.6v6.3h0.7v-6.3h0.9v6.3h0.7v-6.4
			c1.1-0.1,1.9-1.1,1.9-2.2v-2.9c0.1-0.3,0.1-0.6,0.3-0.8c0,0,0,0,0-0.1h7.5c1.7,0,3-1.4,3-3V8.7V7.5C38.2,7.3,38,7.2,37.8,7.2z
			 M29.5,9c-0.2,0-0.4-0.2-0.4-0.4s0.2-0.4,0.4-0.4c0.2,0,0.4,0.2,0.4,0.4S29.8,9,29.5,9z"/>
	</g>
</g>
<g id="poznamky">
</g>
</svg>
