<?xml version="1.0" encoding="utf-8"?>
<!-- Generator: Adobe Illustrator 18.0.0, SVG Export Plug-In . SVG Version: 6.00 Build 0)  -->
<!DOCTYPE svg PUBLIC "-//W3C//DTD SVG 1.1//EN" "http://www.w3.org/Graphics/SVG/1.1/DTD/svg11.dtd">
<svg version="1.1" xmlns="http://www.w3.org/2000/svg" xmlns:xlink="http://www.w3.org/1999/xlink" x="0px" y="0px"
	 viewBox="0 0 107.4 90.9" enable-background="new 0 0 107.4 90.9" xml:space="preserve">
<g id="Layer_1">
	<path fill="#9D9D9C" d="M21.9,71.2h64.1c9.6,0,17.3-7.8,17.3-17.3V17.3C103.3,7.8,95.5,0,85.9,0H21.9C12.3,0,4.6,7.8,4.6,17.3v36.5
		C4.6,63.4,12.3,71.2,21.9,71.2z"/>
	<g>
		<path fill="#27316A" d="M23,87.1h-2.7l-0.6,1.8h-2.1l2.8-7.9h2.5l2.8,7.9h-2.1L23,87.1z M22.5,85.7L22,83.8l-0.3-1.2h0l-0.3,1.2
			l-0.6,1.9H22.5z"/>
		<path fill="#27316A" d="M32.9,87.1h-1.2v1.7h-1.8v-1.7h-4v-1l3.4-5.2h2.4v4.8h1.2V87.1z M27.8,85.7h2.1v-2.1l0-1.3h0
			c-0.1,0.4-0.4,0.8-0.7,1.3L27.8,85.7z"/>
		<path fill="#27316A" d="M41.8,83.3c0.5,0.3,0.7,0.8,0.9,1.3l-1.9,0.6c-0.1-0.7-0.4-1-0.9-1c-0.8,0-1.2,0.6-1.2,1.7
			c0,1.1,0.4,1.6,1.2,1.6c0.6,0,0.9-0.3,1-1l1.8,0.6c-0.1,0.5-0.4,1-0.9,1.3s-1.1,0.5-2,0.5c-1,0-1.8-0.3-2.4-0.8
			c-0.6-0.5-0.8-1.3-0.8-2.3c0-1,0.3-1.8,0.8-2.3c0.6-0.5,1.3-0.8,2.3-0.8C40.6,82.7,41.3,82.9,41.8,83.3z M40.7,82.1h-2L37.4,80
			h1.5l0.8,1l0.8-1h1.5L40.7,82.1z"/>
		<path fill="#27316A" d="M49.3,86.5h-4.1c0.1,0.4,0.2,0.7,0.4,0.8s0.5,0.3,0.8,0.3c0.3,0,0.5-0.1,0.7-0.2c0.2-0.1,0.3-0.3,0.4-0.5
			l1.7,0.5c-0.2,0.5-0.5,0.9-1,1.2c-0.5,0.3-1.1,0.4-1.8,0.4c-1,0-1.8-0.3-2.4-0.8c-0.6-0.5-0.8-1.3-0.8-2.3s0.3-1.8,0.8-2.3
			s1.3-0.8,2.3-0.8c1,0,1.7,0.3,2.2,0.8c0.5,0.5,0.8,1.3,0.8,2.2C49.3,86.1,49.3,86.3,49.3,86.5z M45.2,85.4h2.3
			c-0.1-0.8-0.5-1.2-1.1-1.2C45.7,84.2,45.3,84.6,45.2,85.4z"/>
		<path fill="#27316A" d="M54.6,82.9l-0.2,1.7c-0.1,0-0.2-0.1-0.3-0.1s-0.3-0.1-0.4-0.1c-0.4,0-0.7,0.1-1,0.4
			c-0.3,0.2-0.4,0.6-0.4,1v3h-2v-6H52l0.1,1.3c0.1-0.5,0.4-0.8,0.7-1s0.7-0.4,1.1-0.4C54.2,82.7,54.4,82.8,54.6,82.9z"/>
		<path fill="#27316A" d="M60.6,83.3c0.4,0.4,0.6,0.9,0.6,1.6v4h-2v-3.4c0-0.4-0.1-0.7-0.2-0.9c-0.1-0.2-0.4-0.3-0.6-0.3
			c-0.3,0-0.6,0.1-0.8,0.3c-0.2,0.2-0.3,0.6-0.3,1v3.2h-2v-6H57L57,84c0.2-0.4,0.5-0.7,0.8-1c0.4-0.2,0.8-0.3,1.2-0.3
			C59.7,82.7,60.2,82.9,60.6,83.3z"/>
		<path fill="#27316A" d="M67.6,83.6c0.6,0.5,0.8,1.3,0.8,2.3s-0.3,1.8-0.8,2.3C67,88.7,66.2,89,65.2,89s-1.8-0.3-2.3-0.8
			c-0.6-0.5-0.8-1.3-0.8-2.3s0.3-1.8,0.8-2.3c0.6-0.5,1.3-0.8,2.3-0.8S67,83,67.6,83.6z M64.4,84.6c-0.2,0.3-0.3,0.7-0.3,1.3
			s0.1,1,0.3,1.3c0.2,0.3,0.5,0.4,0.9,0.4c0.4,0,0.7-0.1,0.9-0.4c0.2-0.3,0.3-0.7,0.3-1.3s-0.1-1-0.3-1.3c-0.2-0.3-0.5-0.4-0.9-0.4
			C64.8,84.2,64.6,84.3,64.4,84.6z"/>
		<path fill="#27316A" d="M75,83.6c0.4,0.6,0.7,1.3,0.7,2.3c0,1-0.2,1.7-0.6,2.3c-0.4,0.5-1,0.8-1.8,0.8c-0.5,0-0.9-0.1-1.2-0.4
			c-0.3-0.3-0.6-0.6-0.8-1l-0.1,1.3h-1.8v-8.5h2v3.6c0.2-0.4,0.4-0.6,0.7-0.8c0.3-0.2,0.7-0.3,1.1-0.3C73.9,82.7,74.6,83,75,83.6z
			 M73.3,87.1c0.2-0.3,0.3-0.7,0.3-1.2s-0.1-1-0.3-1.2c-0.2-0.3-0.5-0.4-0.8-0.4c-0.4,0-0.6,0.1-0.8,0.4c-0.2,0.3-0.3,0.7-0.3,1.2
			v0.1c0,0.5,0.1,0.9,0.3,1.2c0.2,0.3,0.5,0.4,0.8,0.4C72.8,87.5,73.1,87.4,73.3,87.1z"/>
		<path fill="#27316A" d="M78.7,88.9h-2v-6h2V88.9z M79.5,80l-1.2,2.1h-1.5l0.8-2.1H79.5z"/>
		<path fill="#27316A" d="M81.9,86.8c0,0.3,0,0.5,0.1,0.6s0.2,0.2,0.4,0.2c0.2,0,0.4,0,0.6-0.1l-0.1,1.3c-0.1,0.1-0.3,0.2-0.6,0.2
			S81.9,89,81.7,89c-0.6,0-1.1-0.2-1.4-0.5s-0.4-0.8-0.4-1.4v-6.8h2V86.8z"/>
		<path fill="#27316A" d="M89.3,86.5h-4.1c0.1,0.4,0.2,0.7,0.4,0.8s0.5,0.3,0.8,0.3c0.3,0,0.5-0.1,0.7-0.2c0.2-0.1,0.3-0.3,0.4-0.5
			l1.7,0.5c-0.2,0.5-0.5,0.9-1,1.2c-0.5,0.3-1.1,0.4-1.8,0.4c-1,0-1.8-0.3-2.4-0.8c-0.6-0.5-0.8-1.3-0.8-2.3s0.3-1.8,0.8-2.3
			s1.3-0.8,2.3-0.8c1,0,1.7,0.3,2.2,0.8c0.5,0.5,0.8,1.3,0.8,2.2C89.4,86.1,89.4,86.3,89.3,86.5z M85.2,85.4h2.3
			c-0.1-0.8-0.5-1.2-1.1-1.2C85.7,84.2,85.4,84.6,85.2,85.4z"/>
	</g>
	<line fill="none" stroke="#FFFFFF" stroke-miterlimit="10" x1="62.9" y1="12.2" x2="91.7" y2="12.2"/>
	<g>
		<g>
			<path fill="#FFFFFF" d="M41.9,21.5c0.5-0.1,0.9-0.5,1-1c0-0.4-0.1-0.7-0.4-0.9c0,0,0,0,0,0l-1.8-1.9v2.7
				C40.7,21,41.3,21.5,41.9,21.5z"/>
			<path fill="#FFFFFF" d="M57.1,14.9h-1.7H43.2c-1.2,0-2.2,0.8-2.5,1.9l2.3,2.4c0,0,0,0,0,0c0.4,0.4,0.6,0.9,0.5,1.4
				c-0.1,0.8-0.7,1.4-1.5,1.5c-0.1,0-0.1,0-0.2,0c-0.7,0-1.4-0.5-1.6-1.2c-0.3-0.1-0.6-0.1-0.9-0.1H23.2c-0.4,0-0.8,0.1-1.2,0.2
				c-0.8-0.6-1.5-1.3-1.9-2.3c-0.9-2.3-0.1-4.8,1.8-6.4c-0.6,0.1-1.2,0.2-1.9,0.5c-3.1,1.3-4.6,4.6-3.4,7.4c0.6,1.5,1.9,2.6,3.5,3.1
				c0,0.2-0.1,0.4-0.1,0.6v5c0,1.5,1,2.7,2.4,3v9h1v-8.9h1.2v8.9h1v-8.9h10.7v8.9h1v-8.9h1.2v8.9h1v-9c1.5-0.2,2.7-1.5,2.7-3.1v-4.1
				c0.1-0.4,0.2-0.8,0.4-1.1c0,0,0-0.1,0-0.1h10.5c2.4,0,4.3-1.9,4.3-4.3v-2.1v-1.7C57.6,15.1,57.4,14.9,57.1,14.9z M45.5,17.4
				c-0.3,0-0.6-0.3-0.6-0.6c0-0.3,0.3-0.6,0.6-0.6c0.3,0,0.6,0.3,0.6,0.6C46.1,17.1,45.8,17.4,45.5,17.4z"/>
		</g>
	</g>
	<line fill="none" stroke="#FFFFFF" stroke-miterlimit="10" x1="62.9" y1="19.5" x2="91.7" y2="19.5"/>
	<line fill="none" stroke="#FFFFFF" stroke-miterlimit="10" x1="62.9" y1="26.4" x2="91.7" y2="26.4"/>
	<line fill="none" stroke="#FFFFFF" stroke-miterlimit="10" x1="62.9" y1="34.1" x2="91.7" y2="34.1"/>
	<line fill="none" stroke="#FFFFFF" stroke-miterlimit="10" x1="62.9" y1="42.5" x2="91.7" y2="42.5"/>
	<line fill="none" stroke="#FFFFFF" stroke-miterlimit="10" x1="16.5" y1="50.4" x2="91.7" y2="50.4"/>
	<line fill="none" stroke="#FFFFFF" stroke-miterlimit="10" x1="16.5" y1="58.6" x2="91.7" y2="58.6"/>
</g>
<g id="poznamky">
</g>
</svg>
