<?xml version="1.0" encoding="utf-8"?>
<!-- Generator: Adobe Illustrator 18.0.0, SVG Export Plug-In . SVG Version: 6.00 Build 0)  -->
<!DOCTYPE svg PUBLIC "-//W3C//DTD SVG 1.1//EN" "http://www.w3.org/Graphics/SVG/1.1/DTD/svg11.dtd">
<svg version="1.1" xmlns="http://www.w3.org/2000/svg" xmlns:xlink="http://www.w3.org/1999/xlink" x="0px" y="0px"
	 viewBox="0 0 42.5 90.7" enable-background="new 0 0 42.5 90.7" xml:space="preserve">
<g id="Layer_1">
	<path fill="#9D9D9C" d="M3.9,9.6v34c0,5.3,4.3,9.6,9.6,9.6h19.5c5.3,0,9.6-4.3,9.6-9.6v-34c0-5.3-4.3-9.6-9.6-9.6L13.5,0
		C8.2,0,3.9,4.3,3.9,9.6z"/>
	<g>
		<path fill="#27316A" d="M21,76.3h-2.7l-0.6,1.8h-2.1l2.8-7.9h2.5l2.8,7.9h-2.1L21,76.3z M20.6,74.9L20,73l-0.3-1.2h0L19.3,73
			l-0.6,1.9H20.6z"/>
		<path fill="#27316A" d="M30.2,71.8l-1.7,0.8c-0.2-0.6-0.6-0.9-1.2-0.9c-0.4,0-0.8,0.2-1.1,0.6c-0.3,0.4-0.4,1-0.4,1.7v0.2h0
			c0.1-0.3,0.4-0.6,0.7-0.8s0.7-0.3,1.2-0.3c0.5,0,0.9,0.1,1.3,0.3c0.4,0.2,0.7,0.5,0.9,0.9c0.2,0.4,0.3,0.8,0.3,1.3
			c0,0.8-0.3,1.4-0.8,1.9s-1.3,0.7-2.2,0.7c-1.1,0-1.9-0.3-2.4-1c-0.6-0.7-0.9-1.7-0.9-3c0-0.9,0.2-1.7,0.5-2.3
			c0.3-0.6,0.7-1.1,1.2-1.4c0.5-0.3,1.1-0.4,1.8-0.4C28.9,70.1,29.8,70.6,30.2,71.8z M26.5,74.8c-0.2,0.2-0.3,0.4-0.3,0.8
			c0,0.3,0.1,0.6,0.3,0.8c0.2,0.2,0.5,0.3,0.8,0.3c0.4,0,0.6-0.1,0.8-0.3c0.2-0.2,0.3-0.4,0.3-0.8s-0.1-0.6-0.3-0.8
			c-0.2-0.2-0.5-0.3-0.8-0.3C27,74.6,26.7,74.6,26.5,74.8z"/>
		<path fill="#27316A" d="M21.8,82.5c0.5,0.3,0.7,0.8,0.9,1.3l-1.9,0.6c-0.1-0.7-0.4-1-0.9-1c-0.8,0-1.2,0.6-1.2,1.7
			c0,1.1,0.4,1.6,1.2,1.6c0.6,0,0.9-0.3,1-1l1.8,0.6c-0.1,0.5-0.4,1-0.9,1.3s-1.1,0.5-1.9,0.5c-1,0-1.8-0.3-2.4-0.8
			s-0.8-1.3-0.8-2.3c0-1,0.3-1.8,0.8-2.3s1.3-0.8,2.3-0.8C20.6,82,21.3,82.1,21.8,82.5z M20.6,81.3h-2l-1.3-2.1h1.5l0.8,1l0.8-1h1.5
			L20.6,81.3z"/>
		<path fill="#27316A" d="M29.1,82.8c0.4,0.6,0.7,1.3,0.7,2.3c0,1-0.2,1.7-0.6,2.3c-0.4,0.5-1,0.8-1.8,0.8c-0.5,0-0.9-0.1-1.2-0.4
			s-0.6-0.6-0.8-1l-0.1,1.3h-1.8v-8.5h2v3.6c0.2-0.4,0.4-0.6,0.7-0.8c0.3-0.2,0.7-0.3,1.1-0.3C28.1,82,28.7,82.2,29.1,82.8z
			 M27.5,86.3c0.2-0.3,0.3-0.7,0.3-1.2s-0.1-1-0.3-1.2c-0.2-0.3-0.5-0.4-0.8-0.4c-0.4,0-0.6,0.1-0.8,0.4c-0.2,0.3-0.3,0.7-0.3,1.2
			v0.1c0,0.5,0.1,0.9,0.3,1.2c0.2,0.3,0.5,0.4,0.8,0.4C27,86.7,27.3,86.6,27.5,86.3z"/>
	</g>
	<line fill="none" stroke="#FFFFFF" stroke-miterlimit="10" x1="8.8" y1="32.9" x2="37.6" y2="32.9"/>
	<line fill="none" stroke="#FFFFFF" stroke-miterlimit="10" x1="8.8" y1="38.5" x2="37.6" y2="38.5"/>
	<line fill="none" stroke="#FFFFFF" stroke-miterlimit="10" x1="8.8" y1="43.6" x2="37.6" y2="43.6"/>
	<g>
		<path fill="#FFFFFF" d="M26.7,11.9c0.4,0,0.6-0.3,0.7-0.7c0-0.3-0.1-0.5-0.3-0.7c0,0,0,0,0,0l-1.3-1.3v2
			C25.9,11.5,26.3,11.9,26.7,11.9z"/>
		<path fill="#FFFFFF" d="M37.6,7.2h-1.2h-8.7c-0.8,0-1.6,0.6-1.8,1.3l1.6,1.7c0,0,0,0,0,0c0.3,0.3,0.4,0.6,0.4,1
			c-0.1,0.5-0.5,1-1,1c0,0-0.1,0-0.1,0c-0.5,0-1-0.3-1.1-0.8c-0.2-0.1-0.4-0.1-0.6-0.1H13.4c-0.3,0-0.6,0.1-0.8,0.2
			c-0.6-0.4-1-1-1.3-1.6c-0.7-1.6-0.1-3.4,1.3-4.6c-0.4,0-0.9,0.1-1.3,0.3C9.1,6.5,8,8.9,8.8,10.9c0.5,1.1,1.4,1.9,2.5,2.2
			c0,0.1,0,0.3,0,0.4v3.5c0,1.1,0.7,1.9,1.7,2.1v6.4h0.7v-6.3h0.9v6.3h0.7v-6.3h7.6v6.3h0.7v-6.3h0.9v6.3h0.7v-6.4
			c1.1-0.1,1.9-1.1,1.9-2.2v-2.9c0.1-0.3,0.1-0.6,0.3-0.8c0,0,0,0,0-0.1h7.5c1.7,0,3-1.4,3-3V8.7V7.5C37.9,7.3,37.7,7.2,37.6,7.2z
			 M29.3,9c-0.2,0-0.4-0.2-0.4-0.4s0.2-0.4,0.4-0.4c0.2,0,0.4,0.2,0.4,0.4S29.5,9,29.3,9z"/>
	</g>
</g>
<g id="poznamky">
</g>
</svg>
