<?xml version="1.0" encoding="utf-8"?>
<!-- Generator: Adobe Illustrator 18.0.0, SVG Export Plug-In . SVG Version: 6.00 Build 0)  -->
<!DOCTYPE svg PUBLIC "-//W3C//DTD SVG 1.1//EN" "http://www.w3.org/Graphics/SVG/1.1/DTD/svg11.dtd">
<svg version="1.1" xmlns="http://www.w3.org/2000/svg" xmlns:xlink="http://www.w3.org/1999/xlink" x="0px" y="0px"
	 viewBox="0 0 103.3 90.9" enable-background="new 0 0 103.3 90.9" xml:space="preserve">
<g id="Layer_1">
	<path fill="#27316A" d="M17.3,71.2h64.1c9.6,0,17.3-7.8,17.3-17.3V17.3C98.7,7.8,90.9,0,81.4,0H17.3C7.8,0,0,7.8,0,17.3v36.5
		C0,63.4,7.8,71.2,17.3,71.2z"/>
	<g>
		<path fill="#27316A" d="M12.6,87.1H9.9l-0.6,1.8H7.2l2.8-7.9h2.5l2.8,7.9h-2.1L12.6,87.1z M12.2,85.7l-0.6-1.9l-0.3-1.2h0
			l-0.3,1.2l-0.6,1.9H12.2z"/>
		<path fill="#27316A" d="M22.5,87.1h-1.2v1.7h-1.8v-1.7h-4v-1l3.4-5.2h2.4v4.8h1.2V87.1z M17.4,85.7h2.1v-2.1l0-1.3h0
			c-0.1,0.4-0.4,0.8-0.7,1.3L17.4,85.7z"/>
		<path fill="#27316A" d="M32.2,83.6c0.4,0.6,0.7,1.3,0.7,2.3c0,1-0.2,1.7-0.6,2.3c-0.4,0.5-1,0.8-1.8,0.8c-0.5,0-0.9-0.1-1.2-0.4
			c-0.3-0.3-0.6-0.6-0.8-1l-0.1,1.3h-1.8v-8.5h2v3.6c0.2-0.4,0.4-0.6,0.7-0.8c0.3-0.2,0.7-0.3,1.1-0.3C31.1,82.7,31.7,83,32.2,83.6z
			 M30.5,87.1c0.2-0.3,0.3-0.7,0.3-1.2s-0.1-1-0.3-1.2c-0.2-0.3-0.5-0.4-0.8-0.4c-0.4,0-0.6,0.1-0.8,0.4c-0.2,0.3-0.3,0.7-0.3,1.2
			v0.1c0,0.5,0.1,0.9,0.3,1.2c0.2,0.3,0.5,0.4,0.8,0.4C30,87.5,30.3,87.4,30.5,87.1z"/>
		<path fill="#27316A" d="M39.9,87.7l-0.2,1.1c-0.2,0.1-0.5,0.2-0.8,0.2c-0.9,0-1.4-0.3-1.5-0.9C37,88.7,36.3,89,35.2,89
			c-0.6,0-1.1-0.1-1.4-0.4c-0.3-0.3-0.5-0.6-0.5-1.1c0-0.5,0.2-0.9,0.5-1.2c0.4-0.3,1-0.6,1.8-0.7l1.4-0.3V85c0-0.3-0.1-0.5-0.2-0.6
			c-0.2-0.2-0.4-0.2-0.6-0.2c-0.3,0-0.6,0.1-0.7,0.2c-0.2,0.1-0.3,0.4-0.4,0.7l-1.7-0.5c0.1-0.6,0.4-1,0.9-1.4
			c0.5-0.3,1.1-0.5,1.9-0.5c0.9,0,1.6,0.2,2.1,0.6c0.5,0.4,0.7,1,0.7,1.7v2.2c0,0.3,0.1,0.5,0.4,0.5C39.7,87.7,39.8,87.7,39.9,87.7z
			 M36.7,87.4c0.2-0.2,0.3-0.4,0.3-0.6v-0.5l-1,0.2c-0.3,0.1-0.4,0.1-0.5,0.2c-0.1,0.1-0.2,0.2-0.2,0.4s0.1,0.3,0.2,0.4
			c0.1,0.1,0.2,0.1,0.4,0.1C36.3,87.7,36.5,87.6,36.7,87.4z"/>
		<path fill="#27316A" d="M44.8,82.9l-0.2,1.7c-0.1,0-0.2-0.1-0.3-0.1s-0.3-0.1-0.4-0.1c-0.4,0-0.7,0.1-1,0.4
			c-0.3,0.2-0.4,0.6-0.4,1v3h-2v-6h1.8l0.1,1.3c0.1-0.5,0.4-0.8,0.7-1s0.7-0.4,1.1-0.4C44.4,82.7,44.7,82.8,44.8,82.9z"/>
		<path fill="#27316A" d="M51.1,86.5H47c0.1,0.4,0.2,0.7,0.4,0.8s0.5,0.3,0.8,0.3c0.3,0,0.5-0.1,0.7-0.2c0.2-0.1,0.3-0.3,0.4-0.5
			l1.7,0.5c-0.2,0.5-0.5,0.9-1,1.2C49.6,88.9,49,89,48.3,89c-1,0-1.8-0.3-2.4-0.8c-0.6-0.5-0.8-1.3-0.8-2.3s0.3-1.8,0.8-2.3
			s1.3-0.8,2.3-0.8c1,0,1.7,0.3,2.2,0.8c0.5,0.5,0.8,1.3,0.8,2.2C51.2,86.1,51.1,86.3,51.1,86.5z M47,85.4h2.3
			c-0.1-0.8-0.5-1.2-1.1-1.2C47.5,84.2,47.1,84.6,47,85.4z"/>
		<path fill="#27316A" d="M57.9,82.9l-2.2,6h-2.4l-2.2-6h2.1l1.2,4.7l1.3-4.7H57.9z"/>
		<path fill="#27316A" d="M63.8,83.3c0.4,0.4,0.6,0.9,0.6,1.6v4h-2v-3.4c0-0.4-0.1-0.7-0.2-0.9c-0.1-0.2-0.4-0.3-0.6-0.3
			c-0.3,0-0.6,0.1-0.8,0.3c-0.2,0.2-0.3,0.6-0.3,1v3.2h-2v-6h1.8l0.1,1.2c0.2-0.4,0.5-0.7,0.8-1c0.4-0.2,0.8-0.3,1.2-0.3
			C62.9,82.7,63.4,82.9,63.8,83.3z"/>
		<path fill="#27316A" d="M71.3,86.5h-4.1c0.1,0.4,0.2,0.7,0.4,0.8s0.5,0.3,0.8,0.3c0.3,0,0.5-0.1,0.7-0.2c0.2-0.1,0.3-0.3,0.4-0.5
			l1.7,0.5c-0.2,0.5-0.5,0.9-1,1.2c-0.5,0.3-1.1,0.4-1.8,0.4c-1,0-1.8-0.3-2.4-0.8c-0.6-0.5-0.8-1.3-0.8-2.3s0.3-1.8,0.8-2.3
			s1.3-0.8,2.3-0.8c1,0,1.7,0.3,2.2,0.8c0.5,0.5,0.8,1.3,0.8,2.2C71.4,86.1,71.4,86.3,71.3,86.5z M69.3,82.1h-2L66,80h1.5l0.8,1
			l0.8-1h1.5L69.3,82.1z M67.2,85.4h2.3c-0.1-0.8-0.5-1.2-1.1-1.2C67.7,84.2,67.4,84.6,67.2,85.4z"/>
	</g>
	<line fill="none" stroke="#FFED00" stroke-miterlimit="10" x1="58.2" y1="12.2" x2="86.9" y2="12.2"/>
	<line fill="none" stroke="#FFED00" stroke-miterlimit="10" x1="58.2" y1="19.5" x2="86.9" y2="19.5"/>
	<line fill="none" stroke="#FFED00" stroke-miterlimit="10" x1="58.2" y1="26.4" x2="86.9" y2="26.4"/>
	<line fill="none" stroke="#FFED00" stroke-miterlimit="10" x1="58.2" y1="34.1" x2="86.9" y2="34.1"/>
	<line fill="none" stroke="#FFED00" stroke-miterlimit="10" x1="58.2" y1="42.5" x2="86.9" y2="42.5"/>
	<line fill="none" stroke="#FFED00" stroke-miterlimit="10" x1="11.8" y1="50.4" x2="86.9" y2="50.4"/>
	<line fill="none" stroke="#FFED00" stroke-miterlimit="10" x1="11.8" y1="58.6" x2="86.9" y2="58.6"/>
	<g>
		<path fill="#FFED00" d="M37.4,21.5c0.5-0.1,0.9-0.5,1-1c0-0.4-0.1-0.7-0.4-0.9c0,0,0,0,0,0l-1.8-1.9v2.7
			C36.2,21,36.8,21.5,37.4,21.5z"/>
		<path fill="#FFED00" d="M52.7,14.9H51H38.7c-1.2,0-2.2,0.8-2.5,1.9l2.3,2.4c0,0,0,0,0,0c0.4,0.4,0.6,0.9,0.5,1.4
			c-0.1,0.8-0.7,1.4-1.5,1.5c-0.1,0-0.1,0-0.2,0c-0.7,0-1.4-0.5-1.6-1.2c-0.3-0.1-0.6-0.1-0.9-0.1H18.7c-0.4,0-0.8,0.1-1.2,0.2
			c-0.8-0.6-1.5-1.3-1.9-2.3c-0.9-2.3-0.1-4.8,1.8-6.4c-0.6,0.1-1.2,0.2-1.9,0.5c-3.1,1.3-4.6,4.6-3.4,7.4c0.6,1.5,1.9,2.6,3.5,3.1
			c0,0.2-0.1,0.4-0.1,0.6v5c0,1.5,1,2.7,2.4,3v9h1v-8.9h1.2v8.9h1v-8.9H32v8.9h1v-8.9h1.2v8.9h1v-9c1.5-0.2,2.7-1.5,2.7-3.1v-4.1
			c0.1-0.4,0.2-0.8,0.4-1.1c0,0,0-0.1,0-0.1h10.5c2.4,0,4.3-1.9,4.3-4.3v-2.1v-1.7C53.1,15.1,52.9,14.9,52.7,14.9z M41,17.4
			c-0.3,0-0.6-0.3-0.6-0.6s0.3-0.6,0.6-0.6c0.3,0,0.6,0.3,0.6,0.6S41.3,17.4,41,17.4z"/>
	</g>
	<line fill="none" stroke="#FFFFFF" stroke-miterlimit="10" x1="98.7" y1="21.5" x2="107.8" y2="21.5"/>
</g>
<g id="poznamky">
</g>
</svg>
