<?xml version="1.0" encoding="utf-8"?>
<!-- Generator: Adobe Illustrator 18.0.0, SVG Export Plug-In . SVG Version: 6.00 Build 0)  -->
<!DOCTYPE svg PUBLIC "-//W3C//DTD SVG 1.1//EN" "http://www.w3.org/Graphics/SVG/1.1/DTD/svg11.dtd">
<svg version="1.1" xmlns="http://www.w3.org/2000/svg" xmlns:xlink="http://www.w3.org/1999/xlink" x="0px" y="0px"
	 viewBox="0 0 98.7 90.9" enable-background="new 0 0 98.7 90.9" xml:space="preserve">
<g id="Layer_1">
	<g>
		<path fill="#27316A" d="M12.1,87.1H9.4l-0.6,1.8H6.7l2.8-7.9H12l2.8,7.9h-2.1L12.1,87.1z M11.7,85.7l-0.6-1.9l-0.3-1.2h0l-0.3,1.2
			l-0.6,1.9H11.7z"/>
		<path fill="#27316A" d="M22,87.1h-1.2v1.7H19v-1.7h-4v-1l3.4-5.2h2.4v4.8H22V87.1z M16.9,85.7H19v-2.1l0-1.3h0
			c-0.1,0.4-0.4,0.8-0.7,1.3L16.9,85.7z"/>
		<path fill="#27316A" d="M30.9,83.3c0.5,0.3,0.7,0.8,0.9,1.3l-1.9,0.6c-0.1-0.7-0.4-1-0.9-1c-0.8,0-1.2,0.6-1.2,1.7
			c0,1.1,0.4,1.6,1.2,1.6c0.6,0,0.9-0.3,1-1l1.8,0.6c-0.1,0.5-0.4,1-0.9,1.3S29.8,89,29,89c-1,0-1.8-0.3-2.4-0.8
			c-0.6-0.5-0.8-1.3-0.8-2.3c0-1,0.3-1.8,0.8-2.3c0.6-0.5,1.3-0.8,2.3-0.8C29.8,82.7,30.5,82.9,30.9,83.3z M29.8,82.1h-2L26.5,80H28
			l0.8,1l0.8-1h1.5L29.8,82.1z"/>
		<path fill="#27316A" d="M38.4,86.5h-4.1c0.1,0.4,0.2,0.7,0.4,0.8s0.5,0.3,0.8,0.3c0.3,0,0.5-0.1,0.7-0.2c0.2-0.1,0.3-0.3,0.4-0.5
			l1.7,0.5c-0.2,0.5-0.5,0.9-1,1.2c-0.5,0.3-1.1,0.4-1.8,0.4c-1,0-1.8-0.3-2.4-0.8c-0.6-0.5-0.8-1.3-0.8-2.3s0.3-1.8,0.8-2.3
			s1.3-0.8,2.3-0.8c1,0,1.7,0.3,2.2,0.8c0.5,0.5,0.8,1.3,0.8,2.2C38.5,86.1,38.4,86.3,38.4,86.5z M34.3,85.4h2.3
			c-0.1-0.8-0.5-1.2-1.1-1.2C34.8,84.2,34.4,84.6,34.3,85.4z"/>
		<path fill="#27316A" d="M43.7,82.9l-0.2,1.7c-0.1,0-0.2-0.1-0.3-0.1s-0.3-0.1-0.4-0.1c-0.4,0-0.7,0.1-1,0.4
			c-0.3,0.2-0.4,0.6-0.4,1v3h-2v-6h1.8l0.1,1.3c0.1-0.5,0.4-0.8,0.7-1s0.7-0.4,1.1-0.4C43.3,82.7,43.6,82.8,43.7,82.9z"/>
		<path fill="#27316A" d="M49.7,83.3c0.4,0.4,0.6,0.9,0.6,1.6v4h-2v-3.4c0-0.4-0.1-0.7-0.2-0.9c-0.1-0.2-0.4-0.3-0.6-0.3
			c-0.3,0-0.6,0.1-0.8,0.3c-0.2,0.2-0.3,0.6-0.3,1v3.2h-2v-6h1.8l0.1,1.2c0.2-0.4,0.5-0.7,0.8-1c0.4-0.2,0.8-0.3,1.2-0.3
			C48.9,82.7,49.4,82.9,49.7,83.3z"/>
		<path fill="#27316A" d="M56.7,83.6c0.6,0.5,0.8,1.3,0.8,2.3s-0.3,1.8-0.8,2.3c-0.6,0.5-1.3,0.8-2.3,0.8s-1.8-0.3-2.3-0.8
			c-0.6-0.5-0.8-1.3-0.8-2.3s0.3-1.8,0.8-2.3c0.6-0.5,1.3-0.8,2.3-0.8S56.1,83,56.7,83.6z M53.5,84.6c-0.2,0.3-0.3,0.7-0.3,1.3
			s0.1,1,0.3,1.3c0.2,0.3,0.5,0.4,0.9,0.4c0.4,0,0.7-0.1,0.9-0.4c0.2-0.3,0.3-0.7,0.3-1.3s-0.1-1-0.3-1.3c-0.2-0.3-0.5-0.4-0.9-0.4
			C54,84.2,53.7,84.3,53.5,84.6z"/>
		<path fill="#27316A" d="M64.1,83.6c0.4,0.6,0.7,1.3,0.7,2.3c0,1-0.2,1.7-0.6,2.3c-0.4,0.5-1,0.8-1.8,0.8c-0.5,0-0.9-0.1-1.2-0.4
			c-0.3-0.3-0.6-0.6-0.8-1l-0.1,1.3h-1.8v-8.5h2v3.6c0.2-0.4,0.4-0.6,0.7-0.8c0.3-0.2,0.7-0.3,1.1-0.3C63.1,82.7,63.7,83,64.1,83.6z
			 M62.4,87.1c0.2-0.3,0.3-0.7,0.3-1.2s-0.1-1-0.3-1.2c-0.2-0.3-0.5-0.4-0.8-0.4c-0.4,0-0.6,0.1-0.8,0.4c-0.2,0.3-0.3,0.7-0.3,1.2
			v0.1c0,0.5,0.1,0.9,0.3,1.2c0.2,0.3,0.5,0.4,0.8,0.4C62,87.5,62.3,87.4,62.4,87.1z"/>
		<path fill="#27316A" d="M67.8,88.9h-2v-6h2V88.9z M68.6,80l-1.2,2.1h-1.5l0.8-2.1H68.6z"/>
		<path fill="#27316A" d="M71,86.8c0,0.3,0,0.5,0.1,0.6s0.2,0.2,0.4,0.2c0.2,0,0.4,0,0.6-0.1l-0.1,1.3c-0.1,0.1-0.3,0.2-0.6,0.2
			S71,89,70.8,89c-0.6,0-1.1-0.2-1.4-0.5S69,87.8,69,87.1v-6.8h2V86.8z"/>
		<path fill="#27316A" d="M78.5,86.5h-4.1c0.1,0.4,0.2,0.7,0.4,0.8s0.5,0.3,0.8,0.3c0.3,0,0.5-0.1,0.7-0.2c0.2-0.1,0.3-0.3,0.4-0.5
			l1.7,0.5c-0.2,0.5-0.5,0.9-1,1.2C77,88.9,76.4,89,75.7,89c-1,0-1.8-0.3-2.4-0.8c-0.6-0.5-0.8-1.3-0.8-2.3s0.3-1.8,0.8-2.3
			s1.3-0.8,2.3-0.8c1,0,1.7,0.3,2.2,0.8c0.5,0.5,0.8,1.3,0.8,2.2C78.5,86.1,78.5,86.3,78.5,86.5z M74.4,85.4h2.3
			c-0.1-0.8-0.5-1.2-1.1-1.2C74.9,84.2,74.5,84.6,74.4,85.4z"/>
	</g>
	<path fill="#9D9D9C" d="M17.3,71.2h64.1c9.6,0,17.3-7.8,17.3-17.3V17.3C98.7,7.8,90.9,0,81.4,0H17.3C7.8,0,0,7.8,0,17.3v36.5
		C0,63.4,7.8,71.2,17.3,71.2z"/>
	<line fill="none" stroke="#FFFFFF" stroke-miterlimit="10" x1="58.2" y1="12.2" x2="86.9" y2="12.2"/>
	<line fill="none" stroke="#FFFFFF" stroke-miterlimit="10" x1="58.2" y1="19.5" x2="86.9" y2="19.5"/>
	<line fill="none" stroke="#FFFFFF" stroke-miterlimit="10" x1="58.2" y1="26.4" x2="86.9" y2="26.4"/>
	<line fill="none" stroke="#FFFFFF" stroke-miterlimit="10" x1="58.2" y1="34.1" x2="86.9" y2="34.1"/>
	<line fill="none" stroke="#FFFFFF" stroke-miterlimit="10" x1="58.2" y1="42.5" x2="86.9" y2="42.5"/>
	<line fill="none" stroke="#FFFFFF" stroke-miterlimit="10" x1="11.8" y1="50.4" x2="86.9" y2="50.4"/>
	<line fill="none" stroke="#FFFFFF" stroke-miterlimit="10" x1="11.8" y1="58.6" x2="86.9" y2="58.6"/>
	<g>
		<path fill="#FFFFFF" d="M37.4,21.5c0.5-0.1,0.9-0.5,1-1c0-0.4-0.1-0.7-0.4-0.9c0,0,0,0,0,0l-1.8-1.9v2.7
			C36.2,21,36.8,21.5,37.4,21.5z"/>
		<path fill="#FFFFFF" d="M52.7,14.9H51H38.7c-1.2,0-2.2,0.8-2.5,1.9l2.3,2.4c0,0,0,0,0,0c0.4,0.4,0.6,0.9,0.5,1.4
			c-0.1,0.8-0.7,1.4-1.5,1.5c-0.1,0-0.1,0-0.2,0c-0.7,0-1.4-0.5-1.6-1.2c-0.3-0.1-0.6-0.1-0.9-0.1H18.7c-0.4,0-0.8,0.1-1.2,0.2
			c-0.8-0.6-1.5-1.3-1.9-2.3c-0.9-2.3-0.1-4.8,1.8-6.4c-0.6,0.1-1.2,0.2-1.9,0.5c-3.1,1.3-4.6,4.6-3.4,7.4c0.6,1.5,1.9,2.6,3.5,3.1
			c0,0.2-0.1,0.4-0.1,0.6v5c0,1.5,1,2.7,2.4,3v9h1v-8.9h1.2v8.9h1v-8.9H32v8.9h1v-8.9h1.2v8.9h1v-9c1.5-0.2,2.7-1.5,2.7-3.1v-4.1
			c0.1-0.4,0.2-0.8,0.4-1.1c0,0,0-0.1,0-0.1h10.5c2.4,0,4.3-1.9,4.3-4.3v-2.1v-1.7C53.1,15.1,52.9,14.9,52.7,14.9z M41,17.4
			c-0.3,0-0.6-0.3-0.6-0.6c0-0.3,0.3-0.6,0.6-0.6c0.3,0,0.6,0.3,0.6,0.6C41.6,17.1,41.3,17.4,41,17.4z"/>
	</g>
</g>
<g id="poznamky">
</g>
</svg>
