<?xml version="1.0" encoding="utf-8"?>
<!-- Generator: Adobe Illustrator 18.0.0, SVG Export Plug-In . SVG Version: 6.00 Build 0)  -->
<!DOCTYPE svg PUBLIC "-//W3C//DTD SVG 1.1//EN" "http://www.w3.org/Graphics/SVG/1.1/DTD/svg11.dtd">
<svg version="1.1" xmlns="http://www.w3.org/2000/svg" xmlns:xlink="http://www.w3.org/1999/xlink" x="0px" y="0px"
	 viewBox="0 0 180 111.2" enable-background="new 0 0 180 111.2" xml:space="preserve">
<g id="Layer_1">
	<path fill="#27316A" d="M50.5,111.2h79c27.9,0,50.5-22.6,50.5-50.5V50.5C180,22.6,157.4,0,129.5,0h-79C22.6,0,0,22.6,0,50.5v10.1
		C0,88.5,22.6,111.2,50.5,111.2z"/>
	<g>
		<path fill="#FFFFFF" d="M46.9,51.2l-4.1-11.8h3.6l2.6,7.9H49l2.6-7.9h3.3l-4.1,11.8H46.9z"/>
		<path fill="#FFFFFF" d="M57.9,55.5c-0.8,0-1.5-0.1-2-0.3v-2.4c0.3,0.1,1,0.3,1.5,0.3c1,0,1.7-0.7,2.1-2.1l-4.4-11.5h3.6l2.6,7.4
			h0.1l2.4-7.4h3.3L63,50.6C61.9,53.3,60.4,55.5,57.9,55.5z"/>
		<path fill="#FFFFFF" d="M72.7,51.4c-2.3,0-3.6-0.9-3.6-3.3v-6.4h-1.3v-2.3h1.4l1.2-3.7h2.1v3.7h2.7v2.3h-2.7v5.8
			c0,1.4,0.7,1.6,1.3,1.6c0.3,0,1.1-0.1,1.4-0.3V51C74.6,51.3,73.4,51.4,72.7,51.4z"/>
		<path fill="#FFFFFF" d="M80.7,34.7v2.6h-3.4v-2.6H80.7z M77.4,39.5h3.4v11.8h-3.4V39.5z"/>
		<path fill="#FFFFFF" d="M85.9,47.6c0,1.2,1.3,1.5,2.5,1.5c1,0,2.4-0.3,2.4-1.2c0-2.3-7.4-0.2-7.4-5c0-2.5,2.4-3.7,5.1-3.7h0.5
			c2.4,0,4.7,1.2,4.7,3.2c0,0.3,0,0.5,0,0.5h-2.9c0-1-0.8-1.4-2.1-1.4c-1.3,0-2.1,0.4-2.1,1c0,2.1,7.5,0,7.5,4.9c0,3-2.5,4-5.2,4
			h-0.8c-2.9,0-4.9-1.4-4.9-3.5c0-0.2,0-0.4,0-0.5h2.9V47.6z"/>
		<path fill="#FFFFFF" d="M100.8,47.4l-1.3,1.3v2.6h-3.4V34.7h3.4v10.3l4.1-5.5h3.8l-4.3,5.5l4.5,6.2h-4L100.8,47.4z"/>
		<path fill="#FFFFFF" d="M111.9,41.2c0.7-1,1.9-2,3.8-2c2.3,0,4.1,1.2,4.1,3.8v8.2h-3.4v-7.5c0-1.2-0.8-2.1-1.8-2.1
			c-1.2,0-2.2,1-2.2,2.3v7.2h-3.4V39.5h2.5L111.9,41.2z"/>
		<path fill="#FFFFFF" d="M134.2,49.1c0.3,0,0.8-0.2,0.9-0.3V51c-0.2,0.1-0.9,0.5-2,0.5c-1.6,0-2.4-0.6-2.7-1.7
			c-0.8,0.9-1.9,1.7-3.5,1.7c-2.3,0-4.1-1.2-4.1-3.8v-8.2h3.4v7.5c0,1.2,0.8,2.1,1.8,2.1c1.2,0,2.2-1,2.2-2.3v-7.2h3.4v9
			C133.5,49,133.9,49.1,134.2,49.1z"/>
		<path fill="#FFFFFF" d="M63,59.7h3.4v16.6H63V59.7z"/>
		<path fill="#FFFFFF" d="M75,76.4h-0.4c-3.3,0-5.7-2.1-5.7-5.8V70c0-3.7,2.5-5.8,5.7-5.8H75c2.8,0,5.3,1.8,5.3,4.9v1.7h-8v0.6
			c0,1.5,0.9,2.7,2.5,2.7c1.4,0,2.3-0.8,2.3-2.3h3.2C80.3,75.1,77.7,76.4,75,76.4z M72.3,69.1h4.6c0-1.4-0.6-2.5-2.3-2.5
			C73.3,66.5,72.4,67.6,72.3,69.1z"/>
		<path fill="#FFFFFF" d="M86.7,76.4c-2.3,0-3.6-0.9-3.6-3.3v-6.4h-1.3v-2.3h1.4l1.2-3.7h2.1v3.7h2.7v2.3h-2.7v5.8
			c0,1.4,0.7,1.6,1.3,1.6c0.3,0,1.1-0.1,1.4-0.3V76C88.6,76.3,87.4,76.4,86.7,76.4z"/>
		<path fill="#FFFFFF" d="M96.5,66.5c-1.4,0-2,0.8-2,1.4v0.2h-3.2c0-0.1,0-0.3,0-0.4c0-2,2.1-3.4,5.2-3.4h0.5c3.4,0,5.1,1.5,5.1,3.7
			v5.4c0,0.6,0.3,0.8,0.7,0.8c0.3,0,0.8-0.2,0.9-0.3V76c-0.2,0.1-0.9,0.5-2,0.5c-1.7,0-2.6-0.8-2.7-2c-0.8,1-2.1,2-4,2
			c-1.9,0-4-0.5-4-3.4c0-3.4,3.1-4,7.8-4v-0.8C98.6,67.3,98,66.5,96.5,66.5z M94.3,72.8c0,1,0.6,1.4,1.7,1.4c1.2,0,2.6-1,2.6-2.6
			v-0.6C95.7,70.9,94.3,71.4,94.3,72.8z M97.6,59.7h3l0,0.1L97.8,63h-2.3L97.6,59.7z"/>
		<path fill="#FFFFFF" d="M109.8,72.4l-1.3,1.3v2.6h-3.4V59.7h3.4v10.3l4.1-5.5h3.8l-4.3,5.5l4.5,6.2h-4L109.8,72.4z"/>
	</g>
</g>
<g id="poznamky" display="none">
</g>
</svg>
