<?xml version="1.0" encoding="utf-8"?>
<!-- Generator: Adobe Illustrator 18.0.0, SVG Export Plug-In . SVG Version: 6.00 Build 0)  -->
<!DOCTYPE svg PUBLIC "-//W3C//DTD SVG 1.1//EN" "http://www.w3.org/Graphics/SVG/1.1/DTD/svg11.dtd">
<svg version="1.1" xmlns="http://www.w3.org/2000/svg" xmlns:xlink="http://www.w3.org/1999/xlink" x="0px" y="0px"
	 viewBox="0 0 180 111.2" enable-background="new 0 0 180 111.2" xml:space="preserve">
<g id="Layer_1">
	<path fill="#27316A" d="M50.5,111.2h79c27.9,0,50.5-22.6,50.5-50.5V50.5C180,22.6,157.4,0,129.5,0h-79C22.6,0,0,22.6,0,50.5v10.1
		C0,88.5,22.6,111.2,50.5,111.2z"/>
	<g>
		<path fill="#FFFFFF" d="M47.8,40.3c0.7-1,1.8-1.7,3.3-1.7c2.7,0,4.9,1.9,4.9,6v0.3c0,3.9-2,5.9-4.5,5.9c-1.6,0-2.7-0.8-3.3-1.6
			v5.5h-3.4V38.8h2.6L47.8,40.3z M50.4,40.9c-1.2,0-2.2,0.9-2.2,2.8v1.9c0,1.9,1,2.8,2.2,2.8c1.2,0,2.2-0.9,2.2-2.8v-1.9
			C52.6,41.8,51.7,40.9,50.4,40.9z"/>
		<path fill="#FFFFFF" d="M58.9,34l2,1.9l1.9-1.9h2.4c-1.1,1.1-2.1,2.2-3.2,3.3h-2.4L56.5,34H58.9z M65.1,42.8
			c0-0.8-0.4-1.7-1.6-1.7c-1.1,0-1.7,1-1.7,2.2v7.3h-3.3V38.8H61l0.4,1.7c0.1-0.3,1.1-2,3.3-2c2.2,0,3.3,1.5,3.3,3.6
			c0,0.4-0.1,1.2-0.1,1.2h-2.8V42.8z"/>
		<path fill="#FFFFFF" d="M73.2,34v2.6h-3.4V34H73.2z M69.8,38.8h3.4v11.8h-3.4V38.8z"/>
		<path fill="#FFFFFF" d="M78.3,47c0,1.2,1.3,1.5,2.5,1.5c1,0,2.4-0.3,2.4-1.2c0-2.3-7.5-0.2-7.5-5c0-2.5,2.4-3.7,5.1-3.7h0.5
			c2.4,0,4.7,1.2,4.7,3.2c0,0.3,0,0.5,0,0.5H83c0-1-0.8-1.4-2.1-1.4c-1.3,0-2.1,0.4-2.1,1c0,2.1,7.5,0,7.5,4.9c0,3-2.5,4-5.2,4h-0.8
			c-2.9,0-4.9-1.4-4.9-3.5c0-0.2,0-0.4,0-0.5h2.9V47z"/>
		<path fill="#FFFFFF" d="M91.6,40.3c0.7-1,1.8-1.7,3.3-1.7c2.7,0,4.9,1.9,4.9,6v0.3c0,3.9-2,5.9-4.5,5.9c-1.6,0-2.7-0.8-3.3-1.6
			v5.5h-3.4V38.8h2.6L91.6,40.3z M94.1,40.9c-1.2,0-2.2,0.9-2.2,2.8v1.9c0,1.9,1,2.8,2.2,2.8c1.2,0,2.2-0.9,2.2-2.8v-1.9
			C96.3,41.8,95.4,40.9,94.1,40.9z"/>
		<path fill="#FFFFFF" d="M107.8,50.8h-0.4c-3.3,0-5.7-2.1-5.7-5.8v-0.7c0-3.7,2.5-5.8,5.7-5.8h0.4c2.8,0,5.3,1.8,5.3,4.9v1.7h-8
			v0.6c0,1.5,0.9,2.7,2.5,2.7c1.4,0,2.3-0.8,2.3-2.3h3.2C113.2,49.4,110.6,50.8,107.8,50.8z M105.5,34l2,1.9l1.9-1.9h2.4
			c-1.1,1.1-2.1,2.2-3.2,3.3h-2.4l-3.2-3.3H105.5z M105.1,43.4h4.6c0-1.4-0.6-2.5-2.3-2.5C106.1,40.9,105.2,42,105.1,43.4z"/>
		<path fill="#FFFFFF" d="M119.1,38.8V51c0,2.6-1.2,3.8-3.5,3.8c-0.7,0-1.9-0.2-2.5-0.5v-2.1c0.3,0.2,1.1,0.3,1.4,0.3
			c0.6,0,1.3-0.2,1.3-1.6V38.8H119.1z M119.1,34v2.6h-3.4V34H119.1z"/>
		<path fill="#FFFFFF" d="M133.5,48.5c0.3,0,0.8-0.2,0.9-0.3v2.1c-0.2,0.1-0.9,0.5-2,0.5c-1.6,0-2.4-0.6-2.7-1.7
			c-0.8,0.9-1.9,1.7-3.5,1.7c-2.3,0-4.1-1.2-4.1-3.8v-8.2h3.4v7.5c0,1.2,0.8,2.1,1.8,2.1c1.2,0,2.2-1,2.2-2.3v-7.2h3.4v9
			C132.8,48.3,133.2,48.5,133.5,48.5z"/>
		<path fill="#FFFFFF" d="M47.6,61.1c-0.6,0-1.3,0.1-1.3,1.4v1.3H49v2.3h-2.7v9.5h-3.4v-9.5h-1.4v-2.3h1.4v-1.5
			c0-2.4,1.3-3.4,3.5-3.4c0.7,0,1.9,0.2,2.6,0.5v2C48.6,61.2,47.9,61.1,47.6,61.1z M54.2,59v2.6h-3.4V59H54.2z M50.8,63.8h3.4v11.7
			h-3.4V63.8z"/>
		<path fill="#FFFFFF" d="M60.1,65.5c0.7-1,1.9-2,3.7-2c2.3,0,4.1,1.2,4.1,3.8v8.2h-3.4v-7.5c0-1.2-0.8-2.1-1.8-2.1
			c-1.2,0-2.2,1-2.2,2.3v7.2h-3.4V63.8h2.5L60.1,65.5z"/>
		<path fill="#FFFFFF" d="M76,65.9c-1.4,0-2,0.8-2,1.4v0.2h-3.2c0-0.1,0-0.3,0-0.4c0-2,2.1-3.4,5.2-3.4h0.5c3.4,0,5.1,1.5,5.1,3.7
			v5.4c0,0.6,0.3,0.8,0.7,0.8c0.3,0,0.8-0.2,0.9-0.3v2.1c-0.2,0.1-0.9,0.5-2,0.5c-1.7,0-2.6-0.8-2.7-2c-0.8,1-2.1,2-4,2
			s-4-0.5-4-3.4c0-3.4,3.1-4,7.8-4v-0.8C78.1,66.6,77.6,65.9,76,65.9z M73.8,72.1c0,1,0.6,1.4,1.7,1.4c1.2,0,2.6-1,2.6-2.6v-0.6
			C75.3,70.3,73.8,70.8,73.8,72.1z"/>
		<path fill="#FFFFFF" d="M87.5,65.5c0.7-1,1.9-2,3.7-2c2.3,0,4.1,1.2,4.1,3.8v8.2h-3.4v-7.5c0-1.2-0.8-2.1-1.8-2.1
			C89,66,88,67,88,68.3v7.2h-3.4V63.8h2.5L87.5,65.5z"/>
		<path fill="#FFFFFF" d="M103.5,73.5c1.4,0,2.3-0.9,2.3-2.6h3.2c0,3.4-2.4,4.9-5.1,4.9h-0.4c-3.4,0-5.6-2.1-5.6-5.8v-0.7
			c0-3.7,2.4-5.8,5.6-5.8h0.4c2.7,0,5.1,1.8,5.1,4.9h-3.3c0-1.5-0.7-2.6-2.1-2.6c-1.4,0-2.2,1.3-2.2,2.9v2
			C101.3,72.3,102.1,73.5,103.5,73.5z M101.5,59l2,1.9l1.9-1.9h2.4c-1.1,1.1-2.1,2.2-3.2,3.3h-2.4L99.1,59H101.5z"/>
		<path fill="#FFFFFF" d="M114.3,65.5c0.7-1,1.9-2,3.7-2c2.3,0,4.1,1.2,4.1,3.8v8.2h-3.4v-7.5c0-1.2-0.8-2.1-1.8-2.1
			c-1.2,0-2.2,1-2.2,2.3v7.2h-3.4V63.8h2.5L114.3,65.5z"/>
		<path fill="#FFFFFF" d="M130.8,75.8h-0.4c-3.3,0-5.7-2.1-5.7-5.8v-0.7c0-3.7,2.5-5.8,5.7-5.8h0.4c2.8,0,5.3,1.8,5.3,4.9v1.7h-8
			v0.6c0,1.5,0.9,2.7,2.5,2.7c1.4,0,2.3-0.8,2.3-2.3h3.2C136.1,74.4,133.5,75.8,130.8,75.8z M128.4,59l2,1.9l1.9-1.9h2.4
			c-1.1,1.1-2.1,2.2-3.2,3.3h-2.4L126,59H128.4z M128,68.4h4.6c0-1.4-0.6-2.5-2.3-2.5C129,65.9,128.2,67,128,68.4z"/>
	</g>
	<path fill="#FFED00" d="M151.6,102.3L151.6,102.3c8.1,0,14.7-6.6,14.7-14.7v-1.6c0-8.1-6.6-14.7-14.7-14.7h0
		c-8.1,0-14.7,6.6-14.7,14.7v1.6C137,95.7,143.5,102.3,151.6,102.3z"/>
</g>
<g id="poznamky" display="none">
</g>
</svg>
