<?xml version="1.0" encoding="utf-8"?>
<!-- Generator: Adobe Illustrator 18.0.0, SVG Export Plug-In . SVG Version: 6.00 Build 0)  -->
<!DOCTYPE svg PUBLIC "-//W3C//DTD SVG 1.1//EN" "http://www.w3.org/Graphics/SVG/1.1/DTD/svg11.dtd">
<svg version="1.1" xmlns="http://www.w3.org/2000/svg" xmlns:xlink="http://www.w3.org/1999/xlink" x="0px" y="0px"
	 viewBox="0 0 180 111.2" enable-background="new 0 0 180 111.2" xml:space="preserve">
<g id="Layer_1">
	<path fill="#27316A" d="M50.5,111.2h79c27.9,0,50.5-22.6,50.5-50.5V50.5C180,22.6,157.4,0,129.5,0h-79C22.6,0,0,22.6,0,50.5v10.1
		C0,88.5,22.6,111.2,50.5,111.2z"/>
	<g>
		<path fill="#FFFFFF" d="M76,54.4c0.7-1,1.9-2,3.7-2c2.3,0,4.1,1.2,4.1,3.8v8.2h-3.4v-7.5c0-1.2-0.8-2.1-1.8-2.1
			c-1.2,0-2.2,1-2.2,2.3v7.2h-3.4V52.7h2.5L76,54.4z"/>
		<path fill="#FFFFFF" d="M92,54.7c-1.4,0-2,0.8-2,1.4v0.2h-3.2c0-0.1,0-0.3,0-0.4c0-2,2.1-3.4,5.2-3.4h0.5c3.4,0,5.1,1.5,5.1,3.7
			v5.4c0,0.6,0.3,0.8,0.7,0.8c0.3,0,0.8-0.2,0.9-0.3v2.1c-0.2,0.1-0.9,0.5-2,0.5c-1.7,0-2.6-0.8-2.7-2c-0.8,1-2.1,2-4,2
			s-4-0.5-4-3.4c0-3.4,3.1-4,7.8-4v-0.8C94.1,55.5,93.5,54.7,92,54.7z M89.7,61c0,1,0.6,1.4,1.7,1.4c1.2,0,2.6-1,2.6-2.6v-0.6
			C91.2,59.1,89.7,59.6,89.7,61z"/>
		<path fill="#FFFFFF" d="M102.7,60.8c0,1.2,1.3,1.5,2.5,1.5c1,0,2.4-0.3,2.4-1.2c0-2.3-7.5-0.2-7.5-5c0-2.5,2.4-3.7,5.1-3.7h0.5
			c2.4,0,4.7,1.2,4.7,3.2c0,0.3,0,0.5,0,0.5h-2.9c0-1-0.8-1.4-2.1-1.4c-1.3,0-2.1,0.4-2.1,1c0,2.1,7.5,0,7.5,4.9c0,3-2.5,4-5.2,4
			h-0.8c-2.9,0-4.9-1.4-4.9-3.5c0-0.2,0-0.4,0-0.5h2.9V60.8z"/>
		<path fill="#FFFFFF" d="M120.7,62.9c-0.7,1-1.8,1.7-3.3,1.7c-2.7,0-4.9-1.9-4.9-6v-0.3c0-3.9,2-5.9,4.5-5.9c1.6,0,2.7,0.8,3.3,1.6
			v-6.2h3.4v16.6H121L120.7,62.9z M118.1,62.3c1.2,0,2.2-0.9,2.2-2.8v-1.9c0-1.9-1-2.8-2.2-2.8c-1.2,0-2.2,0.9-2.2,2.8v1.9
			C115.9,61.4,116.8,62.3,118.1,62.3z"/>
		<path fill="#FFFFFF" d="M126.7,52.7h3.4v11.7h-3.4V52.7z M128.9,47.8h3l0,0.1l-2.8,3.3h-2.3L128.9,47.8z"/>
		<path fill="#FFFFFF" d="M133.1,47.8h3.4v16.6h-3.4V47.8z"/>
		<path fill="#FFFFFF" d="M139.5,52.7h3.4v11.7h-3.4V52.7z M141.7,47.8h3l0,0.1l-2.8,3.3h-2.3L141.7,47.8z"/>
		<path fill="#FFFFFF" d="M155.6,54.3c0.9-1.3,2-1.9,3.4-1.9c2.1,0,3.8,1.3,3.8,3.8v8.2h-3.4v-7.5c0-1.3-0.6-2-1.6-2
			c-1.1,0-1.9,0.9-1.9,2.3v7.3h-3.4v-7.5c0-1.3-0.6-2-1.6-2c-1.1,0-1.9,0.9-1.9,2.3v7.3h-3.4V52.7h2.5c0.1,0.6,0.3,1.1,0.4,1.7
			c0.9-1.3,2.1-2,3.4-2C153.7,52.4,155,53.1,155.6,54.3z"/>
	</g>
	<g>
		<path fill="#FFED00" d="M25.4,84.8l2.4-16.6h-7.5v-8.6h9l1.5-10.4h-7.9v-8.6h9.2l2.3-16.2h8.3l-2.3,16.2h8.5l2.4-16.2h8.3
			l-2.4,16.2h7.4v8.6h-8.7l-1.5,10.4H62v8.6h-9.1l-2.3,16.6h-8.4l2.3-16.6h-8.5l-2.3,16.6H25.4z M46,59.6l1.5-10.4H39l-1.5,10.4H46z
			"/>
	</g>
</g>
<g id="poznamky" display="none">
</g>
</svg>
