<?xml version="1.0" encoding="utf-8"?>
<!-- Generator: Adobe Illustrator 18.0.0, SVG Export Plug-In . SVG Version: 6.00 Build 0)  -->
<!DOCTYPE svg PUBLIC "-//W3C//DTD SVG 1.1//EN" "http://www.w3.org/Graphics/SVG/1.1/DTD/svg11.dtd">
<svg version="1.1" xmlns="http://www.w3.org/2000/svg" xmlns:xlink="http://www.w3.org/1999/xlink" x="0px" y="0px"
	 viewBox="0 0 180 111.2" enable-background="new 0 0 180 111.2" xml:space="preserve">
<g id="Layer_1">
	<path fill="#27316A" d="M50.5,111.2h79c27.9,0,50.5-22.6,50.5-50.5V50.5C180,22.6,157.4,0,129.5,0h-79C22.6,0,0,22.6,0,50.5v10.1
		C0,88.5,22.6,111.2,50.5,111.2z"/>
	<g>
		<path fill="#FFFFFF" d="M79.1,40.1c0.7-1,1.8-1.7,3.3-1.7c2.7,0,4.9,1.9,4.9,6v0.3c0,3.9-2,5.9-4.5,5.9c-1.6,0-2.7-0.8-3.3-1.6
			v5.5h-3.4V38.7h2.6L79.1,40.1z M81.6,40.7c-1.2,0-2.2,0.9-2.2,2.8v1.9c0,1.9,1,2.8,2.2,2.8c1.2,0,2.2-0.9,2.2-2.8v-1.9
			C83.9,41.6,82.9,40.7,81.6,40.7z"/>
		<path fill="#FFFFFF" d="M95.4,50.6H95c-3.2,0-5.7-2.1-5.7-5.8v-0.7c0-3.7,2.5-5.8,5.7-5.8h0.4c3.2,0,5.7,2.1,5.7,5.8v0.7
			C101.1,48.5,98.6,50.6,95.4,50.6z M95.2,40.7c-1.4,0-2.5,0.9-2.5,2.9v1.9c0,1.9,1.1,2.9,2.5,2.9s2.5-0.9,2.5-2.9v-1.9
			C97.7,41.7,96.6,40.7,95.2,40.7z"/>
		<path fill="#FFFFFF" d="M113.4,40.3c0.9-1.3,2-1.9,3.4-1.9c2.1,0,3.8,1.3,3.8,3.8v8.2h-3.4v-7.5c0-1.3-0.6-2-1.6-2
			c-1.1,0-1.9,0.9-1.9,2.3v7.3h-3.4v-7.5c0-1.3-0.6-2-1.6-2c-1.1,0-1.9,0.9-1.9,2.3v7.3h-3.4V38.7h2.5c0.1,0.6,0.3,1.1,0.4,1.7
			c0.9-1.3,2.1-2,3.4-2C111.4,38.4,112.7,39.1,113.4,40.3z"/>
		<path fill="#FFFFFF" d="M135,48.3c0.3,0,0.8-0.2,0.9-0.3v2.1c-0.2,0.1-0.9,0.5-2,0.5c-1.6,0-2.4-0.6-2.7-1.7
			c-0.8,0.9-1.9,1.7-3.5,1.7c-2.3,0-4.1-1.2-4.1-3.8v-8.2h3.4v7.5c0,1.2,0.8,2.1,1.8,2.1c1.2,0,2.2-1,2.2-2.3v-7.2h3.4v9
			C134.3,48.2,134.7,48.3,135,48.3z M129.1,33.3c1.3,0,2.3,1,2.3,2.3c0,1.3-1,2.3-2.3,2.3c-1.3,0-2.3-1-2.3-2.3
			C126.8,34.3,127.9,33.3,129.1,33.3z M129.1,36.6c0.6,0,1-0.5,1-1s-0.5-1-1-1s-1,0.5-1,1S128.6,36.6,129.1,36.6z"/>
		<path fill="#FFFFFF" d="M137,49.3l5-8.3h-4.7v-2.3h9.2v1.1l-5,8.3h5.2v2.3H137V49.3z M139.9,33.8l2,1.9l1.9-1.9h2.4
			c-1.1,1.1-2.1,2.2-3.1,3.3h-2.4l-3.2-3.3H139.9z"/>
		<path fill="#FFFFFF" d="M160.2,48.3c0.3,0,0.8-0.2,0.9-0.3v2.1c-0.2,0.1-0.9,0.5-2,0.5c-1.6,0-2.4-0.6-2.7-1.7
			c-0.8,0.9-1.9,1.7-3.5,1.7c-2.3,0-4.1-1.2-4.1-3.8v-8.2h3.4v7.5c0,1.2,0.8,2.1,1.8,2.1c1.2,0,2.2-1,2.2-2.3v-7.2h3.4v9
			C159.6,48.2,159.9,48.3,160.2,48.3z"/>
		<path fill="#FFFFFF" d="M75.4,71.8c0,1.2,1.3,1.5,2.5,1.5c1,0,2.4-0.3,2.4-1.2c0-2.3-7.5-0.2-7.5-5c0-2.5,2.4-3.7,5.1-3.7h0.5
			c2.4,0,4.7,1.2,4.7,3.2c0,0.3,0,0.5,0,0.5h-2.9c0-1-0.8-1.4-2.1-1.4c-1.3,0-2.1,0.4-2.1,1c0,2.1,7.5,0,7.5,4.9c0,3-2.5,4-5.2,4
			h-0.8c-2.9,0-4.9-1.4-4.9-3.5c0-0.2,0-0.4,0-0.5h2.9V71.8z"/>
		<path fill="#FFFFFF" d="M93.3,73.9c-0.7,1-1.8,1.7-3.3,1.7c-2.7,0-4.9-1.9-4.9-6v-0.3c0-3.9,2-5.9,4.5-5.9c1.6,0,2.7,0.8,3.3,1.6
			v-6.2h3.4v16.6h-2.6L93.3,73.9z M90.8,73.3c1.2,0,2.2-0.9,2.2-2.8v-1.9c0-1.9-1-2.8-2.2-2.8c-1.2,0-2.2,0.9-2.2,2.8v1.9
			C88.6,72.4,89.5,73.3,90.8,73.3z"/>
		<path fill="#FFFFFF" d="M99.4,63.7h3.4v11.7h-3.4V63.7z M101.6,58.8h3l0,0.1l-2.8,3.3h-2.3L101.6,58.8z"/>
		<path fill="#FFFFFF" d="M105.8,58.8h3.4v16.6h-3.4V58.8z"/>
		<path fill="#FFFFFF" d="M117.8,75.6h-0.4c-3.3,0-5.7-2.1-5.7-5.8v-0.7c0-3.7,2.5-5.8,5.7-5.8h0.4c2.8,0,5.3,1.8,5.3,4.9v1.7h-8
			v0.6c0,1.5,0.9,2.7,2.5,2.7c1.4,0,2.3-0.8,2.3-2.3h3.2C123.1,74.3,120.5,75.6,117.8,75.6z M115.1,68.3h4.6c0-1.4-0.6-2.5-2.3-2.5
			C116,65.7,115.2,66.8,115.1,68.3z"/>
		<path fill="#FFFFFF" d="M128.5,65.4c0.7-1,1.9-2,3.7-2c2.3,0,4.1,1.2,4.1,3.8v8.2H133v-7.5c0-1.2-0.8-2.1-1.8-2.1
			c-1.2,0-2.2,1-2.2,2.3v7.2h-3.4V63.7h2.5L128.5,65.4z"/>
		<path fill="#FFFFFF" d="M139.3,63.7h3.4v11.7h-3.4V63.7z M141.6,58.8h3l0,0.1l-2.8,3.3h-2.3L141.6,58.8z"/>
		<path fill="#FFFFFF" d="M155.5,65.3c0.9-1.3,2-1.9,3.4-1.9c2.1,0,3.8,1.3,3.8,3.8v8.2h-3.4v-7.5c0-1.3-0.6-2-1.6-2
			c-1.1,0-1.9,0.9-1.9,2.3v7.3h-3.4v-7.5c0-1.3-0.6-2-1.6-2c-1.1,0-1.9,0.9-1.9,2.3v7.3h-3.4V63.7h2.5c0.1,0.6,0.3,1.1,0.4,1.7
			c0.9-1.3,2.1-2,3.4-2C153.6,63.4,154.8,64.1,155.5,65.3z"/>
	</g>
	<g>
		<path fill="#FFED00" d="M25.4,84.8l2.4-16.6h-7.5v-8.6h9l1.5-10.4h-7.9v-8.6h9.2l2.3-16.2h8.3l-2.3,16.2h8.5l2.4-16.2h8.3
			l-2.4,16.2h7.4v8.6h-8.7l-1.5,10.4H62v8.6h-9.1l-2.3,16.6h-8.4l2.3-16.6h-8.5l-2.3,16.6H25.4z M46,59.6l1.5-10.4H39l-1.5,10.4H46z
			"/>
	</g>
</g>
<g id="poznamky">
</g>
</svg>
