<?xml version="1.0" encoding="utf-8"?>
<!-- Generator: Adobe Illustrator 18.0.0, SVG Export Plug-In . SVG Version: 6.00 Build 0)  -->
<!DOCTYPE svg PUBLIC "-//W3C//DTD SVG 1.1//EN" "http://www.w3.org/Graphics/SVG/1.1/DTD/svg11.dtd">
<svg version="1.1" xmlns="http://www.w3.org/2000/svg" xmlns:xlink="http://www.w3.org/1999/xlink" x="0px" y="0px"
	 viewBox="0 0 180 111.2" enable-background="new 0 0 180 111.2" xml:space="preserve">
<g id="Layer_1">
	<path fill="#27316A" d="M50.5,111.2h79c27.9,0,50.5-22.6,50.5-50.5V50.5C180,22.6,157.4,0,129.5,0h-79C22.6,0,0,22.6,0,50.5v10.1
		C0,88.5,22.6,111.2,50.5,111.2z"/>
	<g>
		<path fill="#FFFFFF" d="M50.1,27.9c0.7-1,1.8-1.7,3.3-1.7c2.7,0,4.9,1.9,4.9,6v0.3c0,3.9-2,5.9-4.5,5.9c-1.6,0-2.7-0.8-3.3-1.6
			v5.5h-3.4V26.4h2.6L50.1,27.9z M52.7,28.5c-1.2,0-2.2,0.9-2.2,2.8v1.9c0,1.9,1,2.8,2.2,2.8s2.2-0.9,2.2-2.8v-1.9
			C54.9,29.4,53.9,28.5,52.7,28.5z"/>
		<path fill="#FFFFFF" d="M66.4,38.4H66c-3.2,0-5.7-2.1-5.7-5.8v-0.7c0-3.7,2.5-5.8,5.7-5.8h0.4c3.2,0,5.8,2.1,5.8,5.8v0.7
			C72.1,36.3,69.6,38.4,66.4,38.4z M66.2,28.5c-1.4,0-2.5,0.9-2.5,2.9v1.9c0,1.9,1.1,2.9,2.5,2.9s2.5-0.9,2.5-2.9v-1.9
			C68.7,29.4,67.6,28.5,66.2,28.5z"/>
		<path fill="#FFFFFF" d="M84.4,28c0.9-1.3,2-1.9,3.4-1.9c2.1,0,3.8,1.3,3.8,3.8v8.2h-3.4v-7.5c0-1.3-0.6-2-1.6-2
			c-1.1,0-1.9,0.9-1.9,2.3v7.3h-3.4v-7.5c0-1.3-0.6-2-1.6-2c-1.1,0-1.9,0.9-1.9,2.3v7.3h-3.4V26.4h2.5c0.1,0.6,0.3,1.1,0.4,1.7
			c0.8-1.3,2.1-2,3.4-2C82.4,26.2,83.7,26.8,84.4,28z"/>
		<path fill="#FFFFFF" d="M106,36.1c0.3,0,0.8-0.2,0.9-0.3v2.1c-0.2,0.1-0.9,0.5-2,0.5c-1.6,0-2.4-0.6-2.7-1.7
			c-0.8,0.9-1.9,1.7-3.5,1.7c-2.3,0-4.1-1.2-4.1-3.8v-8.2h3.4v7.5c0,1.2,0.8,2.1,1.8,2.1c1.2,0,2.2-1,2.2-2.3v-7.2h3.4v9
			C105.3,35.9,105.7,36.1,106,36.1z M100.2,21c1.3,0,2.3,1,2.3,2.3c0,1.3-1,2.3-2.3,2.3s-2.3-1-2.3-2.3C97.8,22,98.9,21,100.2,21z
			 M100.2,24.3c0.6,0,1-0.5,1-1s-0.5-1-1-1c-0.6,0-1,0.5-1,1S99.6,24.3,100.2,24.3z"/>
		<path fill="#FFFFFF" d="M108,37l5-8.3h-4.7v-2.3h9.2v1.1l-5,8.3h5.2v2.3H108V37z M110.9,21.6l2,1.9l1.9-1.9h2.4
			c-1.1,1.1-2.1,2.2-3.1,3.3h-2.4l-3.2-3.3H110.9z"/>
		<path fill="#FFFFFF" d="M131.2,36.1c0.3,0,0.8-0.2,0.9-0.3v2.1c-0.2,0.1-0.9,0.5-2,0.5c-1.6,0-2.4-0.6-2.7-1.7
			c-0.8,0.9-1.9,1.7-3.5,1.7c-2.3,0-4.1-1.2-4.1-3.8v-8.2h3.4v7.5c0,1.2,0.8,2.1,1.8,2.1c1.2,0,2.2-1,2.2-2.3v-7.2h3.4v9
			C130.6,35.9,130.9,36.1,131.2,36.1z"/>
		<path fill="#FFFFFF" d="M29.4,63.1l-4.1-11.8h3.6l2.6,7.9h0.1l2.6-7.9h3.3l-4.1,11.8H29.4z"/>
		<path fill="#FFFFFF" d="M40.4,67.4c-0.8,0-1.5-0.1-2-0.3v-2.4c0.3,0.1,1,0.3,1.5,0.3c1,0,1.7-0.7,2.1-2.1l-4.4-11.5h3.6l2.6,7.4
			H44l2.4-7.4h3.3l-4.2,11.1C44.5,65.3,42.9,67.4,40.4,67.4z"/>
		<path fill="#FFFFFF" d="M55.2,63.4c-2.3,0-3.6-0.9-3.6-3.3v-6.4h-1.3v-2.3h1.4l1.2-3.7H55v3.7h2.7v2.3H55v5.8
			c0,1.4,0.7,1.6,1.3,1.6c0.3,0,1.1-0.1,1.4-0.3v2.2C57.1,63.2,55.9,63.4,55.2,63.4z"/>
		<path fill="#FFFFFF" d="M63.3,46.6v2.6h-3.4v-2.6H63.3z M59.9,51.4h3.4v11.8h-3.4V51.4z"/>
		<path fill="#FFFFFF" d="M68.4,59.6c0,1.2,1.3,1.5,2.5,1.5c1,0,2.4-0.3,2.4-1.2c0-2.3-7.4-0.2-7.4-5c0-2.5,2.4-3.7,5.1-3.7h0.5
			c2.4,0,4.7,1.2,4.7,3.2c0,0.3,0,0.5,0,0.5h-2.9c0-1-0.8-1.4-2.1-1.4c-1.3,0-2.1,0.4-2.1,1c0,2.1,7.5,0,7.5,4.9c0,3-2.5,4-5.2,4
			h-0.8c-2.9,0-4.9-1.4-4.9-3.5c0-0.2,0-0.4,0-0.5h2.9V59.6z"/>
		<path fill="#FFFFFF" d="M83.3,59.3L82,60.6v2.6h-3.4V46.6H82v10.3l4.1-5.5h3.8l-4.3,5.5l4.5,6.2h-4L83.3,59.3z"/>
		<path fill="#FFFFFF" d="M94.5,53.1c0.7-1,1.9-2,3.8-2c2.3,0,4.1,1.2,4.1,3.8v8.2H99v-7.5c0-1.2-0.8-2.1-1.8-2.1
			c-1.2,0-2.2,1-2.2,2.3v7.2h-3.4V51.4h2.5L94.5,53.1z"/>
		<path fill="#FFFFFF" d="M116.7,61.1c0.3,0,0.8-0.2,0.9-0.3v2.1c-0.2,0.1-0.9,0.5-2,0.5c-1.6,0-2.4-0.6-2.7-1.7
			c-0.8,0.9-1.9,1.7-3.5,1.7c-2.3,0-4.1-1.2-4.1-3.8v-8.2h3.4v7.5c0,1.2,0.8,2.1,1.8,2.1c1.2,0,2.2-1,2.2-2.3v-7.2h3.4v9
			C116,60.9,116.4,61.1,116.7,61.1z"/>
		<path fill="#FFFFFF" d="M123.3,63.4c-2.3,0-3.6-0.9-3.6-3.3v-6.4h-1.3v-2.3h1.4l1.2-3.7h2.1v3.7h2.7v2.3H123v5.8
			c0,1.4,0.7,1.6,1.3,1.6c0.3,0,1.1-0.1,1.4-0.3v2.2C125.2,63.2,124,63.4,123.3,63.4z"/>
		<path fill="#FFFFFF" d="M127.9,51.4h3.4v11.8h-3.4V51.4z M130.2,46.6h3l0,0.1l-2.8,3.3H128L130.2,46.6z"/>
		<path fill="#FFFFFF" d="M144.1,53c0.8-1.3,2-1.9,3.4-1.9c2.1,0,3.8,1.3,3.8,3.8v8.2H148v-7.5c0-1.3-0.6-2-1.6-2
			c-1.1,0-1.9,0.9-1.9,2.3v7.3h-3.4v-7.5c0-1.3-0.6-2-1.6-2c-1.1,0-1.9,0.9-1.9,2.3v7.3h-3.4V51.4h2.5c0.1,0.6,0.3,1.1,0.4,1.7
			c0.9-1.3,2.1-2,3.4-2C142.2,51.2,143.4,51.8,144.1,53z"/>
		<path fill="#FFFFFF" d="M56,71.6h3.4v16.6H56V71.6z"/>
		<path fill="#FFFFFF" d="M68,88.4h-0.4c-3.3,0-5.7-2.1-5.7-5.8v-0.7c0-3.7,2.5-5.8,5.7-5.8H68c2.8,0,5.3,1.8,5.3,4.9v1.7h-8v0.6
			c0,1.5,0.9,2.7,2.5,2.7c1.4,0,2.3-0.8,2.3-2.3h3.2C73.3,87,70.7,88.4,68,88.4z M65.2,81h4.6c0-1.4-0.6-2.5-2.3-2.5
			C66.2,78.5,65.4,79.6,65.2,81z"/>
		<path fill="#FFFFFF" d="M79.6,88.4c-2.3,0-3.6-0.9-3.6-3.3v-6.4h-1.3v-2.3h1.4l1.2-3.7h2.1v3.7h2.7v2.3h-2.7v5.8
			c0,1.4,0.7,1.6,1.3,1.6c0.3,0,1.1-0.1,1.4-0.3v2.2C81.6,88.2,80.4,88.4,79.6,88.4z"/>
		<path fill="#FFFFFF" d="M89.4,78.5c-1.4,0-2,0.8-2,1.4V80h-3.2c0-0.1,0-0.3,0-0.4c0-2,2.1-3.4,5.2-3.4h0.5c3.4,0,5.1,1.5,5.1,3.7
			v5.4c0,0.6,0.3,0.8,0.7,0.8c0.3,0,0.8-0.2,0.9-0.3v2.1c-0.2,0.1-0.9,0.5-2,0.5c-1.7,0-2.6-0.8-2.7-2c-0.8,1-2.1,2-4,2
			c-1.9,0-4-0.5-4-3.4c0-3.4,3.1-4,7.8-4v-0.8C91.5,79.2,91,78.5,89.4,78.5z M87.2,84.7c0,1,0.6,1.4,1.7,1.4c1.2,0,2.6-1,2.6-2.6
			v-0.6C88.7,82.9,87.2,83.4,87.2,84.7z M90.6,71.6h3l0,0.1l-2.8,3.3h-2.3L90.6,71.6z"/>
		<path fill="#FFFFFF" d="M102.8,84.3l-1.3,1.3v2.6h-3.4V71.6h3.4v10.3l4.1-5.5h3.8l-4.3,5.5l4.5,6.2h-4L102.8,84.3z"/>
		<path fill="#FFFFFF" d="M122.4,86.1c0.3,0,0.8-0.2,0.9-0.3v2.1c-0.2,0.1-0.9,0.5-2,0.5c-1.6,0-2.4-0.6-2.7-1.7
			c-0.8,0.9-1.9,1.7-3.5,1.7c-2.3,0-4.1-1.2-4.1-3.8v-8.2h3.4v7.5c0,1.2,0.8,2.1,1.8,2.1c1.2,0,2.2-1,2.2-2.3v-7.2h3.4v9
			C121.7,85.9,122.1,86.1,122.4,86.1z"/>
	</g>
</g>
<g id="poznamky">
</g>
</svg>
