<?xml version="1.0" encoding="utf-8"?>
<!-- Generator: Adobe Illustrator 18.0.0, SVG Export Plug-In . SVG Version: 6.00 Build 0)  -->
<!DOCTYPE svg PUBLIC "-//W3C//DTD SVG 1.1//EN" "http://www.w3.org/Graphics/SVG/1.1/DTD/svg11.dtd">
<svg version="1.1" xmlns="http://www.w3.org/2000/svg" xmlns:xlink="http://www.w3.org/1999/xlink" x="0px" y="0px"
	 viewBox="0 0 480.4 480.4" enable-background="new 0 0 480.4 480.4" xml:space="preserve">
<g id="Layer_1">
	<circle fill="#27316A" cx="240.2" cy="240.2" r="240.2"/>
	<g>
		<path d="M306.7,261.8c-2.5-2-2.5-5.9-3.9-8.8c-0.5-1.1-1.3-2.1-2-3.1c-1-1.3-2-2.7-3-4c2.4-0.6,4.8-0.8,7.2-0.2
			c1.7,0.4,3.3,1.2,5,1.3c0.9,0.1,1.9,0,2.7,0.5c0.9,0.5,1.3,1.5,1.5,2.5c0.6,2.6,0.3,5.6-1.3,7.8c-1.6,2.2-4.7,3.4-7.2,2.4
			C305.8,261,306.6,261,306.7,261.8z"/>
		<g>
			<path fill="#9D9D9C" d="M172,179.2c2.7-0.3,4.8-2.5,5.1-5.1c0.2-1.9-0.5-3.7-1.9-4.9c-0.1-0.1-0.1-0.1-0.2-0.2l-9.5-10v14.5
				C165.6,176.9,168.5,179.6,172,179.2z"/>
			<path fill="#9D9D9C" d="M252.4,144.5h-9h-64.6c-6.3,0-11.7,4.2-13.4,9.9l11.9,12.6c0,0,0,0,0,0c2,1.9,3,4.6,2.7,7.4
				c-0.4,4.1-3.7,7.3-7.7,7.8c-0.3,0-0.7,0.1-1,0.1c-3.9,0-7.3-2.6-8.4-6.2c-1.5-0.5-3.1-0.7-4.7-0.7H73c-2.2,0-4.3,0.4-6.2,1.2
				c-4.3-3-7.7-7.1-9.8-12.1c-4.9-12-0.7-25.6,9.4-34c-3.3,0.3-6.6,1.1-9.8,2.4c-16.2,6.7-24.3,24.2-18.1,39.2
				c3.4,8.2,10.3,13.9,18.5,16.3c-0.2,1.1-0.3,2.2-0.3,3.3v26.3c0,7.8,5.5,14.4,12.9,15.9v47.5h5.3v-47.1h6.4v47.1h5.3v-47.1h56.6
				v47.1h5.3v-47.1h6.4v47.1h5.3v-47.3c8-1,14.2-7.8,14.2-16.1v-21.9c0.7-1.9,1-4.1,1.9-6c0.1-0.2,0.2-0.3,0.3-0.5h55.7
				c12.4,0,22.5-10.1,22.5-22.5v-11v-9C254.9,145.7,253.8,144.5,252.4,144.5z M190.9,157.8c-1.7,0-3.1-1.4-3.1-3.1s1.4-3.1,3.1-3.1
				s3.1,1.4,3.1,3.1S192.7,157.8,190.9,157.8z"/>
		</g>
		<path fill="#FFED00" stroke="#FFED00" stroke-width="2" stroke-miterlimit="10" d="M151.5,200.4c0-3.2-2.6-5.8-5.8-5.8
			c-3.2,0-5.8,2.6-5.8,5.8c0,1.7,0.7,3.2,1.9,4.3h0l9.7,10.2l9.7-10.2h0c1.2-1.1,1.9-2.6,1.9-4.3c0-3.2-2.6-5.8-5.8-5.8
			C154.1,194.6,151.5,197.2,151.5,200.4"/>
		<g>
			<g>
				<path fill="#FFFFFF" stroke="#FFFFFF" stroke-linecap="round" stroke-linejoin="round" stroke-miterlimit="10" d="M425.8,235.3
					c-3.1-1.6-6.3-2.7-9.5-3.3c9.4,9.2,12.4,23.2,6.5,34.7c-2.8,5.4-7.1,9.4-12.3,12c-2.3-1-4.8-1.5-7.5-1.5h-78.7
					c-1,0-2,0.1-2.9,0.2v-56.1c0,12.4-10.1,22.5-22.5,22.5h-57.7l-0.2-0.1h-6.2c-2.1,0-3.8,1.7-3.8,3.8v6.2l0.2-7.2v30.9
					c0,6.4,5.2,11.5,11.5,11.5h63.6c-1,2.4-1.6,5-1.6,7.7v19.9c0,8.9,6,16.5,14.2,18.8v47.9h5.3v-47.1l0,0h6.4v47.1h5.3v-47.1h56.6
					v47.1h5.3v-47.1h5.1c0.5,0,0.9,0,1.3-0.1v47.2h5.3v-48.3c7.5-2.7,12.9-9.9,12.9-18.3v-19.9c0-2.2-0.4-4.4-1.1-6.4
					c8.1-1.9,15.1-6.9,19.1-14.5C447.9,261.5,441.4,243.4,425.8,235.3z"/>
				<path fill="#FFFFFF" stroke="#FFFFFF" stroke-linecap="round" stroke-linejoin="round" stroke-miterlimit="10" d="M416.2,232
					C416.2,232,416.3,232.1,416.2,232C416.3,232,416.3,232,416.2,232L416.2,232z"/>
			</g>
			<circle fill="#312783" stroke="#312783" stroke-miterlimit="10" cx="292.4" cy="254.6" r="2.7"/>
			<path fill="#CC003D" stroke="#CC003D" stroke-width="2" stroke-miterlimit="10" d="M330.7,302.3c0-3.2-2.6-5.8-5.8-5.8
				s-5.8,2.6-5.8,5.8c0,1.7,0.7,3.2,1.9,4.3h0l9.7,10.2l9.7-10.2h0c1.2-1.1,1.9-2.6,1.9-4.3c0-3.2-2.6-5.8-5.8-5.8
				C333.3,296.5,330.7,299.1,330.7,302.3"/>
		</g>
		<polyline fill="none" stroke="#CC003D" stroke-width="3" stroke-miterlimit="10" points="151.5,204.8 181.5,204.8 181.5,306.7 
			330.7,306.7 		"/>
	</g>
</g>
<g id="poznamky" display="none">
</g>
</svg>
