<?xml version="1.0" encoding="utf-8"?>
<!-- Generator: Adobe Illustrator 18.0.0, SVG Export Plug-In . SVG Version: 6.00 Build 0)  -->
<!DOCTYPE svg PUBLIC "-//W3C//DTD SVG 1.1//EN" "http://www.w3.org/Graphics/SVG/1.1/DTD/svg11.dtd">
<svg version="1.1" xmlns="http://www.w3.org/2000/svg" xmlns:xlink="http://www.w3.org/1999/xlink" x="0px" y="0px"
	 viewBox="0 0 176 42.8" enable-background="new 0 0 176 42.8" xml:space="preserve">
<g id="Layer_1">
	<path fill="#27316A" d="M6,42.8H170c3.3,0,6-2.7,6-6V6c0-3.3-2.7-6-6-6H6C2.7,0,0,2.7,0,6v30.9C0,40.1,2.7,42.8,6,42.8z"/>
	<g>
		<path fill="#FFFFFF" d="M63.8,19.8l-0.3,1.9H65v1.4h-1.8l-0.4,2.2h-1.6l0.4-2.2h-1.8l-0.3,2.2H58l0.3-2.2h-1.4v-1.4h1.7l0.3-1.9
			h-1.4v-1.4h1.6l0.3-2.2H61l-0.3,2.2h1.8l0.3-2.2h1.6L64,18.4h1.6v1.4H63.8z M62.2,19.8h-1.8l-0.3,1.9h1.8L62.2,19.8z"/>
		<path fill="#FFFFFF" d="M72.1,18.9c0.5,0.4,0.8,0.9,1,1.5l-2.2,0.7c-0.1-0.8-0.4-1.2-1.1-1.2c-0.9,0-1.4,0.6-1.4,1.9
			c0,1.2,0.5,1.9,1.4,1.9c0.6,0,1-0.4,1.1-1.1l2.1,0.7c-0.1,0.6-0.4,1.1-1,1.5c-0.6,0.4-1.3,0.6-2.2,0.6c-1.2,0-2.1-0.3-2.7-0.9
			c-0.6-0.6-1-1.5-1-2.6c0-1.1,0.3-2,1-2.6c0.6-0.6,1.5-0.9,2.6-0.9C70.8,18.3,71.6,18.5,72.1,18.9z"/>
		<path fill="#FFFFFF" d="M80.7,22.6H76c0.1,0.4,0.2,0.7,0.5,0.9c0.2,0.2,0.6,0.3,1,0.3c0.3,0,0.6-0.1,0.8-0.2
			c0.2-0.1,0.4-0.3,0.4-0.6l1.9,0.6c-0.2,0.6-0.6,1-1.1,1.3s-1.2,0.5-2,0.5c-1.2,0-2.1-0.3-2.7-0.9c-0.6-0.6-1-1.5-1-2.6
			c0-1.1,0.3-2,0.9-2.6c0.6-0.6,1.5-0.9,2.6-0.9c1.1,0,2,0.3,2.5,0.9c0.6,0.6,0.9,1.5,0.9,2.6C80.7,22.1,80.7,22.4,80.7,22.6z
			 M76,21.3h2.6C78.4,20.4,78,20,77.3,20C76.5,20,76.1,20.4,76,21.3z"/>
		<path fill="#FFFFFF" d="M86.7,18.5l-0.2,2c-0.1-0.1-0.2-0.1-0.4-0.1c-0.2,0-0.3-0.1-0.5-0.1c-0.4,0-0.8,0.1-1.1,0.4
			c-0.3,0.3-0.4,0.7-0.4,1.2v3.4h-2.3v-6.8h2.1l0.1,1.5c0.2-0.5,0.4-0.9,0.8-1.2c0.4-0.3,0.8-0.4,1.3-0.4
			C86.3,18.3,86.5,18.4,86.7,18.5z"/>
		<path fill="#FFFFFF" d="M94.2,18.5l-2.5,6.8H89l-2.5-6.8H89l1.4,5.4l1.4-5.4H94.2z"/>
		<path fill="#FFFFFF" d="M101.2,22.6h-4.7c0.1,0.4,0.2,0.7,0.5,0.9c0.2,0.2,0.6,0.3,1,0.3c0.3,0,0.6-0.1,0.8-0.2
			c0.2-0.1,0.4-0.3,0.4-0.6l1.9,0.6c-0.2,0.6-0.6,1-1.1,1.3s-1.2,0.5-2,0.5c-1.2,0-2.1-0.3-2.7-0.9c-0.6-0.6-1-1.5-1-2.6
			c0-1.1,0.3-2,0.9-2.6c0.6-0.6,1.5-0.9,2.6-0.9c1.1,0,2,0.3,2.5,0.9c0.6,0.6,0.9,1.5,0.9,2.6C101.3,22.1,101.3,22.4,101.2,22.6z
			 M96.5,21.3h2.6C99,20.4,98.6,20,97.8,20C97.1,20,96.7,20.4,96.5,21.3z"/>
		<path fill="#FFFFFF" d="M108.5,19c0.4,0.4,0.6,1,0.6,1.8v4.6h-2.3v-3.9c0-0.5-0.1-0.8-0.3-1c-0.2-0.2-0.4-0.3-0.7-0.3
			c-0.4,0-0.7,0.1-0.9,0.4c-0.2,0.3-0.3,0.7-0.3,1.2v3.6h-2.3v-6.8h2.1l0.1,1.3c0.2-0.5,0.5-0.8,0.9-1.1c0.4-0.2,0.9-0.4,1.4-0.4
			C107.5,18.3,108.1,18.5,108.5,19z"/>
		<path fill="#FFFFFF" d="M117.5,23.9l-0.2,1.3c-0.3,0.1-0.6,0.2-0.9,0.2c-1,0-1.6-0.4-1.8-1.1c-0.4,0.7-1.2,1.1-2.4,1.1
			c-0.7,0-1.2-0.1-1.6-0.4c-0.4-0.3-0.5-0.7-0.5-1.3c0-0.6,0.2-1.1,0.6-1.4c0.4-0.4,1.1-0.6,2-0.8l1.5-0.3v-0.2
			c0-0.3-0.1-0.6-0.3-0.7c-0.2-0.2-0.4-0.3-0.7-0.3c-0.3,0-0.6,0.1-0.8,0.2c-0.2,0.2-0.4,0.4-0.4,0.8l-1.9-0.5
			c0.1-0.7,0.4-1.2,1-1.6c0.5-0.4,1.3-0.6,2.2-0.6c1.1,0,1.9,0.2,2.4,0.7c0.6,0.4,0.8,1.1,0.8,2v2.5c0,0.4,0.2,0.5,0.5,0.5
			C117.3,24,117.4,24,117.5,23.9z M113.9,23.7c0.3-0.2,0.4-0.4,0.4-0.7v-0.6l-1.1,0.3c-0.3,0.1-0.5,0.2-0.6,0.3
			c-0.1,0.1-0.2,0.3-0.2,0.4c0,0.2,0.1,0.3,0.2,0.4c0.1,0.1,0.3,0.1,0.5,0.1C113.4,23.9,113.7,23.8,113.9,23.7z"/>
		<path fill="#FFFFFF" d="M122.9,24.9c-0.2,0.2-0.5,0.3-0.9,0.4c-0.4,0.1-0.7,0.1-1.1,0.1c-0.8,0-1.4-0.2-1.9-0.5
			c-0.4-0.3-0.6-0.9-0.7-1.7v-3.1h-1.2v-1.7h1.2v-1.5l2.3-0.6v2.2h2.1v1.7h-2.1v2.8c0,0.6,0.3,0.9,0.9,0.9c0.4,0,0.7-0.1,1-0.3
			L122.9,24.9z"/>
		<path fill="#FFFFFF" d="M125.9,22.9c0,0.3,0,0.5,0.1,0.7c0.1,0.1,0.3,0.2,0.5,0.2c0.2,0,0.5,0,0.7-0.1l-0.2,1.4
			c-0.2,0.1-0.4,0.2-0.6,0.2s-0.5,0.1-0.8,0.1c-0.7,0-1.3-0.2-1.6-0.5c-0.3-0.3-0.5-0.9-0.5-1.6v-7.7h2.3V22.9z"/>
		<path fill="#FFFFFF" d="M134.9,23.9l-0.2,1.3c-0.3,0.1-0.6,0.2-0.9,0.2c-1,0-1.6-0.4-1.8-1.1c-0.4,0.7-1.2,1.1-2.4,1.1
			c-0.7,0-1.2-0.1-1.6-0.4c-0.4-0.3-0.5-0.7-0.5-1.3c0-0.6,0.2-1.1,0.6-1.4c0.4-0.4,1.1-0.6,2-0.8l1.5-0.3v-0.2
			c0-0.3-0.1-0.6-0.3-0.7c-0.2-0.2-0.4-0.3-0.7-0.3c-0.3,0-0.6,0.1-0.8,0.2c-0.2,0.2-0.4,0.4-0.4,0.8l-1.9-0.5
			c0.1-0.7,0.4-1.2,1-1.6c0.5-0.4,1.3-0.6,2.2-0.6c1.1,0,1.9,0.2,2.4,0.7c0.6,0.4,0.8,1.1,0.8,2v2.5c0,0.4,0.2,0.5,0.5,0.5
			C134.6,24,134.7,24,134.9,23.9z M131.3,23.7c0.3-0.2,0.4-0.4,0.4-0.7v-0.6l-1.1,0.3c-0.3,0.1-0.5,0.2-0.6,0.3
			c-0.1,0.1-0.2,0.3-0.2,0.4c0,0.2,0.1,0.3,0.2,0.4c0.1,0.1,0.3,0.1,0.5,0.1C130.7,23.9,131,23.8,131.3,23.7z"/>
		<path fill="#FFFFFF" d="M142,19.3c0.5,0.6,0.7,1.5,0.7,2.6c0,1.1-0.3,2-0.8,2.6c-0.5,0.6-1.2,0.9-2.1,0.9c-0.5,0-0.9-0.1-1.3-0.3
			c-0.4-0.2-0.6-0.5-0.8-0.9v4h-2.3v-9.7h2l0.1,1.5c0.2-0.5,0.5-0.9,0.9-1.2c0.4-0.3,0.9-0.4,1.4-0.4
			C140.8,18.3,141.5,18.6,142,19.3z M140,23.3c0.2-0.3,0.3-0.8,0.3-1.4c0-0.6-0.1-1.1-0.3-1.4c-0.2-0.3-0.5-0.5-1-0.5
			c-0.4,0-0.7,0.1-0.9,0.5c-0.2,0.3-0.3,0.7-0.3,1.3V22c0,0.6,0.1,1,0.3,1.3c0.2,0.3,0.5,0.5,0.9,0.5
			C139.5,23.7,139.8,23.6,140,23.3z"/>
		<path fill="#FFFFFF" d="M147.3,22.5l-1.1,1.2v1.6h-2.3v-9.7h2.3v5.8l2.6-2.9h2.6l-2.5,2.7l2.7,4.2h-2.6L147.3,22.5z"/>
		<path fill="#FFFFFF" d="M159,23.9l-0.2,1.3c-0.3,0.1-0.6,0.2-0.9,0.2c-1,0-1.6-0.4-1.8-1.1c-0.4,0.7-1.2,1.1-2.4,1.1
			c-0.7,0-1.2-0.1-1.6-0.4c-0.4-0.3-0.5-0.7-0.5-1.3c0-0.6,0.2-1.1,0.6-1.4c0.4-0.4,1.1-0.6,2-0.8l1.5-0.3v-0.2
			c0-0.3-0.1-0.6-0.3-0.7c-0.2-0.2-0.4-0.3-0.7-0.3c-0.3,0-0.6,0.1-0.8,0.2c-0.2,0.2-0.4,0.4-0.4,0.8l-1.9-0.5
			c0.1-0.7,0.4-1.2,1-1.6s1.3-0.6,2.2-0.6c1.1,0,1.9,0.2,2.4,0.7c0.6,0.4,0.8,1.1,0.8,2v2.5c0,0.4,0.2,0.5,0.5,0.5
			C158.8,24,158.9,24,159,23.9z M155.4,23.7c0.3-0.2,0.4-0.4,0.4-0.7v-0.6l-1.1,0.3c-0.3,0.1-0.5,0.2-0.6,0.3
			c-0.1,0.1-0.2,0.3-0.2,0.4c0,0.2,0.1,0.3,0.2,0.4c0.1,0.1,0.3,0.1,0.5,0.1C154.9,23.9,155.2,23.8,155.4,23.7z"/>
	</g>
	<g>
		<path fill="#FFFFFF" d="M31.5,6.3c2.2,0,4.5,0,6.7,0c4.7,0,8.4,3.8,8.4,8.5c0,4.5,0,8.9,0,13.4c0,4.7-3.8,8.5-8.5,8.5
			c-4.4,0-8.8,0-13.3,0c-4.7,0-8.5-3.7-8.5-8.4c0-4.5,0-9,0-13.5c0-4.6,3.8-8.3,8.4-8.4C27,6.2,29.3,6.3,31.5,6.3z M31.5,9.1
			c-2.1,0-4.3,0-6.4,0c-3.4,0-5.9,2.5-5.9,5.9c0,4.3,0,8.5,0,12.8c0,3.4,2.5,5.9,5.9,5.9c4.3,0,8.6,0,12.8,0c3.4,0,5.9-2.5,5.9-5.9
			c0-4.3,0-8.5,0-12.8c0-3.4-2.5-5.9-5.9-5.9C35.7,9.1,33.6,9.1,31.5,9.1z"/>
		<path fill="#FFFFFF" d="M31.4,13.5c4.4,0,8,3.5,8,7.9c0,4.3-3.5,7.9-7.9,7.9c-4.4,0-7.9-3.5-8-7.9C23.6,17.1,27.1,13.5,31.4,13.5z
			 M31.5,26.4c2.8,0,5-2.2,5-5c0-2.8-2.3-5.1-5-5.1c-2.7,0-5,2.3-5,5C26.4,24.1,28.7,26.4,31.5,26.4z"/>
		<path fill="#FFFFFF" d="M41.3,13.4c0,1-0.8,1.8-1.8,1.8c-1,0-1.8-0.7-1.8-1.7c0-1.1,0.8-1.9,1.8-1.9
			C40.6,11.6,41.3,12.4,41.3,13.4z"/>
	</g>
</g>
<g id="poznamky">
</g>
</svg>
