<?xml version="1.0" encoding="utf-8"?>
<!-- Generator: Adobe Illustrator 18.0.0, SVG Export Plug-In . SVG Version: 6.00 Build 0)  -->
<!DOCTYPE svg PUBLIC "-//W3C//DTD SVG 1.1//EN" "http://www.w3.org/Graphics/SVG/1.1/DTD/svg11.dtd">
<svg version="1.1" xmlns="http://www.w3.org/2000/svg" xmlns:xlink="http://www.w3.org/1999/xlink" x="0px" y="0px"
	 viewBox="0 0 431.8 89.3" enable-background="new 0 0 431.8 89.3" xml:space="preserve">
<g id="Layer_1">
	<g>
		<path fill="#CC003D" d="M143.9,80.6c0-0.6-0.3-1.2-1.1-1.2c-0.8,0-1.2,0.7-1.2,1.5V86h-2.3v-8.2h1.7l0.3,1.2
			c0.1-0.2,0.8-1.4,2.3-1.4c1.5,0,2.3,1.1,2.3,2.5c0,0.3-0.1,0.8-0.1,0.8h-2V80.6z"/>
		<path fill="#CC003D" d="M151,86.1h-0.3c-2.3,0-4-1.5-4-4v-0.5c0-2.5,1.8-4,4-4h0.3c2,0,3.7,1.2,3.7,3.4v1.2h-5.6v0.4
			c0,1,0.6,1.9,1.8,1.9c1,0,1.6-0.5,1.6-1.6h2.2C154.7,85.2,152.9,86.1,151,86.1z M149.1,81h3.2c0-1-0.4-1.8-1.6-1.8
			C149.8,79.2,149.2,80,149.1,81z"/>
		<path fill="#CC003D" d="M164.4,86.4c0,1.5-1.4,2.6-3.1,2.6h-3.4c-1.2,0-2.3-0.7-2.3-2c0-0.8,0.5-1.5,1.2-1.8
			c-0.5-0.3-0.8-0.8-0.8-1.4c0-0.8,0.6-1.4,1.4-1.7c-0.7-0.4-1.2-1.2-1.2-2c0-1.4,1.1-2.6,3.5-2.6h0.3c0.5,0,0.9,0.1,1.3,0.2
			c1-0.6,1.2-1.2,1.2-1.5h1.8c0,1.2-0.6,1.9-1.7,2.1l0,0c0.5,0.4,0.8,1,0.8,1.7c0,1.4-1.2,2.6-3.2,2.6h-1.1c-0.7,0-1,0.4-1,0.7
			c0,0.4,0.3,0.7,1,0.7h2.8C163.6,84.1,164.4,85.1,164.4,86.4z M162.2,86.7c0-0.4-0.4-0.8-0.9-0.8h-2.8c-0.5,0-0.9,0.4-0.9,0.8
			c0,0.4,0.4,0.8,0.9,0.8h2.7C161.8,87.6,162.2,87.2,162.2,86.7z M159.9,81.4c0.8,0,1.4-0.4,1.4-1.2c0-0.8-0.6-1.2-1.4-1.2
			c-0.8,0-1.4,0.4-1.4,1.2C158.5,81,159.1,81.4,159.9,81.4z"/>
		<path fill="#CC003D" d="M168,74.5v1.8h-2.4v-1.8H168z M165.6,77.8h2.3V86h-2.3V77.8z"/>
		<path fill="#CC003D" d="M171.5,83.5c0,0.8,0.9,1.1,1.7,1.1c0.7,0,1.6-0.2,1.6-0.8c0-1.6-5.2-0.2-5.2-3.5c0-1.7,1.7-2.6,3.6-2.6
			h0.3c1.7,0,3.3,0.9,3.3,2.2c0,0.2,0,0.3,0,0.4h-2c0-0.7-0.6-1-1.5-1c-0.9,0-1.5,0.3-1.5,0.7c0,1.5,5.2,0,5.2,3.4
			c0,2.1-1.7,2.8-3.6,2.8h-0.5c-2,0-3.4-1-3.4-2.4c0-0.2,0-0.3,0-0.3h2V83.5z"/>
		<path fill="#CC003D" d="M181.3,86.1c-1.6,0-2.5-0.6-2.5-2.3v-4.5H178v-1.6h1l0.8-2.6h1.4v2.6h1.9v1.6h-1.9v4
			c0,0.9,0.5,1.1,0.9,1.1c0.2,0,0.7-0.1,1-0.2v1.5C182.7,86,181.9,86.1,181.3,86.1z"/>
		<path fill="#CC003D" d="M189.2,80.6c0-0.6-0.3-1.2-1.1-1.2c-0.8,0-1.2,0.7-1.2,1.5V86h-2.3v-8.2h1.7l0.3,1.2
			c0.1-0.2,0.8-1.4,2.3-1.4c1.5,0,2.3,1.1,2.3,2.5c0,0.3-0.1,0.8-0.1,0.8h-2V80.6z"/>
		<path fill="#CC003D" d="M201.3,85c-0.5,0.7-1.2,1.2-2.3,1.2c-1.9,0-3.4-1.3-3.4-4.2v-0.2c0-2.7,1.4-4.1,3.2-4.1
			c1.1,0,1.9,0.6,2.3,1.1v-4.3h2.3V86h-1.8L201.3,85z M199.5,84.5c0.9,0,1.5-0.6,1.5-1.9v-1.3c0-1.3-0.7-1.9-1.5-1.9
			S198,80,198,81.3v1.3C198,83.9,198.6,84.5,199.5,84.5z"/>
		<path fill="#CC003D" d="M209.4,86.1h-0.3c-2.3,0-4-1.5-4-4v-0.5c0-2.5,1.7-4,4-4h0.3c2.3,0,4,1.5,4,4v0.5
			C213.4,84.7,211.6,86.1,209.4,86.1z M209.2,79.2c-1,0-1.8,0.7-1.8,2v1.3c0,1.3,0.8,2,1.8,2c1,0,1.8-0.7,1.8-2v-1.3
			C211,79.9,210.2,79.2,209.2,79.2z"/>
		<path fill="#CC003D" d="M219.7,77.6c1.7,0,3.2,1.4,3.2,4.1v0.2c0,2.9-1.5,4.2-3.4,4.2c-1.2,0-2.1-0.5-2.7-1.4
			c-0.3,0.4-0.5,0.8-0.8,1.2h-0.8V74.5h2.3v4.3C217.8,78.2,218.6,77.6,219.7,77.6z M219,79.3c-0.9,0-1.5,0.6-1.5,1.9v1.3
			c0,1.3,0.7,1.9,1.5,1.9s1.5-0.6,1.5-1.9v-1.3C220.5,80,219.8,79.3,219,79.3z"/>
		<path fill="#CC003D" d="M229.2,80.6c0-0.6-0.3-1.2-1.1-1.2c-0.8,0-1.2,0.7-1.2,1.5V86h-2.3v-8.2h1.7l0.3,1.2
			c0.1-0.2,0.8-1.4,2.3-1.4c1.5,0,2.3,1.1,2.3,2.5c0,0.3-0.1,0.8-0.1,0.8h-2V80.6z"/>
		<path fill="#CC003D" d="M236.3,86.1h-0.3c-2.3,0-4-1.5-4-4v-0.5c0-2.5,1.7-4,4-4h0.3c2.3,0,4,1.5,4,4v0.5
			C240.3,84.7,238.6,86.1,236.3,86.1z M236.2,79.2c-1,0-1.8,0.7-1.8,2v1.3c0,1.3,0.8,2,1.8,2c1,0,1.8-0.7,1.8-2v-1.3
			C238,79.9,237.2,79.2,236.2,79.2z"/>
		<path fill="#CC003D" d="M244,86l-2.9-8.2h2.5l1.8,5.5h0.1l1.8-5.5h2.3l-2.9,8.2H244z"/>
		<path fill="#CC003D" d="M254.5,86.1h-0.3c-2.3,0-4-1.5-4-4v-0.5c0-2.5,1.7-4,4-4h0.3c2.3,0,4,1.5,4,4v0.5
			C258.5,84.7,256.8,86.1,254.5,86.1z M254.4,79.2c-1,0-1.8,0.7-1.8,2v1.3c0,1.3,0.8,2,1.8,2c1,0,1.8-0.7,1.8-2v-1.3
			C256.2,79.9,255.4,79.2,254.4,79.2z"/>
		<path fill="#CC003D" d="M260.3,74.5h2.3V86h-2.3V74.5z"/>
		<path fill="#CC003D" d="M266.8,79c0.5-0.7,1.3-1.4,2.6-1.4c1.6,0,2.9,0.8,2.9,2.6V86h-2.3v-5.2c0-0.8-0.5-1.4-1.3-1.4
			c-0.8,0-1.5,0.7-1.5,1.6v5h-2.3v-8.2h1.7L266.8,79z"/>
		<path fill="#CC003D" d="M275.3,89c-0.6,0-1-0.1-1.4-0.2v-1.6c0.2,0.1,0.7,0.2,1.1,0.2c0.7,0,1.2-0.5,1.5-1.5l-3.1-8h2.5l1.8,5.1
			h0.1l1.7-5.1h2.3l-2.9,7.7C278.2,87.5,277.1,89,275.3,89z M278.3,74.5h2.1l0,0l-1.9,2.3h-1.6L278.3,74.5z"/>
		<path fill="#CC003D" d="M286.3,84.5c1,0,1.6-0.6,1.6-1.8h2.2c0,2.4-1.7,3.4-3.5,3.4h-0.3c-2.4,0-3.9-1.5-3.9-4v-0.5
			c0-2.5,1.6-4,3.9-4h0.3c1.9,0,3.5,1.2,3.5,3.4h-2.3c0-1.1-0.5-1.8-1.5-1.8c-1,0-1.6,0.9-1.6,2v1.4
			C284.8,83.7,285.3,84.5,286.3,84.5z"/>
		<path fill="#CC003D" d="M294.2,78.6c0.5-0.5,1.2-1,2.3-1c1.6,0,2.9,0.8,2.9,2.6V86H297v-5.2c0-0.8-0.5-1.4-1.3-1.4
			c-0.8,0-1.5,0.7-1.5,1.6v5h-2.3V74.5h2.3V78.6z"/>
		<path fill="#CC003D" d="M307,78.8c0.5-0.7,1.2-1.2,2.3-1.2c1.9,0,3.4,1.3,3.4,4.2V82c0,2.7-1.4,4.1-3.2,4.1
			c-1.1,0-1.9-0.6-2.3-1.1v3.8h-2.3V77.8h1.8L307,78.8z M308.8,79.2c-0.9,0-1.5,0.6-1.5,1.9v1.3c0,1.3,0.7,1.9,1.5,1.9
			s1.5-0.6,1.5-1.9v-1.3C310.4,79.9,309.7,79.2,308.8,79.2z"/>
		<path fill="#CC003D" d="M315.9,83.5c0,0.8,0.9,1.1,1.7,1.1c0.7,0,1.6-0.2,1.6-0.8c0-1.6-5.2-0.2-5.2-3.5c0-1.7,1.7-2.6,3.6-2.6
			h0.3c1.7,0,3.3,0.9,3.3,2.2c0,0.2,0,0.3,0,0.4h-2c0-0.7-0.6-1-1.5-1c-0.9,0-1.5,0.3-1.5,0.7c0,1.5,5.2,0,5.2,3.4
			c0,2.1-1.7,2.8-3.6,2.8h-0.5c-2,0-3.4-1-3.4-2.4c0-0.2,0-0.3,0-0.3h2V83.5z"/>
		<path fill="#CC003D" d="M323.1,77.8h2.3V86h-2.3V77.8z M324.6,74.5h2.1l0,0l-1.9,2.3h-1.6L324.6,74.5z"/>
		<path fill="#CC003D" d="M331.1,84.5c1,0,1.6-0.6,1.6-1.8h2.2c0,2.4-1.7,3.4-3.5,3.4h-0.3c-2.4,0-3.9-1.5-3.9-4v-0.5
			c0-2.5,1.6-4,3.9-4h0.3c1.9,0,3.5,1.2,3.5,3.4h-2.3c0-1.1-0.5-1.8-1.5-1.8c-1,0-1.6,0.9-1.6,2v1.4
			C329.5,83.7,330.1,84.5,331.1,84.5z"/>
		<path fill="#CC003D" d="M338.9,78.6c0.5-0.5,1.2-1,2.3-1c1.6,0,2.9,0.8,2.9,2.6V86h-2.3v-5.2c0-0.8-0.5-1.4-1.3-1.4
			c-0.8,0-1.5,0.7-1.5,1.6v5h-2.3V74.5h2.3V78.6z"/>
		<path fill="#CC003D" d="M355,85c-0.5,0.7-1.2,1.2-2.3,1.2c-1.9,0-3.4-1.3-3.4-4.2v-0.2c0-2.7,1.4-4.1,3.2-4.1
			c1.1,0,1.9,0.6,2.3,1.1v-4.3h2.3V86h-1.8L355,85z M353.2,84.5c0.9,0,1.5-0.6,1.5-1.9v-1.3c0-1.3-0.7-1.9-1.5-1.9s-1.5,0.6-1.5,1.9
			v1.3C351.7,83.9,352.4,84.5,353.2,84.5z"/>
		<path fill="#CC003D" d="M362.8,79.2c-0.9,0-1.4,0.6-1.4,0.9v0.1h-2.3c0-0.1,0-0.2,0-0.3c0-1.4,1.5-2.4,3.6-2.4h0.3
			c2.4,0,3.5,1,3.5,2.5V84c0,0.4,0.2,0.6,0.5,0.6c0.2,0,0.6-0.1,0.7-0.2v1.4c-0.1,0.1-0.6,0.3-1.4,0.3c-1.2,0-1.8-0.5-1.9-1.4
			c-0.6,0.7-1.4,1.4-2.8,1.4s-2.8-0.3-2.8-2.4c0-2.4,2.1-2.8,5.4-2.8v-0.5C364.2,79.8,363.9,79.2,362.8,79.2z M361.2,83.6
			c0,0.7,0.4,1,1.2,1c0.8,0,1.8-0.7,1.8-1.8v-0.4C362.3,82.3,361.2,82.7,361.2,83.6z M363.6,74.5h2.1l0,0l-1.9,2.3h-1.6L363.6,74.5z
			"/>
		<path fill="#CC003D" d="M373.4,80.6c0-0.6-0.3-1.2-1.1-1.2c-0.8,0-1.2,0.7-1.2,1.5V86h-2.3v-8.2h1.7l0.3,1.2
			c0.1-0.2,0.8-1.4,2.3-1.4c1.5,0,2.3,1.1,2.3,2.5c0,0.3-0.1,0.8-0.1,0.8h-2V80.6z"/>
		<path fill="#CC003D" d="M380.1,84.5c1,0,1.6-0.6,1.6-1.8h2.2c0,2.4-1.7,3.4-3.5,3.4h-0.3c-2.4,0-3.9-1.5-3.9-4v-0.5
			c0-2.5,1.6-4,3.9-4h0.3c1.9,0,3.5,1.2,3.5,3.4h-2.3c0-1.1-0.5-1.8-1.5-1.8c-1,0-1.6,0.9-1.6,2v1.4
			C378.6,83.7,379.2,84.5,380.1,84.5z"/>
		<path fill="#CC003D" d="M393.6,84.5c0.2,0,0.6-0.1,0.7-0.2v1.4c-0.1,0.1-0.6,0.3-1.4,0.3c-1.1,0-1.7-0.4-1.9-1.2
			c-0.5,0.6-1.3,1.2-2.5,1.2c-1.6,0-2.9-0.8-2.9-2.6v-5.7h2.3V83c0,0.8,0.5,1.4,1.3,1.4c0.8,0,1.5-0.7,1.5-1.6v-5h2.3v6.3
			C393.1,84.4,393.4,84.5,393.6,84.5z M389.5,74c0.9,0,1.6,0.7,1.6,1.6s-0.7,1.6-1.6,1.6c-0.9,0-1.6-0.7-1.6-1.6S388.6,74,389.5,74z
			 M389.5,76.4c0.4,0,0.7-0.3,0.7-0.7s-0.3-0.7-0.7-0.7c-0.4,0-0.7,0.3-0.7,0.7S389.1,76.4,389.5,76.4z"/>
		<path fill="#CC003D" d="M402.2,83.3l-0.9,0.9V86H399V74.5h2.3v7.2l2.9-3.8h2.6l-3,3.8L407,86h-2.8L402.2,83.3z"/>
		<path fill="#CC003D" d="M412.6,80.6c0-0.6-0.3-1.2-1.1-1.2c-0.8,0-1.2,0.7-1.2,1.5V86H408v-8.2h1.7L410,79
			c0.1-0.2,0.8-1.4,2.3-1.4c1.5,0,2.3,1.1,2.3,2.5c0,0.3-0.1,0.8-0.1,0.8h-2V80.6z"/>
		<path fill="#CC003D" d="M417.7,86l-2.9-8.2h2.5l1.8,5.5h0.1l1.8-5.5h2.3l-2.9,8.2H417.7z"/>
		<path fill="#CC003D" d="M428.3,86.1H428c-2.3,0-4-1.5-4-4v-0.5c0-2.5,1.8-4,4-4h0.3c2,0,3.7,1.2,3.7,3.4v1.2h-5.6v0.4
			c0,1,0.6,1.9,1.8,1.9c1,0,1.6-0.5,1.6-1.6h2.2C432,85.2,430.2,86.1,428.3,86.1z M426.4,81h3.2c0-1-0.4-1.8-1.6-1.8
			C427.1,79.2,426.5,80,426.4,81z"/>
	</g>
	<g>
		<circle fill="#CC003D" cx="66.1" cy="52.5" r="2.8"/>
		<circle fill="#CC003D" cx="33.8" cy="10.3" r="2.8"/>
		<path fill="#CC003D" d="M103.1,83.6L95.7,73c-0.3-0.4-0.8-0.6-1.3-0.4c-0.5,0.1-0.8,0.6-0.8,1.1c0,5.2-4.3,9.5-9.5,9.5H22.3
			c-5.2,0-9.5-4.3-9.5-9.5v-24l0.5-0.4c0.1,0,0.1-0.1,0.2-0.1c1.6-1.1,3-2.5,4.1-4.1c0.2-0.3,0.4-0.7,0.5-1.1H74
			c12.1,0,21.9-9.8,21.9-21.9V3.5c0-1.9-1.6-3.5-3.5-3.5H24.6c-7.7,0-14,6.3-14.1,14c0,0,0,0,0,0v0.1c0,0.4,0.2,0.8,0.6,1l8.9,9.4
			c0,0.1,0.1,0.1,0.1,0.2c1.1,1,1.6,2.3,1.4,3.8c-0.2,2-1.9,3.7-3.9,3.9c-1.3,0.1-2.5-0.3-3.5-1.1c-0.9-0.8-1.5-2-1.5-3.3
			c0-0.6-0.5-1.1-1.1-1.1c-0.6,0-1,0.4-1.1,0.9c-0.1,0.1-0.2,0.1-0.3,0.2L0.2,42.3c-0.4,0.5-0.2,1.2,0.3,1.6
			c0.2,0.1,0.4,0.2,0.7,0.2c0.4,0,0.7-0.2,0.9-0.5l9.1-12.9c0.4,0.8,0.9,1.6,1.6,2.2c1.4,1.3,3.3,1.9,5.2,1.7
			c3.1-0.3,5.6-2.8,5.9-5.9c0.2-2.1-0.5-4.2-2.1-5.6c0,0,0,0,0,0l-9-9.5c0.3-6.3,5.5-11.3,11.8-11.3H89c0.1,1.5,0.9,2.9,2.1,3.7
			c0.4,0.3,0.9,0.6,1.4,0.8l1.2,0.6v14.5c0,10.8-8.8,19.6-19.6,19.6H14.3c-2.1,0-3.8,1.7-3.8,3.8v28.3c0,6.5,5.3,11.8,11.8,11.8
			h61.9c5.4,0,10-3.7,11.4-8.7l5.8,8.2c0.2,0.3,0.6,0.5,0.9,0.5c0.2,0,0.5-0.1,0.7-0.2C103.4,84.8,103.5,84.1,103.1,83.6z"/>
	</g>
	<g>
		<g>
			<path fill="#CC003D" d="M143.8,65c-3.3,0-5.6-2.4-5.6-6.7v-0.4c0-4.3,2.3-6.7,5.6-6.7c2.9,0,5.2,1.9,5.2,5.4h-1.3
				c0-2.8-1.8-4.2-3.9-4.2c-2.4,0-4.2,1.7-4.2,5.4v0.7c0,3.6,1.9,5.4,4.3,5.4c2.1,0,3.9-1.3,3.9-4.2h1.3C149,63,146.7,65,143.8,65z
				 M141,45.9l2.7,2.5l2.7-2.5h1.6l-3.5,3.8H143l-3.5-3.8H141z"/>
			<path fill="#CC003D" d="M158,65c-3.3,0-5.6-2.4-5.6-6.7v-0.4c0-4.3,2.3-6.7,5.6-6.7c2.9,0,5.2,1.9,5.2,5.4v1.7h-9.4v0.2
				c0,3.6,1.9,5.4,4.3,5.4c2.1,0,3.9-1.3,3.9-4h1.3C163.2,63.1,160.9,65,158,65z M153.8,57h8.1v-0.5c0-2.8-1.8-4.2-3.9-4.2
				C155.7,52.3,154,53.9,153.8,57z"/>
			<path fill="#CC003D" d="M175.7,55.7c0-1.4-0.7-3.4-3.3-3.4c-2.6,0-3.4,2.5-3.4,3.9v8.5h-1.3V51.4h0.9l0.3,2c0,0,0.9-2.2,3.8-2.2
				c2.9,0,4.3,2.1,4.3,4.4c0,0.4-0.1,0.6-0.1,0.6h-1.2V55.7z"/>
			<path fill="#CC003D" d="M184.1,64.7l-5.4-13.3h1.4l4.6,11.4h0.1l4.6-11.4h1.3l-5.4,13.3H184.1z"/>
			<path fill="#CC003D" d="M198.6,65c-3.3,0-5.6-2.4-5.6-6.7v-0.4c0-4.3,2.3-6.7,5.6-6.7c2.9,0,5.2,1.9,5.2,5.4v1.7h-9.4v0.2
				c0,3.6,1.9,5.4,4.3,5.4c2.1,0,3.9-1.3,3.9-4h1.3C203.8,63.1,201.5,65,198.6,65z M194.4,57h8.1v-0.5c0-2.8-1.8-4.2-3.9-4.2
				C196.4,52.3,194.6,53.9,194.4,57z"/>
			<path fill="#CC003D" d="M217.6,56.5c0-2.9-1.4-4.2-3.8-4.2c-2.3,0-4.1,1.8-4.1,4.2v8.2h-1.3V51.4h0.9l0.3,2
				c0.9-1.4,2.6-2.2,4.4-2.2c2.8,0,4.9,1.5,4.9,5v8.6h-1.3V56.5z"/>
			<path fill="#CC003D" d="M234.1,63.8c0.4,0,0.9-0.2,1.3-0.4v1.1c-0.5,0.3-1,0.5-1.7,0.5c-1.3,0-1.7-1.1-1.7-2.6
				c-1.1,1.8-2.7,2.6-4.9,2.6c-2.1,0-4.2-0.8-4.2-3.7c0-3.9,3.8-4.3,9.1-4.3v-1.7c0-2.3-1-3-3.5-3c-2.1,0-3.8,0.8-3.8,2.7v0.4h-1.3
				c0-0.2-0.1-0.4-0.1-0.7c0-2.3,2.3-3.7,5.1-3.7c3.2,0,4.8,1.3,4.8,3.9v7.9C233.4,63.5,233.7,63.8,234.1,63.8z M224.3,61.3
				c0,1.7,0.9,2.5,3.1,2.5c2.2,0,4.6-1.5,4.6-4.7v-0.9C227.3,58.2,224.3,58.4,224.3,61.3z M230.8,45.9h1.7V46l-2.9,3.7h-1.3
				L230.8,45.9z"/>
			<path fill="#CC003D" d="M248.6,65c-1.5,0-2.7-0.9-2.7-2.9v-9.5h-1.5v-1.2h1.5l0.5-4.3h0.9v4.3h3.1v1.2h-3.1V62
				c0,1.5,0.8,1.7,1.5,1.7c0.4,0,1.2-0.2,1.6-0.4v1.2C249.9,64.8,249.2,65,248.6,65z"/>
			<path fill="#CC003D" d="M254.6,45.9h1.3v18.8h-1.3V45.9z"/>
			<path fill="#CC003D" d="M271.7,63.8c0.4,0,0.9-0.2,1.3-0.4v1.1c-0.5,0.3-1,0.5-1.7,0.5c-1.3,0-1.7-1.1-1.7-2.6
				c-1.1,1.8-2.7,2.6-4.9,2.6c-2.1,0-4.2-0.8-4.2-3.7c0-3.9,3.8-4.3,9.1-4.3v-1.7c0-2.3-1-3-3.5-3c-2.1,0-3.8,0.8-3.8,2.7v0.4h-1.3
				c0-0.2-0.1-0.4-0.1-0.7c0-2.3,2.3-3.7,5.1-3.7c3.2,0,4.8,1.3,4.8,3.9v7.9C271,63.5,271.3,63.8,271.7,63.8z M261.9,61.3
				c0,1.7,0.9,2.5,3.1,2.5c2.2,0,4.6-1.5,4.6-4.7v-0.9C265,58.2,261.9,58.4,261.9,61.3z"/>
			<path fill="#CC003D" d="M282.4,51.1c2.9,0,5.3,2.1,5.3,7v0.3c0,4.2-2.4,6.5-5.3,6.5c-1.9,0-3.4-0.8-4.3-2.1v6.6h-1.3V51.4h0.9
				l0.3,2C279,51.9,280.4,51.1,282.4,51.1z M282.2,63.8c2.3,0,4.1-1.6,4.1-5.4v-0.3c0-4.3-1.8-5.8-4.1-5.8c-2.2,0-4.1,1.4-4.1,5.8
				v0.3C278.1,62.2,280,63.8,282.2,63.8z"/>
			<path fill="#CC003D" d="M293.3,61.4v3.3H292V45.9h1.3v13.9l7.6-8.5h1.6l-5.6,6.3l6.1,7h-1.7l-5.2-6.1L293.3,61.4z"/>
			<path fill="#CC003D" d="M316,63.8c0.4,0,0.9-0.2,1.3-0.4v1.1c-0.5,0.3-1,0.5-1.7,0.5c-1.3,0-1.7-1.1-1.7-2.6
				c-1.1,1.8-2.7,2.6-4.9,2.6c-2.1,0-4.2-0.8-4.2-3.7c0-3.9,3.8-4.3,9.1-4.3v-1.7c0-2.3-1-3-3.5-3c-2.1,0-3.8,0.8-3.8,2.7v0.4h-1.3
				c0-0.2-0.1-0.4-0.1-0.7c0-2.3,2.3-3.7,5.1-3.7c3.2,0,4.8,1.3,4.8,3.9v7.9C315.3,63.5,315.6,63.8,316,63.8z M306.2,61.3
				c0,1.7,0.9,2.5,3.1,2.5c2.2,0,4.6-1.5,4.6-4.7v-0.9C309.2,58.2,306.2,58.4,306.2,61.3z"/>
		</g>
	</g>
</g>
<g id="poznamky">
</g>
</svg>
