<?xml version="1.0" encoding="utf-8"?>
<!-- Generator: Adobe Illustrator 18.0.0, SVG Export Plug-In . SVG Version: 6.00 Build 0)  -->
<!DOCTYPE svg PUBLIC "-//W3C//DTD SVG 1.1//EN" "http://www.w3.org/Graphics/SVG/1.1/DTD/svg11.dtd">
<svg version="1.1" xmlns="http://www.w3.org/2000/svg" xmlns:xlink="http://www.w3.org/1999/xlink" x="0px" y="0px"
	 viewBox="0 0 300.5 87.7" enable-background="new 0 0 300.5 87.7" xml:space="preserve">
<g id="Layer_1">
	<line fill="none" stroke="#27316A" stroke-width="3" stroke-miterlimit="10" x1="54.9" y1="42.3" x2="248.4" y2="42.3"/>
	<circle fill="#27316A" cx="256.5" cy="43.8" r="43.8"/>
	<circle fill="#27316A" cx="29.1" cy="42.3" r="29"/>
	<g>
		<path fill="#FFFFFF" d="M23.3,25.2v23.1h-5.8V31.1c-1.8,1.6-3.6,2.6-5.5,2.9l-0.6-5c1.2-0.1,2.5-0.6,4-1.4
			c1.5-0.8,2.5-1.6,3.1-2.5H23.3z"/>
		<path fill="#FFFFFF" d="M26.8,36.7c0-7.9,3.2-11.9,9.6-11.9s9.6,4,9.6,11.9s-3.2,11.9-9.6,11.9S26.8,44.7,26.8,36.7z M39.2,42.3
			c0.6-1.1,0.9-3,0.9-5.5s-0.3-4.4-0.9-5.5c-0.6-1.1-1.5-1.7-2.8-1.7s-2.2,0.6-2.8,1.7c-0.6,1.1-0.9,3-0.9,5.5s0.3,4.4,0.9,5.5
			c0.6,1.1,1.5,1.7,2.8,1.7S38.6,43.4,39.2,42.3z"/>
		<path fill="#FFFFFF" d="M24.6,59.3l-1.1,1.4v2.6H21V54h2.4v4.1l3.3-4.1h2.7l-3.1,3.8l3.3,5.5h-2.7L24.6,59.3z"/>
		<path fill="#FFFFFF" d="M36.4,62.7c-0.7,0.5-1.6,0.7-2.6,0.7c-0.9,0-1.7-0.2-2.4-0.6c-0.7-0.4-1.2-0.9-1.6-1.6
			c-0.4-0.7-0.5-1.6-0.5-2.6c0-1,0.2-1.8,0.5-2.5c0.4-0.7,0.9-1.3,1.6-1.6c0.7-0.4,1.5-0.6,2.4-0.6c1,0,1.9,0.2,2.6,0.6
			c0.7,0.4,1.2,1.1,1.4,1.9l-2.1,0.9c-0.1-0.6-0.3-1-0.6-1.2c-0.3-0.2-0.7-0.3-1.1-0.3c-0.7,0-1.2,0.2-1.6,0.7
			c-0.4,0.5-0.6,1.2-0.6,2.1c0,0.9,0.2,1.6,0.5,2.1c0.4,0.5,0.9,0.7,1.6,0.7c0.5,0,0.9-0.1,1.2-0.4c0.3-0.2,0.5-0.6,0.6-1.1l2.2,0.6
			C37.6,61.6,37.1,62.3,36.4,62.7z M34.8,53.2h-2.3L31,50.8h1.8l0.9,1.2l0.9-1.2h1.8L34.8,53.2z"/>
	</g>
	<circle fill="#9D9D9C" cx="132" cy="42.3" r="33.1"/>
	<g>
		<path fill="#FFFFFF" d="M112.8,44.6c3.9-2.4,6.7-4.6,8.5-6.5c1.7-1.9,2.6-3.6,2.6-5.3c0-0.9-0.3-1.7-0.8-2.3
			c-0.5-0.6-1.3-0.9-2.3-0.9c-1.1,0-2,0.4-2.6,1.2s-0.9,2-1,3.5l-5.1-1.6c0-2.5,0.9-4.4,2.6-5.8s3.8-2.1,6.5-2.1
			c1.9,0,3.6,0.4,4.9,1.1c1.3,0.7,2.3,1.6,2.9,2.7c0.6,1.1,0.9,2.3,0.9,3.6c0,2.2-0.8,4.2-2.4,6c-1.6,1.8-4.1,3.7-7.4,5.6v0
			c1.5-0.1,3.1-0.1,4.7-0.1h5.4v4.6h-17.3V44.6z"/>
		<path fill="#FFFFFF" d="M132.5,36.9c0-7.9,3.2-11.9,9.6-11.9s9.6,4,9.6,11.9s-3.2,11.9-9.6,11.9S132.5,44.8,132.5,36.9z
			 M144.9,42.4c0.6-1.1,0.9-3,0.9-5.5s-0.3-4.4-0.9-5.5c-0.6-1.1-1.5-1.7-2.8-1.7s-2.2,0.6-2.8,1.7c-0.6,1.1-0.9,3-0.9,5.5
			s0.3,4.4,0.9,5.5c0.6,1.1,1.5,1.7,2.8,1.7S144.3,43.5,144.9,42.4z"/>
		<path fill="#FFFFFF" d="M127.5,59.5l-1.1,1.4v2.6H124v-9.2h2.4v4.1l3.3-4.1h2.7l-3.1,3.8l3.3,5.5h-2.7L127.5,59.5z"/>
		<path fill="#FFFFFF" d="M139.3,62.9c-0.7,0.5-1.6,0.7-2.6,0.7c-0.9,0-1.7-0.2-2.4-0.6s-1.2-0.9-1.6-1.6c-0.4-0.7-0.5-1.6-0.5-2.6
			c0-1,0.2-1.8,0.5-2.5c0.4-0.7,0.9-1.3,1.6-1.6c0.7-0.4,1.5-0.6,2.4-0.6c1,0,1.9,0.2,2.6,0.6c0.7,0.4,1.2,1.1,1.4,1.9l-2.1,0.9
			c-0.1-0.6-0.3-1-0.6-1.2c-0.3-0.2-0.7-0.3-1.1-0.3c-0.7,0-1.2,0.2-1.6,0.7s-0.6,1.2-0.6,2.1c0,0.9,0.2,1.6,0.5,2.1
			c0.4,0.5,0.9,0.7,1.6,0.7c0.5,0,0.9-0.1,1.2-0.4c0.3-0.2,0.5-0.6,0.6-1.1l2.2,0.6C140.5,61.7,140.1,62.4,139.3,62.9z M137.8,53.3
			h-2.3l-1.6-2.3h1.8l0.9,1.2l0.9-1.2h1.8L137.8,53.3z"/>
	</g>
	<rect x="222.2" y="28" fill="none" stroke="#FFFFFF" stroke-width="3" stroke-miterlimit="10" width="56.7" height="22"/>
	<polyline fill="none" stroke="#FFFFFF" stroke-width="3" stroke-miterlimit="10" points="224.4,54.6 283.2,54.6 283.2,30.1 	"/>
	<polyline fill="none" stroke="#FFFFFF" stroke-width="3" stroke-miterlimit="10" points="229.9,58.9 287.5,58.9 287.5,35.1 	"/>
</g>
<g id="poznamky">
</g>
</svg>
