<?xml version="1.0" encoding="utf-8"?>
<!-- Generator: Adobe Illustrator 18.0.0, SVG Export Plug-In . SVG Version: 6.00 Build 0)  -->
<!DOCTYPE svg PUBLIC "-//W3C//DTD SVG 1.1//EN" "http://www.w3.org/Graphics/SVG/1.1/DTD/svg11.dtd">
<svg version="1.1" xmlns="http://www.w3.org/2000/svg" xmlns:xlink="http://www.w3.org/1999/xlink" x="0px" y="0px"
	 viewBox="0 0 178.5 178.5" enable-background="new 0 0 178.5 178.5" xml:space="preserve">
<g id="Layer_1">
	<circle fill="#27316A" cx="89.3" cy="89.3" r="89.3"/>
	<g>
		<path fill="#FFFFFF" d="M37.1,69.3c0.8-1.1,2-1.9,3.7-1.9c3,0,5.5,2.2,5.5,6.8v0.3c0,4.4-2.3,6.7-5.1,6.7c-1.8,0-3.1-0.9-3.7-1.8
			v6.2h-3.8v-18h3L37.1,69.3z M40,70c-1.4,0-2.5,1-2.5,3.1v2.2c0,2.1,1.1,3.1,2.5,3.1c1.4,0,2.5-1,2.5-3.1v-2.2
			C42.5,71,41.4,70,40,70z"/>
		<path fill="#FFFFFF" d="M55.5,81.2h-0.4c-3.7,0-6.5-2.4-6.5-6.5v-0.8c0-4.1,2.8-6.5,6.5-6.5h0.4c3.7,0,6.5,2.4,6.5,6.5v0.8
			C62,78.8,59.2,81.2,55.5,81.2z M55.3,70c-1.6,0-2.9,1.1-2.9,3.3v2.1c0,2.2,1.2,3.3,2.9,3.3s2.9-1.1,2.9-3.3v-2.1
			C58.1,71,56.9,70,55.3,70z"/>
		<path fill="#FFFFFF" d="M69.2,81.2c-2.5,0-4-1-4-3.7v-7.2h-1.5v-2.6h1.6l1.3-4.2h2.3v4.2H72v2.6h-3.1v6.6c0,1.5,0.8,1.8,1.5,1.8
			c0.4,0,1.2-0.2,1.6-0.3v2.4C71.3,81,70,81.2,69.2,81.2z"/>
		<path fill="#FFFFFF" d="M74.9,62.2l2.2,2.2l2.2-2.2H82c-1.2,1.2-2.4,2.5-3.6,3.8h-2.7l-3.6-3.8H74.9z M81.9,72.2
			c0-0.9-0.4-2-1.8-2c-1.3,0-1.9,1.2-1.9,2.5v8.2h-3.7V67.6h2.8l0.5,1.9c0.1-0.3,1.2-2.2,3.7-2.2c2.5,0,3.7,1.7,3.7,4.1
			c0,0.4-0.1,1.3-0.1,1.3h-3.2V72.2z"/>
		<path fill="#FFFFFF" d="M93.5,81.2h-0.4c-3.7,0-6.5-2.4-6.5-6.5v-0.8c0-4.1,2.9-6.5,6.5-6.5h0.4c3.2,0,6,2,6,5.6v2h-9.1v0.6
			c0,1.7,1,3,2.9,3c1.6,0,2.6-0.9,2.6-2.6h3.6C99.5,79.6,96.6,81.2,93.5,81.2z M90.4,72.8h5.3c0-1.6-0.7-2.9-2.6-2.9
			C91.5,70,90.6,71.2,90.4,72.8z"/>
		<path fill="#FFFFFF" d="M109.9,67.4c2.8,0,5.1,2.2,5.1,6.7v0.3c0,4.7-2.5,6.8-5.5,6.8c-1.9,0-3.4-0.8-4.4-2.3
			c-0.4,0.7-0.9,1.4-1.3,2h-1.4V62.2h3.8v7C106.8,68.3,108.1,67.4,109.9,67.4z M108.7,70.1c-1.4,0-2.5,1-2.5,3.1v2.2
			c0,2.1,1.1,3.1,2.5,3.1c1.4,0,2.5-1,2.5-3.1v-2.2C111.2,71.2,110.1,70.1,108.7,70.1z"/>
		<path fill="#FFFFFF" d="M130.7,78.6c0.4,0,0.9-0.2,1.1-0.3v2.3c-0.2,0.1-1,0.5-2.3,0.5c-1.8,0-2.8-0.7-3-1.9c-0.9,1-2.1,1.9-4,1.9
			c-2.5,0-4.7-1.4-4.7-4.3v-9.3h3.8v8.5c0,1.4,0.9,2.3,2.1,2.3c1.3,0,2.5-1.1,2.5-2.6v-8.2h3.8v10.2
			C129.9,78.4,130.3,78.6,130.7,78.6z"/>
		<path fill="#FFFFFF" d="M137.6,67.7v13.8c0,2.9-1.4,4.3-4,4.3c-0.8,0-2.1-0.2-2.8-0.5v-2.4c0.4,0.2,1.2,0.3,1.6,0.3
			c0.7,0,1.5-0.2,1.5-1.8V67.7H137.6z M137.6,62.2v3h-3.8v-3H137.6z"/>
		<path fill="#FFFFFF" d="M144.8,62.2v3H141v-3H144.8z M141,67.6h3.8v13.3H141V67.6z"/>
		<path fill="#FFFFFF" d="M39,109.2c-2.5,0-4-1-4-3.7v-7.2h-1.5v-2.6h1.6l1.3-4.2h2.3v4.2h3.1v2.6h-3.1v6.6c0,1.5,0.8,1.8,1.5,1.8
			c0.4,0,1.2-0.2,1.6-0.3v2.4C41.1,109,39.8,109.2,39,109.2z"/>
		<path fill="#FFFFFF" d="M51.8,100.2c0-0.9-0.4-2-1.8-2c-1.3,0-1.9,1.2-1.9,2.5v8.2h-3.7V95.6h2.8l0.5,1.9c0.1-0.3,1.2-2.2,3.7-2.2
			c2.5,0,3.7,1.7,3.7,4.1c0,0.4-0.1,1.3-0.1,1.3h-3.2V100.2z"/>
		<path fill="#FFFFFF" d="M62.8,98c-1.5,0-2.3,0.9-2.3,1.5v0.2h-3.7c0-0.2-0.1-0.3-0.1-0.5c0-2.2,2.4-3.9,5.9-3.9h0.5
			c3.8,0,5.7,1.7,5.7,4.1v6.1c0,0.7,0.4,0.9,0.8,0.9c0.4,0,0.9-0.2,1.1-0.3v2.3c-0.2,0.1-1,0.5-2.3,0.5c-2,0-2.9-0.9-3.1-2.2
			c-0.9,1.1-2.3,2.2-4.5,2.2s-4.5-0.5-4.5-3.9c0-3.8,3.5-4.5,8.8-4.5v-0.9C65.1,98.8,64.5,98,62.8,98z M60.3,105
			c0,1.2,0.7,1.6,2,1.6c1.3,0,2.9-1.1,2.9-2.9V103C61.9,103,60.3,103.5,60.3,105z"/>
		<path fill="#FFFFFF" d="M75.8,97.6c0.8-1.1,2.2-2.2,4.2-2.2c2.5,0,4.7,1.4,4.7,4.3v9.3h-3.8v-8.5c0-1.4-0.9-2.3-2.1-2.3
			c-1.3,0-2.5,1.1-2.5,2.6v8.2h-3.8V95.6h2.8L75.8,97.6z"/>
		<path fill="#FFFFFF" d="M90.5,104.9c0,1.3,1.4,1.7,2.8,1.7c1.1,0,2.7-0.3,2.7-1.3c0-2.6-8.4-0.3-8.4-5.7c0-2.8,2.8-4.2,5.8-4.2
			h0.5c2.7,0,5.4,1.4,5.4,3.6c0,0.3-0.1,0.5-0.1,0.6h-3.3c0-1.1-0.9-1.6-2.4-1.6C92,98,91,98.4,91,99.1c0,2.4,8.5,0.1,8.5,5.6
			c0,3.4-2.8,4.5-5.9,4.5h-0.9c-3.3,0-5.6-1.6-5.6-4c0-0.3,0-0.4,0-0.5h3.3V104.9z"/>
		<path fill="#FFFFFF" d="M107.9,92.6c-0.6,0-1.5,0.2-1.5,1.6v1.5h3.1v2.6h-3.1v10.7h-3.8V98.2H101v-2.6h1.6v-1.7
			c0-2.8,1.5-3.9,4-3.9c0.8,0,2.2,0.2,2.9,0.5v2.3C109.1,92.7,108.3,92.6,107.9,92.6z"/>
		<path fill="#FFFFFF" d="M124.4,106.6c0.4,0,0.9-0.2,1.1-0.3v2.3c-0.2,0.1-1,0.5-2.3,0.5c-1.8,0-2.8-0.7-3-1.9
			c-0.9,1-2.1,1.9-4,1.9c-2.5,0-4.7-1.4-4.7-4.3v-9.3h3.8v8.5c0,1.4,0.9,2.3,2.1,2.3c1.3,0,2.5-1.1,2.5-2.6v-8.2h3.8v10.2
			C123.6,106.4,124,106.6,124.4,106.6z"/>
		<path fill="#FFFFFF" d="M126.7,107.6l5.7-9.4H127v-2.6h10.3v1.3l-5.7,9.4h5.9v2.6h-10.9V107.6z"/>
		<path fill="#FFFFFF" d="M143.9,90.2v3H140v-3H143.9z M140.1,95.6h3.8v13.3h-3.8V95.6z"/>
	</g>
</g>
<g id="poznamky">
</g>
</svg>
