<?xml version="1.0" encoding="utf-8"?>
<!-- Generator: Adobe Illustrator 18.0.0, SVG Export Plug-In . SVG Version: 6.00 Build 0)  -->
<!DOCTYPE svg PUBLIC "-//W3C//DTD SVG 1.1//EN" "http://www.w3.org/Graphics/SVG/1.1/DTD/svg11.dtd">
<svg version="1.1" xmlns="http://www.w3.org/2000/svg" xmlns:xlink="http://www.w3.org/1999/xlink" x="0px" y="0px"
	 viewBox="0 0 140 141" enable-background="new 0 0 140 141" xml:space="preserve">
<g id="Layer_1">
	<circle fill="#27316A" cx="70.8" cy="71" r="70"/>
	<g>
		<path fill="#FFFFFF" d="M24.8,54.3c0.7-1,1.8-1.7,3.3-1.7c2.7,0,4.9,1.9,4.9,6v0.3c0,3.9-2,5.9-4.5,5.9c-1.6,0-2.7-0.8-3.3-1.6
			v5.5h-3.4V52.8h2.6L24.8,54.3z M27.4,54.9c-1.2,0-2.2,0.9-2.2,2.8v1.9c0,1.9,1,2.8,2.2,2.8c1.2,0,2.2-0.9,2.2-2.8v-1.9
			C29.6,55.8,28.6,54.9,27.4,54.9z"/>
		<path fill="#FFFFFF" d="M41.1,64.8h-0.4c-3.2,0-5.7-2.1-5.7-5.8v-0.7c0-3.7,2.5-5.8,5.7-5.8h0.4c3.2,0,5.7,2.1,5.7,5.8v0.7
			C46.8,62.7,44.3,64.8,41.1,64.8z M40.9,54.9c-1.4,0-2.5,0.9-2.5,2.9v1.9c0,1.9,1.1,2.9,2.5,2.9s2.5-0.9,2.5-2.9v-1.9
			C43.4,55.9,42.3,54.9,40.9,54.9z"/>
		<path fill="#FFFFFF" d="M53.2,64.8c-2.3,0-3.6-0.9-3.6-3.3v-6.4h-1.3v-2.3h1.4l1.2-3.7H53v3.7h2.7v2.3H53V61
			c0,1.4,0.7,1.6,1.3,1.6c0.3,0,1.1-0.1,1.4-0.3v2.2C55.1,64.6,53.9,64.8,53.2,64.8z"/>
		<path fill="#FFFFFF" d="M58.2,48l2,1.9l1.9-1.9h2.4c-1.1,1.1-2.1,2.2-3.2,3.3H59L55.8,48H58.2z M64.5,56.9c0-0.8-0.4-1.7-1.6-1.7
			c-1.1,0-1.7,1-1.7,2.2v7.3h-3.3V52.8h2.5l0.4,1.7c0.1-0.3,1.1-2,3.3-2c2.2,0,3.3,1.5,3.3,3.6c0,0.4-0.1,1.2-0.1,1.2h-2.8V56.9z"/>
		<path fill="#FFFFFF" d="M74.7,64.8h-0.4c-3.3,0-5.7-2.1-5.7-5.8v-0.7c0-3.7,2.5-5.8,5.7-5.8h0.4c2.8,0,5.3,1.8,5.3,4.9v1.7h-8v0.6
			c0,1.5,0.9,2.7,2.5,2.7c1.4,0,2.3-0.8,2.3-2.3H80C80,63.5,77.4,64.8,74.7,64.8z M72,57.4h4.6c0-1.4-0.6-2.5-2.3-2.5
			C73,54.9,72.1,56,72,57.4z"/>
		<path fill="#FFFFFF" d="M89.2,52.6c2.5,0,4.5,2,4.5,5.9v0.3c0,4.1-2.2,6-4.9,6c-1.7,0-3-0.7-3.9-2c-0.4,0.6-0.8,1.2-1.2,1.8h-1.2
			V48h3.4v6.2C86.5,53.4,87.6,52.6,89.2,52.6z M88.1,55.1c-1.2,0-2.2,0.9-2.2,2.8v1.9c0,1.9,1,2.8,2.2,2.8c1.2,0,2.2-0.9,2.2-2.8
			v-1.9C90.3,56,89.3,55.1,88.1,55.1z"/>
		<path fill="#FFFFFF" d="M107.6,62.5c0.3,0,0.8-0.2,0.9-0.3v2.1c-0.2,0.1-0.9,0.5-2,0.5c-1.6,0-2.4-0.6-2.7-1.7
			c-0.8,0.9-1.9,1.7-3.5,1.7c-2.3,0-4.1-1.2-4.1-3.8v-8.2h3.4v7.5c0,1.2,0.8,2.1,1.8,2.1c1.2,0,2.2-1,2.2-2.3v-7.2h3.4v9
			C106.9,62.3,107.3,62.5,107.6,62.5z"/>
		<path fill="#FFFFFF" d="M113.7,52.9v12.2c0,2.6-1.2,3.8-3.5,3.8c-0.7,0-1.9-0.2-2.5-0.5v-2.1c0.3,0.2,1.1,0.3,1.4,0.3
			c0.6,0,1.3-0.2,1.3-1.6V52.9H113.7z M113.7,48v2.6h-3.4V48H113.7z"/>
		<path fill="#FFFFFF" d="M120.1,48v2.6h-3.4V48H120.1z M116.7,52.8h3.4v11.8h-3.4V52.8z"/>
		<path fill="#FFFFFF" d="M26.5,89.8c-2.3,0-3.6-0.9-3.6-3.3v-6.4h-1.3v-2.3H23l1.2-3.7h2.1v3.7H29v2.3h-2.7V86
			c0,1.4,0.7,1.6,1.3,1.6c0.3,0,1.1-0.1,1.4-0.3v2.2C28.4,89.6,27.2,89.8,26.5,89.8z"/>
		<path fill="#FFFFFF" d="M37.8,81.9c0-0.8-0.4-1.7-1.6-1.7c-1.1,0-1.7,1-1.7,2.2v7.3h-3.3V77.8h2.5l0.4,1.7c0.1-0.3,1.1-2,3.3-2
			c2.2,0,3.3,1.5,3.3,3.6c0,0.4-0.1,1.2-0.1,1.2h-2.8V81.9z"/>
		<path fill="#FFFFFF" d="M47.5,79.9c-1.4,0-2,0.8-2,1.4v0.2h-3.2c0-0.1,0-0.3,0-0.4c0-2,2.1-3.4,5.2-3.4h0.5c3.4,0,5.1,1.5,5.1,3.7
			v5.4c0,0.6,0.3,0.8,0.7,0.8c0.3,0,0.8-0.2,0.9-0.3v2.1c-0.2,0.1-0.9,0.5-2,0.5c-1.7,0-2.6-0.8-2.7-2c-0.8,1-2.1,2-4,2
			s-4-0.5-4-3.4c0-3.4,3.1-4,7.8-4v-0.8C49.6,80.7,49.1,79.9,47.5,79.9z M45.3,86.2c0,1,0.6,1.4,1.7,1.4c1.2,0,2.6-1,2.6-2.6v-0.6
			C46.8,84.3,45.3,84.8,45.3,86.2z"/>
		<path fill="#FFFFFF" d="M59,79.6c0.7-1,1.9-2,3.7-2c2.3,0,4.1,1.2,4.1,3.8v8.2h-3.4v-7.5c0-1.2-0.8-2.1-1.8-2.1
			c-1.2,0-2.2,1-2.2,2.3v7.2h-3.4V77.8h2.5L59,79.6z"/>
		<path fill="#FFFFFF" d="M72,86c0,1.2,1.3,1.5,2.5,1.5c1,0,2.4-0.3,2.4-1.2c0-2.3-7.5-0.2-7.5-5c0-2.5,2.4-3.7,5.1-3.7H75
			c2.4,0,4.7,1.2,4.7,3.2c0,0.3,0,0.5,0,0.5h-2.9c0-1-0.8-1.4-2.1-1.4c-1.3,0-2.1,0.4-2.1,1c0,2.1,7.5,0,7.5,4.9c0,3-2.5,4-5.2,4H74
			c-2.9,0-4.9-1.4-4.9-3.5c0-0.2,0-0.4,0-0.5H72V86z"/>
		<path fill="#FFFFFF" d="M87.4,75.1c-0.6,0-1.3,0.1-1.3,1.4v1.3h2.7v2.3h-2.7v9.5h-3.4v-9.5h-1.4v-2.3h1.4v-1.5
			c0-2.4,1.3-3.4,3.5-3.4c0.7,0,1.9,0.2,2.6,0.5v2C88.5,75.3,87.7,75.1,87.4,75.1z"/>
		<path fill="#FFFFFF" d="M102,87.5c0.3,0,0.8-0.2,0.9-0.3v2.1c-0.2,0.1-0.9,0.5-2,0.5c-1.6,0-2.4-0.6-2.7-1.7
			c-0.8,0.9-1.9,1.7-3.5,1.7c-2.3,0-4.1-1.2-4.1-3.8v-8.2H94v7.5c0,1.2,0.8,2.1,1.8,2.1c1.2,0,2.2-1,2.2-2.3v-7.2h3.4v9
			C101.3,87.3,101.7,87.5,102,87.5z"/>
		<path fill="#FFFFFF" d="M104,88.5l5-8.3h-4.7v-2.3h9.2V79l-5,8.3h5.2v2.3H104V88.5z"/>
		<path fill="#FFFFFF" d="M119.3,73v2.6h-3.4V73H119.3z M115.9,77.8h3.4v11.8h-3.4V77.8z"/>
	</g>
</g>
<g id="poznamky" display="none">
</g>
</svg>
