<?xml version="1.0" encoding="utf-8"?>
<!-- Generator: Adobe Illustrator 18.0.0, SVG Export Plug-In . SVG Version: 6.00 Build 0)  -->
<!DOCTYPE svg PUBLIC "-//W3C//DTD SVG 1.1//EN" "http://www.w3.org/Graphics/SVG/1.1/DTD/svg11.dtd">
<svg version="1.1" xmlns="http://www.w3.org/2000/svg" xmlns:xlink="http://www.w3.org/1999/xlink" x="0px" y="0px"
	 viewBox="0 0 125.9 125.9" enable-background="new 0 0 125.9 125.9" xml:space="preserve">
<g id="Layer_1">
	<circle fill="#27316A" cx="62.9" cy="62.9" r="62.9"/>
	<g>
		<path fill="#FFFFFF" d="M46.4,39c1.4,0,2.3-0.8,2.3-2.6h3.2c0,3.4-2.4,4.9-5.1,4.9h-0.4c-3.4,0-5.6-2.1-5.6-5.8v-0.7
			c0-3.7,2.4-5.8,5.6-5.8h0.4c2.7,0,5.1,1.8,5.1,4.9h-3.3c0-1.5-0.7-2.6-2.1-2.6c-1.4,0-2.2,1.3-2.2,2.9v2C44.2,37.8,45,39,46.4,39z
			"/>
		<path fill="#FFFFFF" d="M57.7,30.4c0.7-0.8,1.8-1.4,3.3-1.4c2.3,0,4.1,1.2,4.1,3.8V41h-3.4v-7.5c0-1.2-0.8-2.1-1.8-2.1
			c-1.2,0-2.2,1-2.2,2.3V41h-3.4V24.5h3.4V30.4z"/>
		<path fill="#FFFFFF" d="M73.2,39c1.4,0,2.3-0.8,2.3-2.6h3.2c0,3.4-2.4,4.9-5.1,4.9h-0.4c-3.4,0-5.6-2.1-5.6-5.8v-0.7
			c0-3.7,2.4-5.8,5.6-5.8h0.4c2.7,0,5.1,1.8,5.1,4.9h-3.3c0-1.5-0.7-2.6-2.1-2.6c-1.4,0-2.2,1.3-2.2,2.9v2C71,37.8,71.8,39,73.2,39z
			"/>
		<path fill="#FFFFFF" d="M84.6,24.5v2.6h-3.4v-2.6H84.6z M81.2,29.3h3.4V41h-3.4V29.3z"/>
		<path fill="#FFFFFF" d="M29.5,62.4c0,1.2,1.3,1.5,2.5,1.5c1,0,2.4-0.3,2.4-1.2c0-2.3-7.5-0.2-7.5-5c0-2.5,2.4-3.7,5.1-3.7h0.5
			c2.4,0,4.7,1.2,4.7,3.2c0,0.3,0,0.5,0,0.5h-2.9c0-1-0.8-1.4-2.1-1.4c-1.3,0-2.1,0.4-2.1,1c0,2.1,7.5,0,7.5,4.9c0,3-2.5,4-5.2,4
			h-0.8c-2.9,0-4.9-1.4-4.9-3.5c0-0.2,0-0.4,0-0.5h2.9V62.4z"/>
		<path fill="#FFFFFF" d="M45.4,66.3H45c-3.3,0-5.7-2.1-5.7-5.8v-0.7c0-3.7,2.5-5.8,5.7-5.8h0.4c2.8,0,5.3,1.8,5.3,4.9v1.7h-8v0.6
			c0,1.5,0.9,2.7,2.5,2.7c1.4,0,2.3-0.8,2.3-2.3h3.2C50.7,64.9,48.1,66.3,45.4,66.3z M42.7,58.9h4.6c0-1.4-0.6-2.5-2.3-2.5
			C43.7,56.3,42.8,57.4,42.7,58.9z"/>
		<path fill="#FFFFFF" d="M60.4,62.4c0,1.2,1.3,1.5,2.5,1.5c1,0,2.4-0.3,2.4-1.2c0-2.3-7.5-0.2-7.5-5c0-2.5,2.4-3.7,5.1-3.7h0.5
			c2.4,0,4.7,1.2,4.7,3.2c0,0.3,0,0.5,0,0.5h-2.9c0-1-0.8-1.4-2.1-1.4c-1.3,0-2.1,0.4-2.1,1c0,2.1,7.5,0,7.5,4.9c0,3-2.5,4-5.2,4
			h-0.8c-2.9,0-4.9-1.4-4.9-3.5c0-0.2,0-0.4,0-0.5h2.9V62.4z"/>
		<path fill="#FFFFFF" d="M74.5,66.3c-2.3,0-3.6-0.8-3.6-3.3v-6.4h-1.3v-2.3h1.4l1.2-3.8h2.1v3.8h2.7v2.3h-2.7v5.8
			c0,1.4,0.7,1.6,1.3,1.6c0.3,0,1.1-0.1,1.4-0.3v2.2C76.4,66.1,75.3,66.3,74.5,66.3z"/>
		<path fill="#FFFFFF" d="M84.3,56.3c-1.4,0-2,0.8-2,1.4v0.2H79c0-0.1,0-0.3,0-0.4c0-2,2.1-3.4,5.2-3.4h0.5c3.4,0,5.1,1.5,5.1,3.7
			v5.4c0,0.6,0.3,0.8,0.7,0.8c0.3,0,0.8-0.2,0.9-0.3v2.1c-0.2,0.1-0.9,0.5-2,0.5c-1.7,0-2.6-0.8-2.7-2c-0.8,1-2.1,2-4,2
			s-4-0.5-4-3.4c0-3.4,3.1-4,7.8-4v-0.8C86.4,57.1,85.9,56.3,84.3,56.3z M82.1,62.6c0,1,0.6,1.4,1.7,1.4c1.2,0,2.6-1,2.6-2.6v-0.6
			C83.6,60.8,82.1,61.2,82.1,62.6z M85.5,49.5h3l0,0.1l-2.8,3.3h-2.3L85.5,49.5z"/>
		<path fill="#FFFFFF" d="M96.8,66.3c-2.3,0-3.6-0.8-3.6-3.3v-6.4H92v-2.3h1.4l1.2-3.8h2.1v3.8h2.7v2.3h-2.7v5.8
			c0,1.4,0.7,1.6,1.3,1.6c0.3,0,1.1-0.1,1.4-0.3v2.2C98.7,66.1,97.6,66.3,96.8,66.3z"/>
		<path fill="#FFFFFF" d="M29.5,89.6c-0.7,1-1.8,1.7-3.3,1.7c-2.7,0-4.9-1.9-4.9-6V85c0-3.9,2-5.9,4.5-5.9c1.6,0,2.7,0.8,3.3,1.6
			v-6.2h3.4V91h-2.6L29.5,89.6z M27,89c1.2,0,2.2-0.9,2.2-2.8v-1.9c0-1.9-1-2.8-2.2-2.8c-1.2,0-2.2,0.9-2.2,2.8v1.9
			C24.8,88,25.7,89,27,89z"/>
		<path fill="#FFFFFF" d="M40.7,81.3c-1.4,0-2,0.8-2,1.4v0.2h-3.2c0-0.1,0-0.3,0-0.4c0-2,2.1-3.4,5.2-3.4H41c3.4,0,5.1,1.5,5.1,3.7
			v5.4c0,0.6,0.3,0.8,0.7,0.8c0.3,0,0.8-0.2,0.9-0.3v2.1c-0.2,0.1-0.9,0.5-2,0.5c-1.7,0-2.6-0.8-2.7-2c-0.8,1-2.1,2-4,2
			s-4-0.5-4-3.4c0-3.4,3.1-4,7.8-4v-0.8C42.8,82.1,42.2,81.3,40.7,81.3z M38.4,87.6c0,1,0.6,1.4,1.7,1.4c1.2,0,2.6-1,2.6-2.6v-0.6
			C39.9,85.8,38.4,86.2,38.4,87.6z M41.8,74.5h3l0,0.1L42,77.8h-2.3L41.8,74.5z"/>
		<path fill="#FFFFFF" d="M55.9,83.3c0-0.8-0.4-1.7-1.6-1.7c-1.1,0-1.7,1-1.7,2.2V91h-3.3V79.3h2.5l0.4,1.7c0.1-0.3,1.1-2,3.3-2
			c2.2,0,3.3,1.5,3.3,3.6c0,0.4-0.1,1.2-0.1,1.2h-2.8V83.3z"/>
		<path fill="#FFFFFF" d="M65.6,89c1.4,0,2.3-0.8,2.3-2.6h3.2c0,3.4-2.4,4.9-5.1,4.9h-0.4c-3.4,0-5.6-2.1-5.6-5.8v-0.7
			c0-3.7,2.4-5.8,5.6-5.8H66c2.7,0,5.1,1.8,5.1,4.9h-3.3c0-1.5-0.7-2.6-2.1-2.6c-1.4,0-2.2,1.3-2.2,2.9v2C63.4,87.8,64.2,89,65.6,89
			z"/>
		<path fill="#FFFFFF" d="M79.2,91.3h-0.4c-3.3,0-5.7-2.1-5.7-5.8v-0.7c0-3.7,2.5-5.8,5.7-5.8h0.4c2.8,0,5.3,1.8,5.3,4.9v1.7h-8v0.6
			c0,1.5,0.9,2.7,2.5,2.7c1.4,0,2.3-0.8,2.3-2.3h3.2C84.5,89.9,81.9,91.3,79.2,91.3z M76.5,83.9h4.6c0-1.4-0.6-2.5-2.3-2.5
			C77.5,81.3,76.6,82.4,76.5,83.9z"/>
		<path fill="#FFFFFF" d="M96.8,80.9c0.9-1.3,2-1.9,3.4-1.9c2.1,0,3.8,1.3,3.8,3.8V91h-3.4v-7.5c0-1.3-0.6-2-1.6-2
			c-1.1,0-1.9,0.9-1.9,2.3V91h-3.4v-7.5c0-1.3-0.6-2-1.6-2c-1.1,0-1.9,0.9-1.9,2.3V91H87V79.3h2.5c0.1,0.6,0.3,1.1,0.4,1.7
			c0.9-1.3,2.1-2,3.4-2C94.9,79,96.1,79.7,96.8,80.9z"/>
	</g>
</g>
<g id="poznamky">
</g>
</svg>
