<?xml version="1.0" encoding="utf-8"?>
<!-- Generator: Adobe Illustrator 18.0.0, SVG Export Plug-In . SVG Version: 6.00 Build 0)  -->
<!DOCTYPE svg PUBLIC "-//W3C//DTD SVG 1.1//EN" "http://www.w3.org/Graphics/SVG/1.1/DTD/svg11.dtd">
<svg version="1.1" xmlns="http://www.w3.org/2000/svg" xmlns:xlink="http://www.w3.org/1999/xlink" x="0px" y="0px"
	 viewBox="0 0 140 141" enable-background="new 0 0 140 141" xml:space="preserve">
<g id="Layer_1">
	<circle fill="#27316A" cx="70.8" cy="71" r="70"/>
	<g>
		<path fill="#FFFFFF" d="M54.4,43.7c1.4,0,2.3-0.8,2.3-2.6h3.2c0,3.4-2.4,4.9-5.1,4.9h-0.4c-3.4,0-5.6-2.1-5.6-5.8v-0.7
			c0-3.7,2.4-5.8,5.6-5.8h0.4c2.7,0,5.1,1.8,5.1,4.9h-3.3c0-1.5-0.7-2.6-2.1-2.6c-1.4,0-2.2,1.3-2.2,2.9v2
			C52.2,42.5,53,43.7,54.4,43.7z"/>
		<path fill="#FFFFFF" d="M65.7,35.2c0.7-0.8,1.8-1.4,3.3-1.4c2.3,0,4.1,1.2,4.1,3.8v8.2h-3.4v-7.5c0-1.2-0.8-2.1-1.8-2.1
			c-1.2,0-2.2,1-2.2,2.3v7.2h-3.4V29.2h3.4V35.2z"/>
		<path fill="#FFFFFF" d="M81.2,43.7c1.4,0,2.3-0.8,2.3-2.6h3.2c0,3.4-2.4,4.9-5.1,4.9h-0.4c-3.4,0-5.6-2.1-5.6-5.8v-0.7
			c0-3.7,2.4-5.8,5.6-5.8h0.4c2.7,0,5.1,1.8,5.1,4.9h-3.3c0-1.5-0.7-2.6-2.1-2.6c-1.4,0-2.2,1.3-2.2,2.9v2
			C79,42.5,79.8,43.7,81.2,43.7z"/>
		<path fill="#FFFFFF" d="M92.5,29.2v2.6h-3.4v-2.6H92.5z M89.1,34h3.4v11.8h-3.4V34z"/>
		<path fill="#FFFFFF" d="M37.5,67.2c0,1.2,1.3,1.5,2.5,1.5c1,0,2.4-0.3,2.4-1.2c0-2.3-7.5-0.2-7.5-5c0-2.5,2.4-3.7,5.1-3.7h0.5
			c2.4,0,4.7,1.2,4.7,3.2c0,0.3,0,0.5,0,0.5h-2.9c0-1-0.8-1.4-2.1-1.4c-1.3,0-2.1,0.4-2.1,1c0,2.1,7.5,0,7.5,4.9c0,3-2.5,4-5.2,4
			h-0.8c-2.9,0-4.9-1.4-4.9-3.5c0-0.2,0-0.4,0-0.5h2.9V67.2z"/>
		<path fill="#FFFFFF" d="M53.3,71H53c-3.3,0-5.7-2.1-5.7-5.8v-0.7c0-3.7,2.5-5.8,5.7-5.8h0.4c2.8,0,5.3,1.8,5.3,4.9v1.7h-8V66
			c0,1.5,0.9,2.7,2.5,2.7c1.4,0,2.3-0.8,2.3-2.3h3.2C58.7,69.6,56.1,71,53.3,71z M50.6,63.6h4.6c0-1.4-0.6-2.5-2.3-2.5
			C51.6,61.1,50.7,62.2,50.6,63.6z"/>
		<path fill="#FFFFFF" d="M68.4,67.2c0,1.2,1.3,1.5,2.5,1.5c1,0,2.4-0.3,2.4-1.2c0-2.3-7.5-0.2-7.5-5c0-2.5,2.4-3.7,5.1-3.7h0.5
			c2.4,0,4.7,1.2,4.7,3.2c0,0.3,0,0.5,0,0.5h-2.9c0-1-0.8-1.4-2.1-1.4c-1.3,0-2.1,0.4-2.1,1c0,2.1,7.5,0,7.5,4.9c0,3-2.5,4-5.2,4
			h-0.8c-2.9,0-4.9-1.4-4.9-3.5c0-0.2,0-0.4,0-0.5h2.9V67.2z"/>
		<path fill="#FFFFFF" d="M82.5,71c-2.3,0-3.6-0.8-3.6-3.3v-6.4h-1.3V59H79l1.2-3.8h2.1V59H85v2.3h-2.7v5.8c0,1.4,0.7,1.6,1.3,1.6
			c0.3,0,1.1-0.1,1.4-0.3v2.2C84.4,70.8,83.2,71,82.5,71z"/>
		<path fill="#FFFFFF" d="M92.3,61.1c-1.4,0-2,0.8-2,1.4v0.2H87c0-0.1,0-0.3,0-0.4c0-2,2.1-3.4,5.2-3.4h0.5c3.4,0,5.1,1.5,5.1,3.7
			v5.4c0,0.6,0.3,0.8,0.7,0.8c0.3,0,0.8-0.2,0.9-0.3v2.1c-0.2,0.1-0.9,0.5-2,0.5c-1.7,0-2.6-0.8-2.7-2c-0.8,1-2.1,2-4,2
			s-4-0.5-4-3.4c0-3.4,3.1-4,7.8-4v-0.8C94.4,61.9,93.8,61.1,92.3,61.1z M90,67.3c0,1,0.6,1.4,1.7,1.4c1.2,0,2.6-1,2.6-2.6v-0.6
			C91.5,65.5,90,66,90,67.3z M93.4,54.2h3l0,0.1l-2.8,3.3h-2.3L93.4,54.2z"/>
		<path fill="#FFFFFF" d="M104.8,71c-2.3,0-3.6-0.8-3.6-3.3v-6.4h-1.3V59h1.4l1.2-3.8h2.1V59h2.7v2.3h-2.7v5.8
			c0,1.4,0.7,1.6,1.3,1.6c0.3,0,1.1-0.1,1.4-0.3v2.2C106.7,70.8,105.5,71,104.8,71z"/>
		<path fill="#FFFFFF" d="M37.5,94.3c-0.7,1-1.8,1.7-3.3,1.7c-2.7,0-4.9-1.9-4.9-6v-0.3c0-3.9,2-5.9,4.5-5.9c1.6,0,2.7,0.8,3.3,1.6
			v-6.2h3.4v16.6h-2.6L37.5,94.3z M34.9,93.7c1.2,0,2.2-0.9,2.2-2.8V89c0-1.9-1-2.8-2.2-2.8c-1.2,0-2.2,0.9-2.2,2.8v1.9
			C32.7,92.8,33.7,93.7,34.9,93.7z"/>
		<path fill="#FFFFFF" d="M48.6,86.1c-1.4,0-2,0.8-2,1.4v0.2h-3.2c0-0.1,0-0.3,0-0.4c0-2,2.1-3.4,5.2-3.4h0.5c3.4,0,5.1,1.5,5.1,3.7
			v5.4c0,0.6,0.3,0.8,0.7,0.8c0.3,0,0.8-0.2,0.9-0.3v2.1c-0.2,0.1-0.9,0.5-2,0.5c-1.7,0-2.6-0.8-2.7-2c-0.8,1-2.1,2-4,2
			s-4-0.5-4-3.4c0-3.4,3.1-4,7.8-4v-0.8C50.7,86.9,50.2,86.1,48.6,86.1z M46.4,92.3c0,1,0.6,1.4,1.7,1.4c1.2,0,2.6-1,2.6-2.6v-0.6
			C47.9,90.5,46.4,91,46.4,92.3z M49.8,79.2h3l0,0.1L50,82.5h-2.3L49.8,79.2z"/>
		<path fill="#FFFFFF" d="M63.9,88c0-0.8-0.4-1.7-1.6-1.7c-1.1,0-1.7,1-1.7,2.2v7.3h-3.3V84h2.5l0.4,1.7c0.1-0.3,1.1-2,3.3-2
			c2.2,0,3.3,1.5,3.3,3.6c0,0.4-0.1,1.2-0.1,1.2h-2.8V88z"/>
		<path fill="#FFFFFF" d="M73.6,93.7c1.4,0,2.3-0.8,2.3-2.6H79c0,3.4-2.4,4.9-5.1,4.9h-0.4c-3.4,0-5.6-2.1-5.6-5.8v-0.7
			c0-3.7,2.4-5.8,5.6-5.8H74c2.7,0,5.1,1.8,5.1,4.9h-3.3c0-1.5-0.7-2.6-2.1-2.6c-1.4,0-2.2,1.3-2.2,2.9v2
			C71.4,92.5,72.2,93.7,73.6,93.7z"/>
		<path fill="#FFFFFF" d="M87.1,96h-0.4c-3.3,0-5.7-2.1-5.7-5.8v-0.7c0-3.7,2.5-5.8,5.7-5.8h0.4c2.8,0,5.3,1.8,5.3,4.9v1.7h-8V91
			c0,1.5,0.9,2.7,2.5,2.7c1.4,0,2.3-0.8,2.3-2.3h3.2C92.5,94.6,89.9,96,87.1,96z M84.4,88.6h4.6c0-1.4-0.6-2.5-2.3-2.5
			C85.4,86.1,84.5,87.2,84.4,88.6z"/>
		<path fill="#FFFFFF" d="M104.7,85.7c0.9-1.3,2-1.9,3.4-1.9c2.1,0,3.8,1.3,3.8,3.8v8.2h-3.4v-7.5c0-1.3-0.6-2-1.6-2
			c-1.1,0-1.9,0.9-1.9,2.3v7.3h-3.4v-7.5c0-1.3-0.6-2-1.6-2c-1.1,0-1.9,0.9-1.9,2.3v7.3H95V84h2.5c0.1,0.6,0.3,1.1,0.4,1.7
			c0.9-1.3,2.1-2,3.4-2C102.8,83.8,104.1,84.4,104.7,85.7z"/>
	</g>
</g>
<g id="poznamky">
</g>
</svg>
